<mxfile host="app.diagrams.net" agent="Mozilla/5.0 (Windows NT 10.0; Win64; x64) AppleWebKit/537.36 (KHTML, like Gecko) Chrome/136.0.0.0 Safari/537.36" version="27.0.9" pages="2">
  <diagram name="Página-1" id="78rqwLEP83IPqgrWMNMg">
    <mxGraphModel dx="2084" dy="1054" grid="1" gridSize="10" guides="1" tooltips="1" connect="1" arrows="1" fold="1" page="1" pageScale="1" pageWidth="827" pageHeight="1169" math="0" shadow="0">
      <root>
        <mxCell id="0" />
        <mxCell id="1" parent="0" />
        <mxCell id="10UE0864SgoTJoeHLDLh-1" value="Pessoa&#xa;{abstract}" style="swimlane;fontStyle=2;align=center;verticalAlign=top;childLayout=stackLayout;horizontal=1;startSize=40;horizontalStack=0;resizeParent=1;resizeLast=0;collapsible=1;marginBottom=0;rounded=1;shadow=0;strokeWidth=1;fontSize=14;spacing=1;" vertex="1" parent="1">
          <mxGeometry x="490" y="437" width="290" height="223" as="geometry">
            <mxRectangle x="230" y="140" width="160" height="26" as="alternateBounds" />
          </mxGeometry>
        </mxCell>
        <mxCell id="10UE0864SgoTJoeHLDLh-2" value="- nome: str" style="text;align=left;verticalAlign=top;spacingLeft=4;spacingRight=4;overflow=hidden;rotatable=0;points=[[0,0.5],[1,0.5]];portConstraint=eastwest;" vertex="1" parent="10UE0864SgoTJoeHLDLh-1">
          <mxGeometry y="40" width="290" height="20" as="geometry" />
        </mxCell>
        <mxCell id="10UE0864SgoTJoeHLDLh-3" value="- cpf: int " style="text;align=left;verticalAlign=top;spacingLeft=4;spacingRight=4;overflow=hidden;rotatable=0;points=[[0,0.5],[1,0.5]];portConstraint=eastwest;rounded=0;shadow=0;html=0;" vertex="1" parent="10UE0864SgoTJoeHLDLh-1">
          <mxGeometry y="60" width="290" height="20" as="geometry" />
        </mxCell>
        <mxCell id="10UE0864SgoTJoeHLDLh-4" value="- celular: int " style="text;align=left;verticalAlign=top;spacingLeft=4;spacingRight=4;overflow=hidden;rotatable=0;points=[[0,0.5],[1,0.5]];portConstraint=eastwest;rounded=0;shadow=0;html=0;" vertex="1" parent="10UE0864SgoTJoeHLDLh-1">
          <mxGeometry y="80" width="290" height="20" as="geometry" />
        </mxCell>
        <mxCell id="10UE0864SgoTJoeHLDLh-5" value="" style="line;html=1;strokeWidth=1;align=left;verticalAlign=middle;spacingTop=-1;spacingLeft=3;spacingRight=3;rotatable=0;labelPosition=right;points=[];portConstraint=eastwest;" vertex="1" parent="10UE0864SgoTJoeHLDLh-1">
          <mxGeometry y="100" width="290" height="10" as="geometry" />
        </mxCell>
        <mxCell id="10UE0864SgoTJoeHLDLh-6" value="+ &lt;&lt;create&gt;&gt;__init__(nome: int, celular:int, cpf: int)&#xa;+ nome(str)&#xa;+ nome(): str&#xa;+ cpf(int)&#xa;+ cpf(): int&#xa;+ celular(int)&#xa;+ celular(): int&#xa;" style="text;align=left;verticalAlign=top;spacingLeft=4;spacingRight=4;overflow=hidden;rotatable=0;points=[[0,0.5],[1,0.5]];portConstraint=eastwest;" vertex="1" parent="10UE0864SgoTJoeHLDLh-1">
          <mxGeometry y="110" width="290" height="100" as="geometry" />
        </mxCell>
        <mxCell id="10UE0864SgoTJoeHLDLh-7" value="Cliente" style="swimlane;fontStyle=0;align=center;verticalAlign=top;childLayout=stackLayout;horizontal=1;startSize=26;horizontalStack=0;resizeParent=1;resizeLast=0;collapsible=1;marginBottom=0;rounded=1;shadow=0;strokeWidth=1;fontSize=15;" vertex="1" parent="1">
          <mxGeometry x="890" y="536" width="310" height="90" as="geometry">
            <mxRectangle x="30" y="360" width="160" height="26" as="alternateBounds" />
          </mxGeometry>
        </mxCell>
        <mxCell id="10UE0864SgoTJoeHLDLh-8" value="- compras: [ ]" style="text;align=left;verticalAlign=top;spacingLeft=4;spacingRight=4;overflow=hidden;rotatable=0;points=[[0,0.5],[1,0.5]];portConstraint=eastwest;" vertex="1" parent="10UE0864SgoTJoeHLDLh-7">
          <mxGeometry y="26" width="310" height="26" as="geometry" />
        </mxCell>
        <mxCell id="10UE0864SgoTJoeHLDLh-9" value="" style="line;html=1;strokeWidth=1;align=left;verticalAlign=middle;spacingTop=-1;spacingLeft=3;spacingRight=3;rotatable=0;labelPosition=right;points=[];portConstraint=eastwest;" vertex="1" parent="10UE0864SgoTJoeHLDLh-7">
          <mxGeometry y="52" width="310" height="8" as="geometry" />
        </mxCell>
        <mxCell id="10UE0864SgoTJoeHLDLh-10" value="+ &lt;&lt;create&gt;&gt;__init__(nome: str, cpf: int, celular: int)&#xa;" style="text;align=left;verticalAlign=top;spacingLeft=4;spacingRight=4;overflow=hidden;rotatable=0;points=[[0,0.5],[1,0.5]];portConstraint=eastwest;fontStyle=0" vertex="1" parent="10UE0864SgoTJoeHLDLh-7">
          <mxGeometry y="60" width="310" height="26" as="geometry" />
        </mxCell>
        <mxCell id="10UE0864SgoTJoeHLDLh-11" value="Vendedor" style="swimlane;fontStyle=0;align=center;verticalAlign=top;childLayout=stackLayout;horizontal=1;startSize=26;horizontalStack=0;resizeParent=1;resizeLast=0;collapsible=1;marginBottom=0;rounded=1;shadow=0;strokeWidth=1;fontSize=15;" vertex="1" parent="1">
          <mxGeometry x="880" y="410" width="430" height="111" as="geometry">
            <mxRectangle x="340" y="380" width="170" height="26" as="alternateBounds" />
          </mxGeometry>
        </mxCell>
        <mxCell id="10UE0864SgoTJoeHLDLh-12" value="- calor_vendido_total: int" style="text;align=left;verticalAlign=top;spacingLeft=4;spacingRight=4;overflow=hidden;rotatable=0;points=[[0,0.5],[1,0.5]];portConstraint=eastwest;" vertex="1" parent="10UE0864SgoTJoeHLDLh-11">
          <mxGeometry y="26" width="430" height="26" as="geometry" />
        </mxCell>
        <mxCell id="10UE0864SgoTJoeHLDLh-13" value="" style="line;html=1;strokeWidth=1;align=left;verticalAlign=middle;spacingTop=-1;spacingLeft=3;spacingRight=3;rotatable=0;labelPosition=right;points=[];portConstraint=eastwest;" vertex="1" parent="10UE0864SgoTJoeHLDLh-11">
          <mxGeometry y="52" width="430" height="8" as="geometry" />
        </mxCell>
        <mxCell id="10UE0864SgoTJoeHLDLh-14" value="+ &lt;&lt;create&gt;&gt;__init__(nome: str,, cpf: int, celular: int, valor_vendido_total: int))&#xa;+ valor_vendido_total() : str&#xa;+ valor_vendido_total(str)" style="text;align=left;verticalAlign=top;spacingLeft=4;spacingRight=4;overflow=hidden;rotatable=0;points=[[0,0.5],[1,0.5]];portConstraint=eastwest;fontStyle=0" vertex="1" parent="10UE0864SgoTJoeHLDLh-11">
          <mxGeometry y="60" width="430" height="50" as="geometry" />
        </mxCell>
        <mxCell id="10UE0864SgoTJoeHLDLh-15" style="edgeStyle=orthogonalEdgeStyle;rounded=1;orthogonalLoop=1;jettySize=auto;html=1;entryX=0.994;entryY=0.333;entryDx=0;entryDy=0;entryPerimeter=0;curved=0;endArrow=block;endFill=0;strokeWidth=1;endSize=13;exitX=0;exitY=0.5;exitDx=0;exitDy=0;" edge="1" parent="1" source="10UE0864SgoTJoeHLDLh-10" target="10UE0864SgoTJoeHLDLh-6">
          <mxGeometry relative="1" as="geometry">
            <mxPoint x="1300" y="1439" as="sourcePoint" />
            <mxPoint x="1202.84" y="1278.38" as="targetPoint" />
            <Array as="points">
              <mxPoint x="810" y="610" />
              <mxPoint x="810" y="580" />
            </Array>
          </mxGeometry>
        </mxCell>
        <mxCell id="10UE0864SgoTJoeHLDLh-16" style="edgeStyle=orthogonalEdgeStyle;rounded=1;orthogonalLoop=1;jettySize=auto;html=1;curved=0;endSize=13;endArrow=block;endFill=0;" edge="1" parent="1">
          <mxGeometry relative="1" as="geometry">
            <Array as="points">
              <mxPoint x="831" y="449" />
              <mxPoint x="811" y="450" />
              <mxPoint x="811" y="580" />
            </Array>
            <mxPoint x="880" y="450" as="sourcePoint" />
            <mxPoint x="779" y="580" as="targetPoint" />
          </mxGeometry>
        </mxCell>
        <mxCell id="10UE0864SgoTJoeHLDLh-17" value="Venda" style="swimlane;fontStyle=0;align=center;verticalAlign=top;childLayout=stackLayout;horizontal=1;startSize=26;horizontalStack=0;resizeParent=1;resizeLast=0;collapsible=1;marginBottom=0;rounded=1;shadow=0;strokeWidth=1;fontSize=15;fillColor=default;" vertex="1" parent="1">
          <mxGeometry x="1400" y="470" width="331" height="160" as="geometry">
            <mxRectangle x="30" y="360" width="160" height="26" as="alternateBounds" />
          </mxGeometry>
        </mxCell>
        <mxCell id="10UE0864SgoTJoeHLDLh-18" value="- cliente: Cliente" style="text;align=left;verticalAlign=top;spacingLeft=4;spacingRight=4;overflow=hidden;rotatable=0;points=[[0,0.5],[1,0.5]];portConstraint=eastwest;" vertex="1" parent="10UE0864SgoTJoeHLDLh-17">
          <mxGeometry y="26" width="331" height="20" as="geometry" />
        </mxCell>
        <mxCell id="10UE0864SgoTJoeHLDLh-19" value="- Vendedor: Vendedor" style="text;align=left;verticalAlign=top;spacingLeft=4;spacingRight=4;overflow=hidden;rotatable=0;points=[[0,0.5],[1,0.5]];portConstraint=eastwest;" vertex="1" parent="10UE0864SgoTJoeHLDLh-17">
          <mxGeometry y="46" width="331" height="20" as="geometry" />
        </mxCell>
        <mxCell id="10UE0864SgoTJoeHLDLh-20" value="" style="line;html=1;strokeWidth=1;align=left;verticalAlign=middle;spacingTop=-1;spacingLeft=3;spacingRight=3;rotatable=0;labelPosition=right;points=[];portConstraint=eastwest;" vertex="1" parent="10UE0864SgoTJoeHLDLh-17">
          <mxGeometry y="66" width="331" height="8" as="geometry" />
        </mxCell>
        <mxCell id="10UE0864SgoTJoeHLDLh-21" value="+ &lt;&lt;create&gt;&gt;__init__(cliente : Cliente, vendedor: Vendedor)&#xa;+ cliente(cliente: Cliente)&#xa;+ cliente(): Cliente&#xa;+ vendedor(vendedor: Vendedor)&#xa;+ vendedor(): Vendedor" style="text;align=left;verticalAlign=top;spacingLeft=4;spacingRight=4;overflow=hidden;rotatable=0;points=[[0,0.5],[1,0.5]];portConstraint=eastwest;fontStyle=0" vertex="1" parent="10UE0864SgoTJoeHLDLh-17">
          <mxGeometry y="74" width="331" height="86" as="geometry" />
        </mxCell>
        <mxCell id="10UE0864SgoTJoeHLDLh-22" value="Transacao" style="swimlane;fontStyle=0;align=center;verticalAlign=top;childLayout=stackLayout;horizontal=1;startSize=26;horizontalStack=0;resizeParent=1;resizeLast=0;collapsible=1;marginBottom=0;rounded=1;shadow=0;strokeWidth=1;fontSize=15;" vertex="1" parent="1">
          <mxGeometry x="930" y="635" width="462" height="285" as="geometry">
            <mxRectangle x="30" y="360" width="160" height="26" as="alternateBounds" />
          </mxGeometry>
        </mxCell>
        <mxCell id="10UE0864SgoTJoeHLDLh-23" value="- produto: Produto" style="text;align=left;verticalAlign=top;spacingLeft=4;spacingRight=4;overflow=hidden;rotatable=0;points=[[0,0.5],[1,0.5]];portConstraint=eastwest;" vertex="1" parent="10UE0864SgoTJoeHLDLh-22">
          <mxGeometry y="26" width="462" height="20" as="geometry" />
        </mxCell>
        <mxCell id="10UE0864SgoTJoeHLDLh-24" value="- quantidade: int" style="text;align=left;verticalAlign=top;spacingLeft=4;spacingRight=4;overflow=hidden;rotatable=0;points=[[0,0.5],[1,0.5]];portConstraint=eastwest;" vertex="1" parent="10UE0864SgoTJoeHLDLh-22">
          <mxGeometry y="46" width="462" height="20" as="geometry" />
        </mxCell>
        <mxCell id="10UE0864SgoTJoeHLDLh-25" value="- data: Datetime" style="text;align=left;verticalAlign=top;spacingLeft=4;spacingRight=4;overflow=hidden;rotatable=0;points=[[0,0.5],[1,0.5]];portConstraint=eastwest;" vertex="1" parent="10UE0864SgoTJoeHLDLh-22">
          <mxGeometry y="66" width="462" height="20" as="geometry" />
        </mxCell>
        <mxCell id="10UE0864SgoTJoeHLDLh-26" value="- valor: float" style="text;align=left;verticalAlign=top;spacingLeft=4;spacingRight=4;overflow=hidden;rotatable=0;points=[[0,0.5],[1,0.5]];portConstraint=eastwest;" vertex="1" parent="10UE0864SgoTJoeHLDLh-22">
          <mxGeometry y="86" width="462" height="20" as="geometry" />
        </mxCell>
        <mxCell id="10UE0864SgoTJoeHLDLh-27" value="- codigo: int" style="text;align=left;verticalAlign=top;spacingLeft=4;spacingRight=4;overflow=hidden;rotatable=0;points=[[0,0.5],[1,0.5]];portConstraint=eastwest;" vertex="1" parent="10UE0864SgoTJoeHLDLh-22">
          <mxGeometry y="106" width="462" height="20" as="geometry" />
        </mxCell>
        <mxCell id="10UE0864SgoTJoeHLDLh-28" value="" style="line;html=1;strokeWidth=1;align=left;verticalAlign=middle;spacingTop=-1;spacingLeft=3;spacingRight=3;rotatable=0;labelPosition=right;points=[];portConstraint=eastwest;" vertex="1" parent="10UE0864SgoTJoeHLDLh-22">
          <mxGeometry y="126" width="462" height="8" as="geometry" />
        </mxCell>
        <mxCell id="10UE0864SgoTJoeHLDLh-29" value="+ &lt;&lt;create&gt;&gt;__init__(quantidade: int, produto: Produto, data: Datetime, valor: float)&#xa;+ quantidade(int)&#xa;+ quantidade(): int&#xa;+ produto(produto: Produto)&#xa;+ data(): Datetime&#xa;+ data(datetime)&#xa;+ valor(float)&#xa;+ valor(): float&#xa;+ codigo(int)&#xa;+ codigo(): int" style="text;align=left;verticalAlign=top;spacingLeft=4;spacingRight=4;overflow=hidden;rotatable=0;points=[[0,0.5],[1,0.5]];portConstraint=eastwest;fontStyle=0" vertex="1" parent="10UE0864SgoTJoeHLDLh-22">
          <mxGeometry y="134" width="462" height="146" as="geometry" />
        </mxCell>
        <mxCell id="10UE0864SgoTJoeHLDLh-30" style="rounded=1;orthogonalLoop=1;jettySize=auto;html=1;exitX=0.15;exitY=1.008;exitDx=0;exitDy=0;endArrow=block;endFill=0;endSize=13;exitPerimeter=0;entryX=0.998;entryY=0.743;entryDx=0;entryDy=0;entryPerimeter=0;" edge="1" parent="1" source="10UE0864SgoTJoeHLDLh-21" target="10UE0864SgoTJoeHLDLh-25">
          <mxGeometry relative="1" as="geometry">
            <mxPoint x="1509.338" y="1490.28" as="sourcePoint" />
            <mxPoint x="1400" y="720" as="targetPoint" />
            <Array as="points">
              <mxPoint x="1450" y="717" />
            </Array>
          </mxGeometry>
        </mxCell>
        <mxCell id="10UE0864SgoTJoeHLDLh-31" value="Produto" style="swimlane;fontStyle=0;align=center;verticalAlign=top;childLayout=stackLayout;horizontal=1;startSize=26;horizontalStack=0;resizeParent=1;resizeLast=0;collapsible=1;marginBottom=0;rounded=1;shadow=0;strokeWidth=1;fontSize=15;" vertex="1" parent="1">
          <mxGeometry x="600" y="1090" width="471" height="300" as="geometry">
            <mxRectangle x="30" y="360" width="160" height="26" as="alternateBounds" />
          </mxGeometry>
        </mxCell>
        <mxCell id="10UE0864SgoTJoeHLDLh-32" value="- nome: str" style="text;align=left;verticalAlign=top;spacingLeft=4;spacingRight=4;overflow=hidden;rotatable=0;points=[[0,0.5],[1,0.5]];portConstraint=eastwest;" vertex="1" parent="10UE0864SgoTJoeHLDLh-31">
          <mxGeometry y="26" width="471" height="20" as="geometry" />
        </mxCell>
        <mxCell id="10UE0864SgoTJoeHLDLh-33" value="- descricao: str" style="text;align=left;verticalAlign=top;spacingLeft=4;spacingRight=4;overflow=hidden;rotatable=0;points=[[0,0.5],[1,0.5]];portConstraint=eastwest;" vertex="1" parent="10UE0864SgoTJoeHLDLh-31">
          <mxGeometry y="46" width="471" height="20" as="geometry" />
        </mxCell>
        <mxCell id="10UE0864SgoTJoeHLDLh-34" value="- preco_venda: float" style="text;align=left;verticalAlign=top;spacingLeft=4;spacingRight=4;overflow=hidden;rotatable=0;points=[[0,0.5],[1,0.5]];portConstraint=eastwest;" vertex="1" parent="10UE0864SgoTJoeHLDLh-31">
          <mxGeometry y="66" width="471" height="20" as="geometry" />
        </mxCell>
        <mxCell id="10UE0864SgoTJoeHLDLh-35" value="- quant_estoque: int" style="text;align=left;verticalAlign=top;spacingLeft=4;spacingRight=4;overflow=hidden;rotatable=0;points=[[0,0.5],[1,0.5]];portConstraint=eastwest;" vertex="1" parent="10UE0864SgoTJoeHLDLh-31">
          <mxGeometry y="86" width="471" height="20" as="geometry" />
        </mxCell>
        <mxCell id="10UE0864SgoTJoeHLDLh-36" value="- codigo_produto: int" style="text;align=left;verticalAlign=top;spacingLeft=4;spacingRight=4;overflow=hidden;rotatable=0;points=[[0,0.5],[1,0.5]];portConstraint=eastwest;" vertex="1" parent="10UE0864SgoTJoeHLDLh-31">
          <mxGeometry y="106" width="471" height="20" as="geometry" />
        </mxCell>
        <mxCell id="10UE0864SgoTJoeHLDLh-37" value="" style="line;html=1;strokeWidth=1;align=left;verticalAlign=middle;spacingTop=-1;spacingLeft=3;spacingRight=3;rotatable=0;labelPosition=right;points=[];portConstraint=eastwest;" vertex="1" parent="10UE0864SgoTJoeHLDLh-31">
          <mxGeometry y="126" width="471" height="8" as="geometry" />
        </mxCell>
        <mxCell id="10UE0864SgoTJoeHLDLh-38" value="+ &lt;&lt;create&gt;&gt;__init__(nome: str, descricao: str, preco_venda: float, quant_estoque: int)&#xa;+ nome(str)&#xa;+ nome(): str&#xa;+ descricao(str)&#xa;+ descricao(): str&#xa;+ preco_venda(float)&#xa;+ preco_venda(): float&#xa;+ quant_estoque(int)&#xa;+ quant_estoque(): int&#xa;+ codigo_produto(int)&#xa;+ codigo_produto(): int" style="text;align=left;verticalAlign=top;spacingLeft=4;spacingRight=4;overflow=hidden;rotatable=0;points=[[0,0.5],[1,0.5]];portConstraint=eastwest;fontStyle=0" vertex="1" parent="10UE0864SgoTJoeHLDLh-31">
          <mxGeometry y="134" width="471" height="166" as="geometry" />
        </mxCell>
        <mxCell id="10UE0864SgoTJoeHLDLh-39" value="1" style="edgeLabel;html=1;align=center;verticalAlign=middle;resizable=0;points=[];fontSize=12;" vertex="1" connectable="0" parent="1">
          <mxGeometry x="1260.002775975774" y="1140.0020989207146" as="geometry">
            <mxPoint x="-149" y="26" as="offset" />
          </mxGeometry>
        </mxCell>
        <mxCell id="10UE0864SgoTJoeHLDLh-40" value="ControladorProdutos" style="swimlane;fontStyle=0;align=center;verticalAlign=top;childLayout=stackLayout;horizontal=1;startSize=26;horizontalStack=0;resizeParent=1;resizeLast=0;collapsible=1;marginBottom=0;rounded=1;shadow=0;strokeWidth=1;fontSize=15;fillColor=#fff2cc;strokeColor=#d6b656;" vertex="1" parent="1">
          <mxGeometry x="150" y="940" width="275" height="230" as="geometry">
            <mxRectangle x="30" y="360" width="160" height="26" as="alternateBounds" />
          </mxGeometry>
        </mxCell>
        <mxCell id="10UE0864SgoTJoeHLDLh-41" value="- produto : []&#xa;- controlador_sistema: ControladorSistema&#xa;- tela_produto: TelaProduto" style="text;align=left;verticalAlign=top;spacingLeft=4;spacingRight=4;overflow=hidden;rotatable=0;points=[[0,0.5],[1,0.5]];portConstraint=eastwest;fontStyle=0" vertex="1" parent="10UE0864SgoTJoeHLDLh-40">
          <mxGeometry y="26" width="275" height="54" as="geometry" />
        </mxCell>
        <mxCell id="10UE0864SgoTJoeHLDLh-42" value="" style="line;html=1;strokeWidth=1;align=left;verticalAlign=middle;spacingTop=-1;spacingLeft=3;spacingRight=3;rotatable=0;labelPosition=right;points=[];portConstraint=eastwest;" vertex="1" parent="10UE0864SgoTJoeHLDLh-40">
          <mxGeometry y="80" width="275" height="8" as="geometry" />
        </mxCell>
        <mxCell id="10UE0864SgoTJoeHLDLh-43" value="+ &lt;&lt;create&gt;&gt;__init__(ControladorSistema)&#xa;+ lista_produtos()&#xa;+ pegar_produto_por_codigo()&#xa;+ incluir_produto()&#xa;+ alterar__preco_produto()&#xa;+ alterar_estoque()&#xa;+ excluir_produto()&#xa;+ retornar() &#xa;+ abrir_tela()&#xa;" style="text;align=left;verticalAlign=top;spacingLeft=4;spacingRight=4;overflow=hidden;rotatable=0;points=[[0,0.5],[1,0.5]];portConstraint=eastwest;fontStyle=0;labelBorderColor=none;" vertex="1" parent="10UE0864SgoTJoeHLDLh-40">
          <mxGeometry y="88" width="275" height="142" as="geometry" />
        </mxCell>
        <mxCell id="10UE0864SgoTJoeHLDLh-44" value="ControladorPessoas" style="swimlane;fontStyle=0;align=center;verticalAlign=top;childLayout=stackLayout;horizontal=1;startSize=26;horizontalStack=0;resizeParent=1;resizeLast=0;collapsible=1;marginBottom=0;rounded=1;shadow=0;strokeWidth=1;fontSize=15;fillColor=#fff2cc;strokeColor=#d6b656;" vertex="1" parent="1">
          <mxGeometry x="160" y="480" width="185" height="250" as="geometry">
            <mxRectangle x="30" y="360" width="160" height="26" as="alternateBounds" />
          </mxGeometry>
        </mxCell>
        <mxCell id="10UE0864SgoTJoeHLDLh-45" value="- clientes: [ ]&#xa;- vendedores: [ ]&#xa;- controlador_sistema&#xa;- tela_pessoa" style="text;align=left;verticalAlign=top;spacingLeft=4;spacingRight=4;overflow=hidden;rotatable=0;points=[[0,0.5],[1,0.5]];portConstraint=eastwest;fontStyle=0" vertex="1" parent="10UE0864SgoTJoeHLDLh-44">
          <mxGeometry y="26" width="185" height="64" as="geometry" />
        </mxCell>
        <mxCell id="10UE0864SgoTJoeHLDLh-46" value="" style="line;html=1;strokeWidth=1;align=left;verticalAlign=middle;spacingTop=-1;spacingLeft=3;spacingRight=3;rotatable=0;labelPosition=right;points=[];portConstraint=eastwest;" vertex="1" parent="10UE0864SgoTJoeHLDLh-44">
          <mxGeometry y="90" width="185" height="8" as="geometry" />
        </mxCell>
        <mxCell id="10UE0864SgoTJoeHLDLh-47" value="+ &lt;&lt;create&gt;&gt;__init__()&#xa;+ incluir_cliente()&#xa;+ incluir_vendedor()&#xa;+ alterar_pessoa()&#xa;+ lista_cliente()&#xa;+ lista_vendedor()&#xa;+ excluir_cliente()&#xa;+ excluir_vendedor()&#xa;+ retornar()&#xa;+ abrir_tela()" style="text;align=left;verticalAlign=top;spacingLeft=4;spacingRight=4;overflow=hidden;rotatable=0;points=[[0,0.5],[1,0.5]];portConstraint=eastwest;fontStyle=0" vertex="1" parent="10UE0864SgoTJoeHLDLh-44">
          <mxGeometry y="98" width="185" height="152" as="geometry" />
        </mxCell>
        <mxCell id="10UE0864SgoTJoeHLDLh-48" value="" style="edgeStyle=orthogonalEdgeStyle;rounded=1;orthogonalLoop=1;jettySize=auto;html=1;endArrow=none;endFill=0;endSize=13;exitX=-0.002;exitY=0.175;exitDx=0;exitDy=0;exitPerimeter=0;curved=0;entryX=1.007;entryY=0.668;entryDx=0;entryDy=0;entryPerimeter=0;startArrow=open;startFill=0;startSize=13;" edge="1" parent="1" source="10UE0864SgoTJoeHLDLh-11">
          <mxGeometry relative="1" as="geometry">
            <mxPoint x="876.3399999999999" y="430.091" as="sourcePoint" />
            <mxPoint x="345.29499999999996" y="548.752" as="targetPoint" />
            <Array as="points">
              <mxPoint x="479" y="429" />
              <mxPoint x="479" y="549" />
            </Array>
          </mxGeometry>
        </mxCell>
        <mxCell id="10UE0864SgoTJoeHLDLh-49" value="&amp;nbsp;- vendedores" style="edgeLabel;html=1;align=center;verticalAlign=middle;resizable=0;points=[];" vertex="1" connectable="0" parent="10UE0864SgoTJoeHLDLh-48">
          <mxGeometry x="-0.6633" y="3" relative="1" as="geometry">
            <mxPoint y="-4" as="offset" />
          </mxGeometry>
        </mxCell>
        <mxCell id="10UE0864SgoTJoeHLDLh-50" value="Endereco" style="swimlane;fontStyle=0;align=center;verticalAlign=top;childLayout=stackLayout;horizontal=1;startSize=26;horizontalStack=0;resizeParent=1;resizeLast=0;collapsible=1;marginBottom=0;rounded=1;shadow=0;strokeWidth=1;fontSize=15;" vertex="1" parent="1">
          <mxGeometry x="580" y="1440" width="290" height="210" as="geometry">
            <mxRectangle x="30" y="360" width="160" height="26" as="alternateBounds" />
          </mxGeometry>
        </mxCell>
        <mxCell id="10UE0864SgoTJoeHLDLh-51" value="- cep: int" style="text;align=left;verticalAlign=top;spacingLeft=4;spacingRight=4;overflow=hidden;rotatable=0;points=[[0,0.5],[1,0.5]];portConstraint=eastwest;" vertex="1" parent="10UE0864SgoTJoeHLDLh-50">
          <mxGeometry y="26" width="290" height="24" as="geometry" />
        </mxCell>
        <mxCell id="10UE0864SgoTJoeHLDLh-52" value="- rua: str" style="text;align=left;verticalAlign=top;spacingLeft=4;spacingRight=4;overflow=hidden;rotatable=0;points=[[0,0.5],[1,0.5]];portConstraint=eastwest;" vertex="1" parent="10UE0864SgoTJoeHLDLh-50">
          <mxGeometry y="50" width="290" height="20" as="geometry" />
        </mxCell>
        <mxCell id="10UE0864SgoTJoeHLDLh-53" value="- numero: int" style="text;align=left;verticalAlign=top;spacingLeft=4;spacingRight=4;overflow=hidden;rotatable=0;points=[[0,0.5],[1,0.5]];portConstraint=eastwest;" vertex="1" parent="10UE0864SgoTJoeHLDLh-50">
          <mxGeometry y="70" width="290" height="20" as="geometry" />
        </mxCell>
        <mxCell id="10UE0864SgoTJoeHLDLh-54" value="" style="line;html=1;strokeWidth=1;align=left;verticalAlign=middle;spacingTop=-1;spacingLeft=3;spacingRight=3;rotatable=0;labelPosition=right;points=[];portConstraint=eastwest;" vertex="1" parent="10UE0864SgoTJoeHLDLh-50">
          <mxGeometry y="90" width="290" height="8" as="geometry" />
        </mxCell>
        <mxCell id="10UE0864SgoTJoeHLDLh-55" value="+ &lt;&lt;create&gt;&gt;__init__(cep: int, rua: str, numero: int)&#xa;+ cep(int)&#xa;+ cep(): int&#xa;+ rua(srt)&#xa;+ rua(): str&#xa;+ numero(int)&#xa;+ numero(): int" style="text;align=left;verticalAlign=top;spacingLeft=4;spacingRight=4;overflow=hidden;rotatable=0;points=[[0,0.5],[1,0.5]];portConstraint=eastwest;fontStyle=0" vertex="1" parent="10UE0864SgoTJoeHLDLh-50">
          <mxGeometry y="98" width="290" height="106" as="geometry" />
        </mxCell>
        <mxCell id="10UE0864SgoTJoeHLDLh-56" style="edgeStyle=orthogonalEdgeStyle;rounded=1;orthogonalLoop=1;jettySize=auto;html=1;entryX=0.148;entryY=-0.011;entryDx=0;entryDy=0;entryPerimeter=0;endArrow=open;endFill=0;startArrow=diamondThin;startFill=1;curved=0;startSize=16;endSize=13;exitX=-0.001;exitY=0.577;exitDx=0;exitDy=0;exitPerimeter=0;" edge="1" parent="1" source="10UE0864SgoTJoeHLDLh-108" target="10UE0864SgoTJoeHLDLh-50">
          <mxGeometry relative="1" as="geometry">
            <mxPoint x="1775.9999999999995" y="2027" as="sourcePoint" />
            <Array as="points">
              <mxPoint x="950" y="1519" />
              <mxPoint x="950" y="1410" />
              <mxPoint x="623" y="1410" />
            </Array>
          </mxGeometry>
        </mxCell>
        <mxCell id="10UE0864SgoTJoeHLDLh-57" value="- enderecos" style="edgeLabel;html=1;align=center;verticalAlign=middle;resizable=0;points=[];" vertex="1" connectable="0" parent="10UE0864SgoTJoeHLDLh-56">
          <mxGeometry x="0.7187" y="-3" relative="1" as="geometry">
            <mxPoint x="87" y="3" as="offset" />
          </mxGeometry>
        </mxCell>
        <mxCell id="10UE0864SgoTJoeHLDLh-58" value="1, ..." style="text;html=1;align=center;verticalAlign=middle;resizable=0;points=[];autosize=1;strokeColor=none;fillColor=none;" vertex="1" parent="1">
          <mxGeometry x="980" y="1480" width="50" height="30" as="geometry" />
        </mxCell>
        <mxCell id="10UE0864SgoTJoeHLDLh-59" value="ControladorSistema" style="swimlane;fontStyle=0;align=center;verticalAlign=top;childLayout=stackLayout;horizontal=1;startSize=26;horizontalStack=0;resizeParent=1;resizeLast=0;collapsible=1;marginBottom=0;rounded=1;shadow=0;strokeWidth=1;fontSize=15;fontFamily=Helvetica;" vertex="1" parent="1">
          <mxGeometry x="202" y="80" width="1650" height="300" as="geometry">
            <mxRectangle x="30" y="360" width="160" height="26" as="alternateBounds" />
          </mxGeometry>
        </mxCell>
        <mxCell id="10UE0864SgoTJoeHLDLh-60" value="- controlador_venda: ControladorVenda&#xa;- controlador_fornecedor: ControladorFornecedor&#xa;- controlador_produto: ControladorProduto&#xa;- controlador_pedido: ControladorPedido&#xa;- controlador_pessoa: ContoladorPessoa&#xa;- tela_sistema: TelaSistema&#xa;&#xa;" style="text;align=left;verticalAlign=top;spacingLeft=4;spacingRight=4;overflow=hidden;rotatable=0;points=[[0,0.5],[1,0.5]];portConstraint=eastwest;fontStyle=0;fontFamily=Helvetica;fontSize=15;fontColor=default;horizontal=1;" vertex="1" parent="10UE0864SgoTJoeHLDLh-59">
          <mxGeometry y="26" width="1650" height="94" as="geometry" />
        </mxCell>
        <mxCell id="10UE0864SgoTJoeHLDLh-61" value="" style="line;html=1;strokeWidth=1;align=center;verticalAlign=top;spacingTop=-1;spacingLeft=3;spacingRight=3;rotatable=0;labelPosition=right;points=[];portConstraint=eastwest;rounded=1;shadow=0;strokeColor=default;fontFamily=Helvetica;fontSize=15;fontColor=default;fontStyle=0;horizontal=1;fillColor=default;" vertex="1" parent="10UE0864SgoTJoeHLDLh-59">
          <mxGeometry y="120" width="1650" height="8" as="geometry" />
        </mxCell>
        <mxCell id="10UE0864SgoTJoeHLDLh-62" value="+ &lt;&lt;create&gt;&gt;__init__()&#xa;+cadastra_venda()&#xa;+ cadastra_fornecedor()&#xa;+ cadastra_produto()&#xa;+ cadastra_pedido&#xa;+ cadastra_pessoa()&#xa;+ inicializa_sistema()&#xa;+ encerra_sistema()&#xa;+ abre_tela()&#xa;" style="text;align=left;verticalAlign=top;spacingLeft=4;spacingRight=4;overflow=hidden;rotatable=0;points=[[0,0.5],[1,0.5]];portConstraint=eastwest;fontStyle=0;fontFamily=Helvetica;fontSize=15;fontColor=default;horizontal=1;" vertex="1" parent="10UE0864SgoTJoeHLDLh-59">
          <mxGeometry y="128" width="1650" height="172" as="geometry" />
        </mxCell>
        <mxCell id="10UE0864SgoTJoeHLDLh-63" value="TelaPessoas" style="swimlane;fontStyle=0;align=center;verticalAlign=top;childLayout=stackLayout;horizontal=1;startSize=26;horizontalStack=0;resizeParent=1;resizeLast=0;collapsible=1;marginBottom=0;rounded=1;shadow=0;strokeWidth=1;fontSize=15;fillColor=#f8cecc;strokeColor=#b85450;" vertex="1" parent="1">
          <mxGeometry x="470" y="680" width="185" height="150" as="geometry">
            <mxRectangle x="30" y="360" width="160" height="26" as="alternateBounds" />
          </mxGeometry>
        </mxCell>
        <mxCell id="10UE0864SgoTJoeHLDLh-64" value="" style="line;html=1;strokeWidth=1;align=left;verticalAlign=middle;spacingTop=-1;spacingLeft=3;spacingRight=3;rotatable=0;labelPosition=right;points=[];portConstraint=eastwest;" vertex="1" parent="10UE0864SgoTJoeHLDLh-63">
          <mxGeometry y="26" width="185" height="8" as="geometry" />
        </mxCell>
        <mxCell id="10UE0864SgoTJoeHLDLh-181" style="edgeStyle=orthogonalEdgeStyle;rounded=0;orthogonalLoop=1;jettySize=auto;html=1;exitX=0.055;exitY=1.005;exitDx=0;exitDy=0;exitPerimeter=0;" edge="1" parent="10UE0864SgoTJoeHLDLh-63" source="10UE0864SgoTJoeHLDLh-65">
          <mxGeometry relative="1" as="geometry">
            <mxPoint x="370" y="1080" as="targetPoint" />
            <mxPoint x="11.470000000000027" y="152.0440000000001" as="sourcePoint" />
            <Array as="points">
              <mxPoint x="10" y="1030" />
              <mxPoint x="10" y="1030" />
            </Array>
          </mxGeometry>
        </mxCell>
        <mxCell id="10UE0864SgoTJoeHLDLh-65" value="+ &lt;&lt;create&gt;&gt;__init__()&#xa;+ tela_opcoes()&#xa;+ pega_dado_pessoa()&#xa;+ mostra_cliente()&#xa;+ mostra_vendedor()&#xa;+ seleciona_pessoa()&#xa;+ mostra_mensagem()" style="text;align=left;verticalAlign=top;spacingLeft=4;spacingRight=4;overflow=hidden;rotatable=0;points=[[0,0.5],[1,0.5]];portConstraint=eastwest;fontStyle=0" vertex="1" parent="10UE0864SgoTJoeHLDLh-63">
          <mxGeometry y="34" width="185" height="116" as="geometry" />
        </mxCell>
        <mxCell id="10UE0864SgoTJoeHLDLh-66" style="edgeStyle=orthogonalEdgeStyle;rounded=1;orthogonalLoop=1;jettySize=auto;html=1;endArrow=diamondThin;endFill=1;endSize=16;curved=0;entryX=0.464;entryY=-0.018;entryDx=0;entryDy=0;entryPerimeter=0;" edge="1" parent="1">
          <mxGeometry relative="1" as="geometry">
            <mxPoint x="695" y="870.0000000000002" as="sourcePoint" />
            <mxPoint x="277.5999999999999" y="939.8600000000001" as="targetPoint" />
            <Array as="points">
              <mxPoint x="278" y="870" />
            </Array>
          </mxGeometry>
        </mxCell>
        <mxCell id="10UE0864SgoTJoeHLDLh-67" value="&amp;nbsp;- tela_produto&amp;nbsp;" style="edgeLabel;html=1;align=center;verticalAlign=middle;resizable=0;points=[];" vertex="1" connectable="0" parent="10UE0864SgoTJoeHLDLh-66">
          <mxGeometry x="-0.3936" y="3" relative="1" as="geometry">
            <mxPoint x="-7" y="-4" as="offset" />
          </mxGeometry>
        </mxCell>
        <mxCell id="10UE0864SgoTJoeHLDLh-68" value="TelarProduto" style="swimlane;fontStyle=0;align=center;verticalAlign=top;childLayout=stackLayout;horizontal=1;startSize=26;horizontalStack=0;resizeParent=1;resizeLast=0;collapsible=1;marginBottom=0;rounded=1;shadow=0;strokeWidth=1;fontSize=15;fillColor=#f8cecc;strokeColor=#b85450;" vertex="1" parent="1">
          <mxGeometry x="695" y="792" width="185" height="148" as="geometry">
            <mxRectangle x="30" y="360" width="160" height="26" as="alternateBounds" />
          </mxGeometry>
        </mxCell>
        <mxCell id="10UE0864SgoTJoeHLDLh-69" value="" style="line;html=1;strokeWidth=1;align=left;verticalAlign=middle;spacingTop=-1;spacingLeft=3;spacingRight=3;rotatable=0;labelPosition=right;points=[];portConstraint=eastwest;" vertex="1" parent="10UE0864SgoTJoeHLDLh-68">
          <mxGeometry y="26" width="185" height="8" as="geometry" />
        </mxCell>
        <mxCell id="10UE0864SgoTJoeHLDLh-182" style="edgeStyle=orthogonalEdgeStyle;rounded=0;orthogonalLoop=1;jettySize=auto;html=1;" edge="1" parent="10UE0864SgoTJoeHLDLh-68">
          <mxGeometry relative="1" as="geometry">
            <mxPoint x="135" y="938" as="targetPoint" />
            <mxPoint y="107" as="sourcePoint" />
            <Array as="points">
              <mxPoint x="-165" y="108" />
              <mxPoint x="-165" y="938" />
            </Array>
          </mxGeometry>
        </mxCell>
        <mxCell id="10UE0864SgoTJoeHLDLh-70" value="+ &lt;&lt;create&gt;&gt;__init__()&#xa;+ tela_opcoes()&#xa;+ pega_dado_produto()&#xa;+ pega_dado_produto_alterar()&#xa;+ mostra_produto()&#xa;+ seleciona_produto()&#xa;+ mostra_mensagem()" style="text;align=left;verticalAlign=top;spacingLeft=4;spacingRight=4;overflow=hidden;rotatable=0;points=[[0,0.5],[1,0.5]];portConstraint=eastwest;fontStyle=0" vertex="1" parent="10UE0864SgoTJoeHLDLh-68">
          <mxGeometry y="34" width="185" height="106" as="geometry" />
        </mxCell>
        <mxCell id="10UE0864SgoTJoeHLDLh-71" value="TelarFornecedor" style="swimlane;fontStyle=0;align=center;verticalAlign=top;childLayout=stackLayout;horizontal=1;startSize=26;horizontalStack=0;resizeParent=1;resizeLast=0;collapsible=1;marginBottom=0;rounded=1;shadow=0;strokeWidth=1;fontSize=15;fillColor=#f8cecc;strokeColor=#b85450;" vertex="1" parent="1">
          <mxGeometry x="2050" y="980" width="185" height="180" as="geometry">
            <mxRectangle x="30" y="360" width="160" height="26" as="alternateBounds" />
          </mxGeometry>
        </mxCell>
        <mxCell id="10UE0864SgoTJoeHLDLh-72" value="" style="line;html=1;strokeWidth=1;align=left;verticalAlign=middle;spacingTop=-1;spacingLeft=3;spacingRight=3;rotatable=0;labelPosition=right;points=[];portConstraint=eastwest;" vertex="1" parent="10UE0864SgoTJoeHLDLh-71">
          <mxGeometry y="26" width="185" height="8" as="geometry" />
        </mxCell>
        <mxCell id="10UE0864SgoTJoeHLDLh-184" style="edgeStyle=orthogonalEdgeStyle;rounded=1;orthogonalLoop=1;jettySize=auto;html=1;curved=0;" edge="1" parent="10UE0864SgoTJoeHLDLh-71">
          <mxGeometry relative="1" as="geometry">
            <mxPoint x="-662.800048828125" y="749" as="targetPoint" />
            <mxPoint x="92.60000000000036" y="179" as="sourcePoint" />
            <Array as="points">
              <mxPoint x="93" y="749" />
            </Array>
          </mxGeometry>
        </mxCell>
        <mxCell id="10UE0864SgoTJoeHLDLh-73" value="+ &lt;&lt;create&gt;&gt;__init__()&#xa;+ tela_opcoes()&#xa;+ pega_dado_fornecedor()&#xa;+ pega_dados_endereco()&#xa;+ mostra_endereco()&#xa;+ mostra_fornecedor()&#xa;+ seleciona_fornecedor()&#xa;+ seleciona_endereco()&#xa;+ mostra_mensagem()" style="text;align=left;verticalAlign=top;spacingLeft=4;spacingRight=4;overflow=hidden;rotatable=0;points=[[0,0.5],[1,0.5]];portConstraint=eastwest;fontStyle=0" vertex="1" parent="10UE0864SgoTJoeHLDLh-71">
          <mxGeometry y="34" width="185" height="136" as="geometry" />
        </mxCell>
        <mxCell id="10UE0864SgoTJoeHLDLh-74" style="edgeStyle=orthogonalEdgeStyle;rounded=1;orthogonalLoop=1;jettySize=auto;html=1;endArrow=diamondThin;endFill=1;endSize=16;startSize=16;curved=0;entryX=0.767;entryY=1.014;entryDx=0;entryDy=0;entryPerimeter=0;exitX=1;exitY=0.5;exitDx=0;exitDy=0;" edge="1" parent="1" source="10UE0864SgoTJoeHLDLh-78" target="10UE0864SgoTJoeHLDLh-138">
          <mxGeometry relative="1" as="geometry">
            <mxPoint x="1816" y="689.22" as="targetPoint" />
            <mxPoint x="1731" y="778.2200000000001" as="sourcePoint" />
            <Array as="points">
              <mxPoint x="1720" y="746" />
              <mxPoint x="1720" y="750" />
              <mxPoint x="1961" y="750" />
            </Array>
          </mxGeometry>
        </mxCell>
        <mxCell id="10UE0864SgoTJoeHLDLh-75" value="&amp;nbsp;- tela_venda&amp;nbsp;" style="edgeLabel;html=1;align=center;verticalAlign=middle;resizable=0;points=[];" vertex="1" connectable="0" parent="10UE0864SgoTJoeHLDLh-74">
          <mxGeometry x="-0.3047" relative="1" as="geometry">
            <mxPoint x="-47" y="-2" as="offset" />
          </mxGeometry>
        </mxCell>
        <mxCell id="10UE0864SgoTJoeHLDLh-76" value="TelarVenda" style="swimlane;fontStyle=0;align=center;verticalAlign=top;childLayout=stackLayout;horizontal=1;startSize=26;horizontalStack=0;resizeParent=1;resizeLast=0;collapsible=1;marginBottom=0;rounded=1;shadow=0;strokeWidth=1;fontSize=15;fillColor=#f8cecc;strokeColor=#b85450;" vertex="1" parent="1">
          <mxGeometry x="1468" y="664" width="185" height="138" as="geometry">
            <mxRectangle x="30" y="360" width="160" height="26" as="alternateBounds" />
          </mxGeometry>
        </mxCell>
        <mxCell id="10UE0864SgoTJoeHLDLh-77" value="" style="line;html=1;strokeWidth=1;align=left;verticalAlign=middle;spacingTop=-1;spacingLeft=3;spacingRight=3;rotatable=0;labelPosition=right;points=[];portConstraint=eastwest;" vertex="1" parent="10UE0864SgoTJoeHLDLh-76">
          <mxGeometry y="26" width="185" height="8" as="geometry" />
        </mxCell>
        <mxCell id="10UE0864SgoTJoeHLDLh-185" style="edgeStyle=orthogonalEdgeStyle;rounded=1;orthogonalLoop=1;jettySize=auto;html=1;curved=0;" edge="1" parent="10UE0864SgoTJoeHLDLh-76">
          <mxGeometry relative="1" as="geometry">
            <mxPoint x="-58" y="1035.599853515625" as="targetPoint" />
            <mxPoint x="132" y="136" as="sourcePoint" />
            <Array as="points">
              <mxPoint x="132" y="476" />
              <mxPoint x="542" y="476" />
              <mxPoint x="542" y="1036" />
            </Array>
          </mxGeometry>
        </mxCell>
        <mxCell id="10UE0864SgoTJoeHLDLh-78" value="+ &lt;&lt;create&gt;&gt;__init__()&#xa;+ tela_opcoes()&#xa;+ pega_dado_venda()&#xa;+ mostra_venda()&#xa;+ seleciona_venda()&#xa;+ mostra_mensagem()" style="text;align=left;verticalAlign=top;spacingLeft=4;spacingRight=4;overflow=hidden;rotatable=0;points=[[0,0.5],[1,0.5]];portConstraint=eastwest;fontStyle=0" vertex="1" parent="10UE0864SgoTJoeHLDLh-76">
          <mxGeometry y="34" width="185" height="96" as="geometry" />
        </mxCell>
        <mxCell id="10UE0864SgoTJoeHLDLh-79" value="TelarPedido" style="swimlane;fontStyle=0;align=center;verticalAlign=top;childLayout=stackLayout;horizontal=1;startSize=26;horizontalStack=0;resizeParent=1;resizeLast=0;collapsible=1;marginBottom=0;rounded=1;shadow=0;strokeWidth=1;fontSize=15;fillColor=#f8cecc;strokeColor=#b85450;" vertex="1" parent="1">
          <mxGeometry x="2045" y="498" width="185" height="138" as="geometry">
            <mxRectangle x="30" y="360" width="160" height="26" as="alternateBounds" />
          </mxGeometry>
        </mxCell>
        <mxCell id="10UE0864SgoTJoeHLDLh-80" value="" style="line;html=1;strokeWidth=1;align=left;verticalAlign=middle;spacingTop=-1;spacingLeft=3;spacingRight=3;rotatable=0;labelPosition=right;points=[];portConstraint=eastwest;" vertex="1" parent="10UE0864SgoTJoeHLDLh-79">
          <mxGeometry y="26" width="185" height="8" as="geometry" />
        </mxCell>
        <mxCell id="10UE0864SgoTJoeHLDLh-183" style="edgeStyle=orthogonalEdgeStyle;rounded=0;orthogonalLoop=1;jettySize=auto;html=1;exitX=1;exitY=0.5;exitDx=0;exitDy=0;" edge="1" parent="10UE0864SgoTJoeHLDLh-79" source="10UE0864SgoTJoeHLDLh-81">
          <mxGeometry relative="1" as="geometry">
            <mxPoint x="-655" y="1302" as="targetPoint" />
            <mxPoint y="82" as="sourcePoint" />
            <Array as="points">
              <mxPoint x="355" y="82" />
              <mxPoint x="355" y="1302" />
            </Array>
          </mxGeometry>
        </mxCell>
        <mxCell id="10UE0864SgoTJoeHLDLh-81" value="+ &lt;&lt;create&gt;&gt;__init__()&#xa;+ tela_opcoes()&#xa;+ pega_dado_pedido()&#xa;+ mostra_pedido()&#xa;+ seleciona_pedido()&#xa;+ mostra_mensagem()" style="text;align=left;verticalAlign=top;spacingLeft=4;spacingRight=4;overflow=hidden;rotatable=0;points=[[0,0.5],[1,0.5]];portConstraint=eastwest;fontStyle=0" vertex="1" parent="10UE0864SgoTJoeHLDLh-79">
          <mxGeometry y="34" width="185" height="96" as="geometry" />
        </mxCell>
        <mxCell id="10UE0864SgoTJoeHLDLh-82" style="edgeStyle=orthogonalEdgeStyle;rounded=1;orthogonalLoop=1;jettySize=auto;html=1;endArrow=diamondThin;endFill=1;startSize=16;endSize=16;curved=0;entryX=0.028;entryY=1.005;entryDx=0;entryDy=0;entryPerimeter=0;exitX=0.478;exitY=-0.002;exitDx=0;exitDy=0;exitPerimeter=0;" edge="1" parent="1" source="10UE0864SgoTJoeHLDLh-44" target="10UE0864SgoTJoeHLDLh-62">
          <mxGeometry relative="1" as="geometry">
            <mxPoint x="247.20000000000005" y="373.54999999999995" as="targetPoint" />
            <Array as="points">
              <mxPoint x="248" y="460" />
              <mxPoint x="248" y="460" />
            </Array>
            <mxPoint x="248" y="460" as="sourcePoint" />
          </mxGeometry>
        </mxCell>
        <mxCell id="10UE0864SgoTJoeHLDLh-83" value="- controlador_pessoas" style="edgeLabel;html=1;align=center;verticalAlign=middle;resizable=0;points=[];" vertex="1" connectable="0" parent="10UE0864SgoTJoeHLDLh-82">
          <mxGeometry x="-0.5705" y="1" relative="1" as="geometry">
            <mxPoint as="offset" />
          </mxGeometry>
        </mxCell>
        <mxCell id="10UE0864SgoTJoeHLDLh-84" style="edgeStyle=orthogonalEdgeStyle;rounded=1;orthogonalLoop=1;jettySize=auto;html=1;endArrow=open;endFill=0;curved=0;endSize=13;entryX=1;entryY=0.196;entryDx=0;entryDy=0;entryPerimeter=0;exitX=-0.001;exitY=0.737;exitDx=0;exitDy=0;exitPerimeter=0;" edge="1" parent="1" source="10UE0864SgoTJoeHLDLh-21" target="10UE0864SgoTJoeHLDLh-7">
          <mxGeometry relative="1" as="geometry">
            <mxPoint x="1400.5" y="612" as="sourcePoint" />
            <mxPoint x="1210" y="552.98" as="targetPoint" />
            <Array as="points">
              <mxPoint x="1390" y="607" />
              <mxPoint x="1316" y="607" />
              <mxPoint x="1316" y="554" />
            </Array>
          </mxGeometry>
        </mxCell>
        <mxCell id="10UE0864SgoTJoeHLDLh-85" style="edgeStyle=orthogonalEdgeStyle;rounded=1;orthogonalLoop=1;jettySize=auto;html=1;endArrow=open;endFill=0;endSize=13;curved=0;exitX=0;exitY=0.063;exitDx=0;exitDy=0;exitPerimeter=0;" edge="1" parent="1">
          <mxGeometry relative="1" as="geometry">
            <mxPoint x="1400.5" y="540.08" as="sourcePoint" />
            <mxPoint x="1247.5" y="520" as="targetPoint" />
            <Array as="points">
              <mxPoint x="1247.5" y="540" />
            </Array>
          </mxGeometry>
        </mxCell>
        <mxCell id="10UE0864SgoTJoeHLDLh-86" value="&amp;nbsp;- cliente&amp;nbsp;" style="edgeLabel;html=1;align=center;verticalAlign=middle;resizable=0;points=[];fontSize=12;" vertex="1" connectable="0" parent="10UE0864SgoTJoeHLDLh-85">
          <mxGeometry x="-0.3414" y="-1" relative="1" as="geometry">
            <mxPoint x="7" y="67" as="offset" />
          </mxGeometry>
        </mxCell>
        <mxCell id="10UE0864SgoTJoeHLDLh-87" value="&amp;nbsp;- vendedor&amp;nbsp;" style="edgeLabel;html=1;align=center;verticalAlign=middle;resizable=0;points=[];fontSize=12;" vertex="1" connectable="0" parent="10UE0864SgoTJoeHLDLh-85">
          <mxGeometry x="-0.0971" y="1" relative="1" as="geometry">
            <mxPoint as="offset" />
          </mxGeometry>
        </mxCell>
        <mxCell id="10UE0864SgoTJoeHLDLh-88" value="1" style="edgeLabel;html=1;align=center;verticalAlign=middle;resizable=0;points=[];fontSize=12;" vertex="1" connectable="0" parent="1">
          <mxGeometry x="1400.502775975774" y="552.0020989207146" as="geometry">
            <mxPoint x="-13" y="-3" as="offset" />
          </mxGeometry>
        </mxCell>
        <mxCell id="10UE0864SgoTJoeHLDLh-89" value="1" style="edgeLabel;html=1;align=center;verticalAlign=middle;resizable=0;points=[];fontSize=12;" vertex="1" connectable="0" parent="1">
          <mxGeometry x="1406.502775975774" y="622.0020989207146" as="geometry">
            <mxPoint x="-13" y="-3" as="offset" />
          </mxGeometry>
        </mxCell>
        <mxCell id="10UE0864SgoTJoeHLDLh-90" style="edgeStyle=orthogonalEdgeStyle;rounded=1;orthogonalLoop=1;jettySize=auto;html=1;curved=0;endArrow=block;endFill=0;endSize=13;" edge="1" parent="1" source="10UE0864SgoTJoeHLDLh-91">
          <mxGeometry relative="1" as="geometry">
            <mxPoint x="1418" y="838" as="sourcePoint" />
            <mxPoint x="1390.0000000000002" y="800.076923076923" as="targetPoint" />
            <Array as="points">
              <mxPoint x="1468" y="800" />
            </Array>
          </mxGeometry>
        </mxCell>
        <mxCell id="10UE0864SgoTJoeHLDLh-91" value="Pedido" style="swimlane;fontStyle=0;align=center;verticalAlign=top;childLayout=stackLayout;horizontal=1;startSize=26;horizontalStack=0;resizeParent=1;resizeLast=0;collapsible=1;marginBottom=0;rounded=1;shadow=0;strokeWidth=1;fontSize=15;" vertex="1" parent="1">
          <mxGeometry x="1140" y="930" width="421" height="230" as="geometry">
            <mxRectangle x="30" y="360" width="160" height="26" as="alternateBounds" />
          </mxGeometry>
        </mxCell>
        <mxCell id="10UE0864SgoTJoeHLDLh-92" value="- fornecedor: Fornecedor" style="text;align=left;verticalAlign=top;spacingLeft=4;spacingRight=4;overflow=hidden;rotatable=0;points=[[0,0.5],[1,0.5]];portConstraint=eastwest;" vertex="1" parent="10UE0864SgoTJoeHLDLh-91">
          <mxGeometry y="26" width="421" height="20" as="geometry" />
        </mxCell>
        <mxCell id="10UE0864SgoTJoeHLDLh-93" value="- frete: float" style="text;align=left;verticalAlign=top;spacingLeft=4;spacingRight=4;overflow=hidden;rotatable=0;points=[[0,0.5],[1,0.5]];portConstraint=eastwest;" vertex="1" parent="10UE0864SgoTJoeHLDLh-91">
          <mxGeometry y="46" width="421" height="20" as="geometry" />
        </mxCell>
        <mxCell id="10UE0864SgoTJoeHLDLh-94" value="- prazo_entrega: int" style="text;align=left;verticalAlign=top;spacingLeft=4;spacingRight=4;overflow=hidden;rotatable=0;points=[[0,0.5],[1,0.5]];portConstraint=eastwest;" vertex="1" parent="10UE0864SgoTJoeHLDLh-91">
          <mxGeometry y="66" width="421" height="20" as="geometry" />
        </mxCell>
        <mxCell id="10UE0864SgoTJoeHLDLh-95" value="" style="line;html=1;strokeWidth=1;align=left;verticalAlign=middle;spacingTop=-1;spacingLeft=3;spacingRight=3;rotatable=0;labelPosition=right;points=[];portConstraint=eastwest;" vertex="1" parent="10UE0864SgoTJoeHLDLh-91">
          <mxGeometry y="86" width="421" height="8" as="geometry" />
        </mxCell>
        <mxCell id="10UE0864SgoTJoeHLDLh-96" value="+ &lt;&lt;create&gt;&gt;__init__(fornecedor: Fornecedor, frete: float, prazo_entrega: int)&#xa;+ fornecedor(fornecedor: Fornecedor)&#xa;+ fornecedor(): Fornecedor&#xa;+ frete(float)&#xa;+ frete():float&#xa;+ prazo_entrega(int)&#xa;+ prazo_entrega(): int&#xa;" style="text;align=left;verticalAlign=top;spacingLeft=4;spacingRight=4;overflow=hidden;rotatable=0;points=[[0,0.5],[1,0.5]];portConstraint=eastwest;fontStyle=0" vertex="1" parent="10UE0864SgoTJoeHLDLh-91">
          <mxGeometry y="94" width="421" height="116" as="geometry" />
        </mxCell>
        <mxCell id="10UE0864SgoTJoeHLDLh-97" style="edgeStyle=orthogonalEdgeStyle;rounded=1;orthogonalLoop=1;jettySize=auto;html=1;endSize=13;endArrow=open;endFill=0;curved=0;entryX=0;entryY=0.5;entryDx=0;entryDy=0;" edge="1" parent="1">
          <mxGeometry relative="1" as="geometry">
            <mxPoint x="1502" y="1160" as="sourcePoint" />
            <mxPoint x="1691.37" y="1246.35" as="targetPoint" />
            <Array as="points">
              <mxPoint x="1502" y="1200" />
              <mxPoint x="1691" y="1200" />
            </Array>
          </mxGeometry>
        </mxCell>
        <mxCell id="10UE0864SgoTJoeHLDLh-98" value="&amp;nbsp;- fornecedor&amp;nbsp;" style="edgeLabel;html=1;align=center;verticalAlign=middle;resizable=0;points=[];fontSize=12;" vertex="1" connectable="0" parent="10UE0864SgoTJoeHLDLh-97">
          <mxGeometry x="-0.0779" relative="1" as="geometry">
            <mxPoint x="27" as="offset" />
          </mxGeometry>
        </mxCell>
        <mxCell id="10UE0864SgoTJoeHLDLh-99" value="1" style="edgeLabel;html=1;align=center;verticalAlign=middle;resizable=0;points=[];fontSize=12;" vertex="1" connectable="0" parent="1">
          <mxGeometry x="1550.002775975774" y="1190.0020989207146" as="geometry">
            <mxPoint x="-13" y="-3" as="offset" />
          </mxGeometry>
        </mxCell>
        <mxCell id="10UE0864SgoTJoeHLDLh-100" value="Fornecedor" style="swimlane;fontStyle=0;align=center;verticalAlign=top;childLayout=stackLayout;horizontal=1;startSize=26;horizontalStack=0;resizeParent=1;resizeLast=0;collapsible=1;marginBottom=0;rounded=1;shadow=0;strokeWidth=1;fontSize=15;" vertex="1" parent="1">
          <mxGeometry x="1110" y="1246" width="789" height="360" as="geometry">
            <mxRectangle x="30" y="360" width="160" height="26" as="alternateBounds" />
          </mxGeometry>
        </mxCell>
        <mxCell id="10UE0864SgoTJoeHLDLh-101" value="- nome: str" style="text;align=left;verticalAlign=top;spacingLeft=4;spacingRight=4;overflow=hidden;rotatable=0;points=[[0,0.5],[1,0.5]];portConstraint=eastwest;" vertex="1" parent="10UE0864SgoTJoeHLDLh-100">
          <mxGeometry y="26" width="789" height="20" as="geometry" />
        </mxCell>
        <mxCell id="10UE0864SgoTJoeHLDLh-102" value="- cnpj: int" style="text;align=left;verticalAlign=top;spacingLeft=4;spacingRight=4;overflow=hidden;rotatable=0;points=[[0,0.5],[1,0.5]];portConstraint=eastwest;" vertex="1" parent="10UE0864SgoTJoeHLDLh-100">
          <mxGeometry y="46" width="789" height="20" as="geometry" />
        </mxCell>
        <mxCell id="10UE0864SgoTJoeHLDLh-103" value="- celular: int&#xa;" style="text;align=left;verticalAlign=top;spacingLeft=4;spacingRight=4;overflow=hidden;rotatable=0;points=[[0,0.5],[1,0.5]];portConstraint=eastwest;" vertex="1" parent="10UE0864SgoTJoeHLDLh-100">
          <mxGeometry y="66" width="789" height="20" as="geometry" />
        </mxCell>
        <mxCell id="10UE0864SgoTJoeHLDLh-104" value="- preco: float" style="text;align=left;verticalAlign=top;spacingLeft=4;spacingRight=4;overflow=hidden;rotatable=0;points=[[0,0.5],[1,0.5]];portConstraint=eastwest;" vertex="1" parent="10UE0864SgoTJoeHLDLh-100">
          <mxGeometry y="86" width="789" height="20" as="geometry" />
        </mxCell>
        <mxCell id="10UE0864SgoTJoeHLDLh-105" value="- produto: Produto" style="text;align=left;verticalAlign=top;spacingLeft=4;spacingRight=4;overflow=hidden;rotatable=0;points=[[0,0.5],[1,0.5]];portConstraint=eastwest;" vertex="1" parent="10UE0864SgoTJoeHLDLh-100">
          <mxGeometry y="106" width="789" height="20" as="geometry" />
        </mxCell>
        <mxCell id="10UE0864SgoTJoeHLDLh-106" value="- endereco: Endereco" style="text;align=left;verticalAlign=top;spacingLeft=4;spacingRight=4;overflow=hidden;rotatable=0;points=[[0,0.5],[1,0.5]];portConstraint=eastwest;" vertex="1" parent="10UE0864SgoTJoeHLDLh-100">
          <mxGeometry y="126" width="789" height="20" as="geometry" />
        </mxCell>
        <mxCell id="10UE0864SgoTJoeHLDLh-107" value="" style="line;html=1;strokeWidth=1;align=left;verticalAlign=middle;spacingTop=-1;spacingLeft=3;spacingRight=3;rotatable=0;labelPosition=right;points=[];portConstraint=eastwest;" vertex="1" parent="10UE0864SgoTJoeHLDLh-100">
          <mxGeometry y="146" width="789" height="8" as="geometry" />
        </mxCell>
        <mxCell id="10UE0864SgoTJoeHLDLh-108" value="+ &lt;&lt;create&gt;&gt;__init__(nome: str, cnpj: int, celular: int, produto: Produto, preco: float, cep_endereco: int, rua_endereco: int, numero_endereco: int)&#xa;+ nome(str)&#xa;+ nome(): str&#xa;+ cnpj(int)&#xa;+ cnpj(): int&#xa;+ celular(int)&#xa;+ celular(): int&#xa;+ produto(Produto)&#xa;+ produto: Produto&#xa;+ preco(float)&#xa;+ preco(): float&#xa;+ incluir_endereco(cep: int, rua: str, numero: int):&#xa;+ excluir_endereco(cep: int, rua: str, numero: int):&#xa;" style="text;align=left;verticalAlign=top;spacingLeft=4;spacingRight=4;overflow=hidden;rotatable=0;points=[[0,0.5],[1,0.5]];portConstraint=eastwest;fontStyle=0" vertex="1" parent="10UE0864SgoTJoeHLDLh-100">
          <mxGeometry y="154" width="789" height="206" as="geometry" />
        </mxCell>
        <mxCell id="10UE0864SgoTJoeHLDLh-109" style="edgeStyle=orthogonalEdgeStyle;rounded=1;orthogonalLoop=1;jettySize=auto;html=1;startArrow=diamondThin;startFill=0;startSize=16;endSize=13;endArrow=open;endFill=0;exitX=0.265;exitY=0.005;exitDx=0;exitDy=0;exitPerimeter=0;entryX=1;entryY=0.5;entryDx=0;entryDy=0;curved=0;" edge="1" parent="1" target="10UE0864SgoTJoeHLDLh-35">
          <mxGeometry relative="1" as="geometry">
            <mxPoint x="1319.085" y="1246.8000000000002" as="sourcePoint" />
            <mxPoint x="1070" y="909" as="targetPoint" />
            <Array as="points">
              <mxPoint x="1319" y="1186" />
            </Array>
          </mxGeometry>
        </mxCell>
        <mxCell id="10UE0864SgoTJoeHLDLh-110" value="&amp;nbsp;- produto&amp;nbsp;" style="edgeLabel;html=1;align=center;verticalAlign=middle;resizable=0;points=[];fontSize=12;" vertex="1" connectable="0" parent="10UE0864SgoTJoeHLDLh-109">
          <mxGeometry x="-0.02" relative="1" as="geometry">
            <mxPoint x="-1" as="offset" />
          </mxGeometry>
        </mxCell>
        <mxCell id="10UE0864SgoTJoeHLDLh-111" value="- produto" style="edgeStyle=orthogonalEdgeStyle;rounded=0;orthogonalLoop=1;jettySize=auto;html=1;endArrow=open;endFill=0;endSize=13;" edge="1" parent="1">
          <mxGeometry relative="1" as="geometry">
            <mxPoint x="1018" y="920" as="sourcePoint" />
            <mxPoint x="1018" y="1089" as="targetPoint" />
          </mxGeometry>
        </mxCell>
        <mxCell id="10UE0864SgoTJoeHLDLh-112" value="1" style="edgeLabel;html=1;align=center;verticalAlign=middle;resizable=0;points=[];fontSize=12;" vertex="1" connectable="0" parent="1">
          <mxGeometry x="1040.002775975774" y="940.0020989207146" as="geometry">
            <mxPoint x="-10" y="-8" as="offset" />
          </mxGeometry>
        </mxCell>
        <mxCell id="10UE0864SgoTJoeHLDLh-113" style="edgeStyle=orthogonalEdgeStyle;rounded=1;orthogonalLoop=1;jettySize=auto;html=1;entryX=0.25;entryY=0;entryDx=0;entryDy=0;startSize=13;endSize=13;endArrow=open;endFill=0;curved=0;" edge="1" parent="1" source="10UE0864SgoTJoeHLDLh-41" target="10UE0864SgoTJoeHLDLh-31">
          <mxGeometry relative="1" as="geometry" />
        </mxCell>
        <mxCell id="10UE0864SgoTJoeHLDLh-114" value="&amp;nbsp;- produtos&amp;nbsp;" style="edgeLabel;html=1;align=center;verticalAlign=middle;resizable=0;points=[];" vertex="1" connectable="0" parent="10UE0864SgoTJoeHLDLh-113">
          <mxGeometry x="-0.1791" y="1" relative="1" as="geometry">
            <mxPoint x="-2" y="1" as="offset" />
          </mxGeometry>
        </mxCell>
        <mxCell id="10UE0864SgoTJoeHLDLh-115" style="edgeStyle=orthogonalEdgeStyle;rounded=1;orthogonalLoop=1;jettySize=auto;html=1;entryX=0.017;entryY=1;entryDx=0;entryDy=0;entryPerimeter=0;endArrow=diamondThin;endFill=1;endSize=16;exitX=-0.006;exitY=0.817;exitDx=0;exitDy=0;exitPerimeter=0;curved=0;" edge="1" parent="1" source="10UE0864SgoTJoeHLDLh-41" target="10UE0864SgoTJoeHLDLh-62">
          <mxGeometry relative="1" as="geometry">
            <Array as="points">
              <mxPoint x="120" y="1010" />
              <mxPoint x="120" y="450" />
              <mxPoint x="230" y="450" />
            </Array>
          </mxGeometry>
        </mxCell>
        <mxCell id="10UE0864SgoTJoeHLDLh-116" value="- controalador_produtos" style="edgeLabel;html=1;align=center;verticalAlign=middle;resizable=0;points=[];" vertex="1" connectable="0" parent="10UE0864SgoTJoeHLDLh-115">
          <mxGeometry x="0.6926" relative="1" as="geometry">
            <mxPoint y="-20" as="offset" />
          </mxGeometry>
        </mxCell>
        <mxCell id="10UE0864SgoTJoeHLDLh-117" style="edgeStyle=orthogonalEdgeStyle;rounded=1;orthogonalLoop=1;jettySize=auto;html=1;entryX=1.004;entryY=0.167;entryDx=0;entryDy=0;entryPerimeter=0;endArrow=diamondThin;endFill=1;endSize=16;curved=0;" edge="1" parent="1" source="10UE0864SgoTJoeHLDLh-65" target="10UE0864SgoTJoeHLDLh-47">
          <mxGeometry relative="1" as="geometry" />
        </mxCell>
        <mxCell id="10UE0864SgoTJoeHLDLh-118" value="- tela_pessoa" style="edgeLabel;html=1;align=center;verticalAlign=middle;resizable=0;points=[];" vertex="1" connectable="0" parent="10UE0864SgoTJoeHLDLh-117">
          <mxGeometry x="-0.2885" relative="1" as="geometry">
            <mxPoint x="-3" y="-19" as="offset" />
          </mxGeometry>
        </mxCell>
        <mxCell id="10UE0864SgoTJoeHLDLh-119" style="edgeStyle=orthogonalEdgeStyle;rounded=1;orthogonalLoop=1;jettySize=auto;html=1;exitX=0.874;exitY=1.027;exitDx=0;exitDy=0;exitPerimeter=0;entryX=0.935;entryY=1.003;entryDx=0;entryDy=0;entryPerimeter=0;endArrow=diamondThin;endFill=1;startSize=16;endSize=16;curved=0;" edge="1" parent="1" source="10UE0864SgoTJoeHLDLh-124" target="10UE0864SgoTJoeHLDLh-62">
          <mxGeometry relative="1" as="geometry">
            <mxPoint x="1745.2999999999997" y="373.55000000000007" as="targetPoint" />
            <mxPoint x="1663.0499999999997" y="962" as="sourcePoint" />
            <Array as="points">
              <mxPoint x="1864" y="1180" />
              <mxPoint x="2270" y="1180" />
              <mxPoint x="2270" y="420" />
              <mxPoint x="1745" y="420" />
            </Array>
          </mxGeometry>
        </mxCell>
        <mxCell id="10UE0864SgoTJoeHLDLh-120" value="&amp;nbsp;- controlador_fornecedores&amp;nbsp;" style="edgeLabel;html=1;align=center;verticalAlign=middle;resizable=0;points=[];" vertex="1" connectable="0" parent="10UE0864SgoTJoeHLDLh-119">
          <mxGeometry x="0.7269" y="5" relative="1" as="geometry">
            <mxPoint x="-59" y="-6" as="offset" />
          </mxGeometry>
        </mxCell>
        <mxCell id="10UE0864SgoTJoeHLDLh-121" value="ControladorFornecedores" style="swimlane;fontStyle=0;align=center;verticalAlign=top;childLayout=stackLayout;horizontal=1;startSize=26;horizontalStack=0;resizeParent=1;resizeLast=0;collapsible=1;marginBottom=0;rounded=1;shadow=0;strokeWidth=1;fontSize=15;fillColor=#fff2cc;strokeColor=#d6b656;" vertex="1" parent="1">
          <mxGeometry x="1624" y="850" width="275" height="250" as="geometry">
            <mxRectangle x="30" y="360" width="160" height="26" as="alternateBounds" />
          </mxGeometry>
        </mxCell>
        <mxCell id="10UE0864SgoTJoeHLDLh-122" value="- fornecedores : []&#xa;- controlador_sistema: ControladorSistema&#xa;- tela_fornecedor: TelaFornecedor" style="text;align=left;verticalAlign=top;spacingLeft=4;spacingRight=4;overflow=hidden;rotatable=0;points=[[0,0.5],[1,0.5]];portConstraint=eastwest;fontStyle=0" vertex="1" parent="10UE0864SgoTJoeHLDLh-121">
          <mxGeometry y="26" width="275" height="54" as="geometry" />
        </mxCell>
        <mxCell id="10UE0864SgoTJoeHLDLh-123" value="" style="line;html=1;strokeWidth=1;align=left;verticalAlign=middle;spacingTop=-1;spacingLeft=3;spacingRight=3;rotatable=0;labelPosition=right;points=[];portConstraint=eastwest;" vertex="1" parent="10UE0864SgoTJoeHLDLh-121">
          <mxGeometry y="80" width="275" height="8" as="geometry" />
        </mxCell>
        <mxCell id="10UE0864SgoTJoeHLDLh-124" value="+ &lt;&lt;create&gt;&gt;__init__(ControladorSistema)&#xa;+ pegar_fornecedor_por_cnpj()&#xa;+ incluir_fornecedor()&#xa;+ alterar_fornecedor()&#xa;+ adiconar_endereco()&#xa;+ lista_fornecedores()&#xa;+excluir_fornecedores()&#xa;+ excluir_endereco()&#xa;+ listar_enderecos_do_fornecedor&#xa;+ retornar() &#xa;+ abrir_tela()&#xa;" style="text;align=left;verticalAlign=top;spacingLeft=4;spacingRight=4;overflow=hidden;rotatable=0;points=[[0,0.5],[1,0.5]];portConstraint=eastwest;fontStyle=0;labelBorderColor=none;" vertex="1" parent="10UE0864SgoTJoeHLDLh-121">
          <mxGeometry y="88" width="275" height="162" as="geometry" />
        </mxCell>
        <mxCell id="10UE0864SgoTJoeHLDLh-125" style="edgeStyle=orthogonalEdgeStyle;rounded=1;orthogonalLoop=1;jettySize=auto;html=1;entryX=0.906;entryY=0.004;entryDx=0;entryDy=0;entryPerimeter=0;curved=0;endArrow=open;endFill=0;startSize=13;endSize=13;exitX=0.523;exitY=1.006;exitDx=0;exitDy=0;exitPerimeter=0;" edge="1" parent="1" source="10UE0864SgoTJoeHLDLh-124">
          <mxGeometry relative="1" as="geometry">
            <mxPoint x="1890" y="1110" as="sourcePoint" />
            <mxPoint x="1824.8339999999998" y="1246.44" as="targetPoint" />
          </mxGeometry>
        </mxCell>
        <mxCell id="10UE0864SgoTJoeHLDLh-126" value="&amp;nbsp;- fornecedores&amp;nbsp;" style="edgeLabel;html=1;align=center;verticalAlign=middle;resizable=0;points=[];" vertex="1" connectable="0" parent="10UE0864SgoTJoeHLDLh-125">
          <mxGeometry x="0.0968" y="1" relative="1" as="geometry">
            <mxPoint x="18" y="31" as="offset" />
          </mxGeometry>
        </mxCell>
        <mxCell id="10UE0864SgoTJoeHLDLh-127" style="edgeStyle=orthogonalEdgeStyle;rounded=1;orthogonalLoop=1;jettySize=auto;html=1;entryX=0;entryY=0.25;entryDx=0;entryDy=0;curved=0;endSize=16;endArrow=none;endFill=1;startArrow=diamondThin;startFill=1;startSize=16;" edge="1" parent="1" source="10UE0864SgoTJoeHLDLh-122" target="10UE0864SgoTJoeHLDLh-71">
          <mxGeometry relative="1" as="geometry">
            <Array as="points">
              <mxPoint x="1950" y="903" />
              <mxPoint x="1950" y="1020" />
              <mxPoint x="2050" y="1020" />
            </Array>
          </mxGeometry>
        </mxCell>
        <mxCell id="10UE0864SgoTJoeHLDLh-128" value="&amp;nbsp;- tela_fornecedor&amp;nbsp;&lt;div&gt;&lt;br&gt;&lt;/div&gt;" style="edgeLabel;html=1;align=center;verticalAlign=middle;resizable=0;points=[];" vertex="1" connectable="0" parent="10UE0864SgoTJoeHLDLh-127">
          <mxGeometry x="0.2409" y="-3" relative="1" as="geometry">
            <mxPoint x="9" y="-22" as="offset" />
          </mxGeometry>
        </mxCell>
        <mxCell id="10UE0864SgoTJoeHLDLh-129" value="ControladorPedidos" style="swimlane;fontStyle=0;align=center;verticalAlign=top;childLayout=stackLayout;horizontal=1;startSize=26;horizontalStack=0;resizeParent=1;resizeLast=0;collapsible=1;marginBottom=0;rounded=1;shadow=0;strokeWidth=1;fontSize=15;fillColor=#fff2cc;strokeColor=#d6b656;" vertex="1" parent="1">
          <mxGeometry x="1970" y="755" width="275" height="210" as="geometry">
            <mxRectangle x="30" y="360" width="160" height="26" as="alternateBounds" />
          </mxGeometry>
        </mxCell>
        <mxCell id="10UE0864SgoTJoeHLDLh-130" value="- pedidos : []&#xa;- controlador_sistema: ControladorSistema&#xa;- tela_pedido: TelaPedido" style="text;align=left;verticalAlign=top;spacingLeft=4;spacingRight=4;overflow=hidden;rotatable=0;points=[[0,0.5],[1,0.5]];portConstraint=eastwest;fontStyle=0" vertex="1" parent="10UE0864SgoTJoeHLDLh-129">
          <mxGeometry y="26" width="275" height="54" as="geometry" />
        </mxCell>
        <mxCell id="10UE0864SgoTJoeHLDLh-131" value="" style="line;html=1;strokeWidth=1;align=left;verticalAlign=middle;spacingTop=-1;spacingLeft=3;spacingRight=3;rotatable=0;labelPosition=right;points=[];portConstraint=eastwest;" vertex="1" parent="10UE0864SgoTJoeHLDLh-129">
          <mxGeometry y="80" width="275" height="8" as="geometry" />
        </mxCell>
        <mxCell id="10UE0864SgoTJoeHLDLh-132" value="+ &lt;&lt;create&gt;&gt;__init__(ControladorSistema)&#xa;+ lista_pedido() &#xa;+ pegar_pedido_por_codigo()&#xa;+ incluir_pedido() &#xa;+ excluir_pedido()&#xa;+ retornar() &#xa;+ abrir_tela()&#xa;" style="text;align=left;verticalAlign=top;spacingLeft=4;spacingRight=4;overflow=hidden;rotatable=0;points=[[0,0.5],[1,0.5]];portConstraint=eastwest;fontStyle=0;labelBorderColor=none;" vertex="1" parent="10UE0864SgoTJoeHLDLh-129">
          <mxGeometry y="88" width="275" height="122" as="geometry" />
        </mxCell>
        <mxCell id="10UE0864SgoTJoeHLDLh-133" value="ControladorVendas" style="swimlane;fontStyle=0;align=center;verticalAlign=top;childLayout=stackLayout;horizontal=1;startSize=26;horizontalStack=0;resizeParent=1;resizeLast=0;collapsible=1;marginBottom=0;rounded=1;shadow=0;strokeWidth=1;fontSize=15;fillColor=#fff2cc;strokeColor=#d6b656;" vertex="1" parent="1">
          <mxGeometry x="1750" y="480" width="275" height="210" as="geometry">
            <mxRectangle x="30" y="360" width="160" height="26" as="alternateBounds" />
          </mxGeometry>
        </mxCell>
        <mxCell id="10UE0864SgoTJoeHLDLh-134" style="edgeStyle=orthogonalEdgeStyle;rounded=1;orthogonalLoop=1;jettySize=auto;html=1;curved=0;endArrow=diamondThin;endFill=1;endSize=16;startSize=16;entryX=0.885;entryY=1.017;entryDx=0;entryDy=0;entryPerimeter=0;exitX=0.321;exitY=0;exitDx=0;exitDy=0;exitPerimeter=0;" edge="1" parent="10UE0864SgoTJoeHLDLh-133" source="10UE0864SgoTJoeHLDLh-133">
          <mxGeometry relative="1" as="geometry">
            <mxPoint x="-87.75" y="-99.07600000000002" as="targetPoint" />
            <mxPoint y="42.058823529411825" as="sourcePoint" />
            <Array as="points">
              <mxPoint x="88" y="-20" />
              <mxPoint x="-88" y="-20" />
            </Array>
          </mxGeometry>
        </mxCell>
        <mxCell id="10UE0864SgoTJoeHLDLh-135" value="&amp;nbsp;- controlador_vendas&amp;nbsp;" style="edgeLabel;html=1;align=center;verticalAlign=middle;resizable=0;points=[];" vertex="1" connectable="0" parent="10UE0864SgoTJoeHLDLh-134">
          <mxGeometry x="-0.2767" y="-4" relative="1" as="geometry">
            <mxPoint x="-18" y="1" as="offset" />
          </mxGeometry>
        </mxCell>
        <mxCell id="10UE0864SgoTJoeHLDLh-136" value="- vendas : []&#xa;- controlador_sistema: ControladorSistema&#xa;- tela_venda: TelaVenda" style="text;align=left;verticalAlign=top;spacingLeft=4;spacingRight=4;overflow=hidden;rotatable=0;points=[[0,0.5],[1,0.5]];portConstraint=eastwest;fontStyle=0" vertex="1" parent="10UE0864SgoTJoeHLDLh-133">
          <mxGeometry y="26" width="275" height="54" as="geometry" />
        </mxCell>
        <mxCell id="10UE0864SgoTJoeHLDLh-137" value="" style="line;html=1;strokeWidth=1;align=left;verticalAlign=middle;spacingTop=-1;spacingLeft=3;spacingRight=3;rotatable=0;labelPosition=right;points=[];portConstraint=eastwest;" vertex="1" parent="10UE0864SgoTJoeHLDLh-133">
          <mxGeometry y="80" width="275" height="8" as="geometry" />
        </mxCell>
        <mxCell id="10UE0864SgoTJoeHLDLh-138" value="+ &lt;&lt;create&gt;&gt;__init__(ControladorSistema)&#xa;+ lista_venda()&#xa;+ pegar_venda()&#xa;+ incluir_venda()&#xa;+ excluir_venda() &#xa;+ retornar() &#xa;+ abrir_tela()&#xa;" style="text;align=left;verticalAlign=top;spacingLeft=4;spacingRight=4;overflow=hidden;rotatable=0;points=[[0,0.5],[1,0.5]];portConstraint=eastwest;fontStyle=0;labelBorderColor=none;" vertex="1" parent="10UE0864SgoTJoeHLDLh-133">
          <mxGeometry y="88" width="275" height="122" as="geometry" />
        </mxCell>
        <mxCell id="10UE0864SgoTJoeHLDLh-139" style="edgeStyle=orthogonalEdgeStyle;rounded=1;orthogonalLoop=1;jettySize=auto;html=1;curved=0;endSize=16;endArrow=none;endFill=1;startArrow=diamondThin;startFill=1;startSize=16;exitX=0.799;exitY=0.002;exitDx=0;exitDy=0;exitPerimeter=0;" edge="1" parent="1" source="10UE0864SgoTJoeHLDLh-129">
          <mxGeometry relative="1" as="geometry">
            <mxPoint x="1770.0000000000007" y="675.2" as="sourcePoint" />
            <mxPoint x="2190" y="636" as="targetPoint" />
            <Array as="points">
              <mxPoint x="2190" y="636" />
            </Array>
          </mxGeometry>
        </mxCell>
        <mxCell id="10UE0864SgoTJoeHLDLh-140" value="&amp;nbsp;- tela_pedido&amp;nbsp;" style="edgeLabel;html=1;align=center;verticalAlign=middle;resizable=0;points=[];" vertex="1" connectable="0" parent="10UE0864SgoTJoeHLDLh-139">
          <mxGeometry x="0.1663" y="4" relative="1" as="geometry">
            <mxPoint x="6" y="-3" as="offset" />
          </mxGeometry>
        </mxCell>
        <mxCell id="10UE0864SgoTJoeHLDLh-141" style="edgeStyle=orthogonalEdgeStyle;rounded=1;orthogonalLoop=1;jettySize=auto;html=1;endSize=16;startSize=16;endArrow=diamondThin;endFill=1;curved=0;exitX=0.5;exitY=0;exitDx=0;exitDy=0;" edge="1" parent="1" source="10UE0864SgoTJoeHLDLh-129" target="10UE0864SgoTJoeHLDLh-62">
          <mxGeometry relative="1" as="geometry">
            <mxPoint x="1990" y="670" as="sourcePoint" />
            <mxPoint x="1687.85" y="371.2779999999999" as="targetPoint" />
            <Array as="points">
              <mxPoint x="2108" y="650" />
              <mxPoint x="2030" y="650" />
              <mxPoint x="2030" y="440" />
              <mxPoint x="1688" y="440" />
            </Array>
          </mxGeometry>
        </mxCell>
        <mxCell id="10UE0864SgoTJoeHLDLh-142" value="&amp;nbsp;- controlador_pedidos&amp;nbsp;" style="edgeLabel;html=1;align=center;verticalAlign=middle;resizable=0;points=[];" vertex="1" connectable="0" parent="10UE0864SgoTJoeHLDLh-141">
          <mxGeometry x="0.6601" y="1" relative="1" as="geometry">
            <mxPoint x="29" y="-1" as="offset" />
          </mxGeometry>
        </mxCell>
        <mxCell id="10UE0864SgoTJoeHLDLh-143" value="1" style="text;html=1;align=center;verticalAlign=middle;resizable=0;points=[];autosize=1;strokeColor=none;fillColor=none;" vertex="1" parent="1">
          <mxGeometry x="365" y="608" width="30" height="30" as="geometry" />
        </mxCell>
        <mxCell id="10UE0864SgoTJoeHLDLh-144" value="1" style="text;html=1;align=center;verticalAlign=middle;resizable=0;points=[];autosize=1;strokeColor=none;fillColor=none;" vertex="1" parent="1">
          <mxGeometry x="441" y="748" width="30" height="30" as="geometry" />
        </mxCell>
        <mxCell id="10UE0864SgoTJoeHLDLh-145" value="1" style="text;html=1;align=center;verticalAlign=middle;resizable=0;points=[];autosize=1;strokeColor=none;fillColor=none;" vertex="1" parent="1">
          <mxGeometry x="249" y="900" width="30" height="30" as="geometry" />
        </mxCell>
        <mxCell id="10UE0864SgoTJoeHLDLh-146" value="1" style="text;html=1;align=center;verticalAlign=middle;resizable=0;points=[];autosize=1;strokeColor=none;fillColor=none;" vertex="1" parent="1">
          <mxGeometry x="665" y="845" width="30" height="30" as="geometry" />
        </mxCell>
        <mxCell id="10UE0864SgoTJoeHLDLh-147" value="1" style="text;html=1;align=center;verticalAlign=middle;resizable=0;points=[];autosize=1;strokeColor=none;fillColor=none;" vertex="1" parent="1">
          <mxGeometry x="1910" y="910" width="30" height="30" as="geometry" />
        </mxCell>
        <mxCell id="10UE0864SgoTJoeHLDLh-148" value="1" style="text;html=1;align=center;verticalAlign=middle;resizable=0;points=[];autosize=1;strokeColor=none;fillColor=none;" vertex="1" parent="1">
          <mxGeometry x="2015" y="1020" width="30" height="30" as="geometry" />
        </mxCell>
        <mxCell id="10UE0864SgoTJoeHLDLh-149" value="1" style="text;html=1;align=center;verticalAlign=middle;resizable=0;points=[];autosize=1;strokeColor=none;fillColor=none;" vertex="1" parent="1">
          <mxGeometry x="2163" y="718" width="30" height="30" as="geometry" />
        </mxCell>
        <mxCell id="10UE0864SgoTJoeHLDLh-150" value="1" style="text;html=1;align=center;verticalAlign=middle;resizable=0;points=[];autosize=1;strokeColor=none;fillColor=none;" vertex="1" parent="1">
          <mxGeometry x="2160" y="638" width="30" height="30" as="geometry" />
        </mxCell>
        <mxCell id="10UE0864SgoTJoeHLDLh-151" value="1" style="text;html=1;align=center;verticalAlign=middle;resizable=0;points=[];autosize=1;strokeColor=none;fillColor=none;" vertex="1" parent="1">
          <mxGeometry x="1921" y="695" width="30" height="30" as="geometry" />
        </mxCell>
        <mxCell id="10UE0864SgoTJoeHLDLh-152" value="1" style="text;html=1;align=center;verticalAlign=middle;resizable=0;points=[];autosize=1;strokeColor=none;fillColor=none;" vertex="1" parent="1">
          <mxGeometry x="1670" y="755" width="30" height="30" as="geometry" />
        </mxCell>
        <mxCell id="10UE0864SgoTJoeHLDLh-153" style="edgeStyle=orthogonalEdgeStyle;rounded=1;orthogonalLoop=1;jettySize=auto;html=1;entryX=0.924;entryY=-0.009;entryDx=0;entryDy=0;entryPerimeter=0;endSize=13;startSize=13;endArrow=open;endFill=0;curved=0;" edge="1" parent="1" source="10UE0864SgoTJoeHLDLh-130" target="10UE0864SgoTJoeHLDLh-91">
          <mxGeometry relative="1" as="geometry" />
        </mxCell>
        <mxCell id="10UE0864SgoTJoeHLDLh-154" value="&amp;nbsp;- pedidos&amp;nbsp;" style="edgeLabel;html=1;align=center;verticalAlign=middle;resizable=0;points=[];" vertex="1" connectable="0" parent="10UE0864SgoTJoeHLDLh-153">
          <mxGeometry x="-0.5163" y="-1" relative="1" as="geometry">
            <mxPoint x="-1" as="offset" />
          </mxGeometry>
        </mxCell>
        <mxCell id="10UE0864SgoTJoeHLDLh-155" value="" style="edgeStyle=orthogonalEdgeStyle;rounded=1;orthogonalLoop=1;jettySize=auto;html=1;endArrow=none;endFill=0;endSize=13;exitX=0;exitY=0.923;exitDx=0;exitDy=0;exitPerimeter=0;curved=0;entryX=1.02;entryY=0.226;entryDx=0;entryDy=0;entryPerimeter=0;startArrow=open;startFill=0;startSize=13;" edge="1" parent="1">
          <mxGeometry relative="1" as="geometry">
            <mxPoint x="890.0000000000002" y="621.998" as="sourcePoint" />
            <mxPoint x="344.69999999999993" y="587.464" as="targetPoint" />
            <Array as="points">
              <mxPoint x="820" y="622" />
              <mxPoint x="820" y="670" />
              <mxPoint x="450" y="670" />
              <mxPoint x="450" y="588" />
            </Array>
          </mxGeometry>
        </mxCell>
        <mxCell id="10UE0864SgoTJoeHLDLh-156" value="&amp;nbsp;- clientes&amp;nbsp;" style="edgeLabel;html=1;align=center;verticalAlign=middle;resizable=0;points=[];" vertex="1" connectable="0" parent="10UE0864SgoTJoeHLDLh-155">
          <mxGeometry x="0.3376" y="3" relative="1" as="geometry">
            <mxPoint x="291" y="-3" as="offset" />
          </mxGeometry>
        </mxCell>
        <mxCell id="10UE0864SgoTJoeHLDLh-157" value="0 .. *" style="text;html=1;align=center;verticalAlign=middle;resizable=0;points=[];autosize=1;strokeColor=none;fillColor=none;" vertex="1" parent="1">
          <mxGeometry x="843" y="622" width="50" height="30" as="geometry" />
        </mxCell>
        <mxCell id="10UE0864SgoTJoeHLDLh-158" value="1" style="text;html=1;align=center;verticalAlign=middle;resizable=0;points=[];autosize=1;strokeColor=none;fillColor=none;" vertex="1" parent="1">
          <mxGeometry x="355" y="560" width="30" height="30" as="geometry" />
        </mxCell>
        <mxCell id="10UE0864SgoTJoeHLDLh-159" value="1&lt;div&gt;&lt;br&gt;&lt;/div&gt;" style="text;html=1;align=center;verticalAlign=middle;resizable=0;points=[];autosize=1;strokeColor=none;fillColor=none;" vertex="1" parent="1">
          <mxGeometry x="354" y="520" width="30" height="40" as="geometry" />
        </mxCell>
        <mxCell id="10UE0864SgoTJoeHLDLh-160" value="0..*" style="text;html=1;align=center;verticalAlign=middle;resizable=0;points=[];autosize=1;strokeColor=none;fillColor=none;" vertex="1" parent="1">
          <mxGeometry x="820" y="408" width="40" height="30" as="geometry" />
        </mxCell>
        <mxCell id="10UE0864SgoTJoeHLDLh-161" value="1" style="text;html=1;align=center;verticalAlign=middle;resizable=0;points=[];autosize=1;strokeColor=none;fillColor=none;" vertex="1" parent="1">
          <mxGeometry x="1765" y="388" width="30" height="30" as="geometry" />
        </mxCell>
        <mxCell id="10UE0864SgoTJoeHLDLh-162" value="1" style="text;html=1;align=center;verticalAlign=middle;resizable=0;points=[];autosize=1;strokeColor=none;fillColor=none;" vertex="1" parent="1">
          <mxGeometry x="1696" y="398" width="30" height="30" as="geometry" />
        </mxCell>
        <mxCell id="10UE0864SgoTJoeHLDLh-163" value="1" style="text;html=1;align=center;verticalAlign=middle;resizable=0;points=[];autosize=1;strokeColor=none;fillColor=none;" vertex="1" parent="1">
          <mxGeometry x="1632" y="399" width="30" height="30" as="geometry" />
        </mxCell>
        <mxCell id="10UE0864SgoTJoeHLDLh-164" value="1" style="text;html=1;align=center;verticalAlign=middle;resizable=0;points=[];autosize=1;strokeColor=none;fillColor=none;" vertex="1" parent="1">
          <mxGeometry x="2070" y="725" width="30" height="30" as="geometry" />
        </mxCell>
        <mxCell id="10UE0864SgoTJoeHLDLh-165" value="1" style="text;html=1;align=center;verticalAlign=middle;resizable=0;points=[];autosize=1;strokeColor=none;fillColor=none;" vertex="1" parent="1">
          <mxGeometry x="1872.5" y="1100" width="30" height="30" as="geometry" />
        </mxCell>
        <mxCell id="10UE0864SgoTJoeHLDLh-166" value="1" style="text;html=1;align=center;verticalAlign=middle;resizable=0;points=[];autosize=1;strokeColor=none;fillColor=none;" vertex="1" parent="1">
          <mxGeometry x="190" y="388" width="30" height="30" as="geometry" />
        </mxCell>
        <mxCell id="10UE0864SgoTJoeHLDLh-167" value="1" style="text;html=1;align=center;verticalAlign=middle;resizable=0;points=[];autosize=1;strokeColor=none;fillColor=none;" vertex="1" parent="1">
          <mxGeometry x="249" y="394" width="30" height="30" as="geometry" />
        </mxCell>
        <mxCell id="10UE0864SgoTJoeHLDLh-168" value="1" style="text;html=1;align=center;verticalAlign=middle;resizable=0;points=[];autosize=1;strokeColor=none;fillColor=none;" vertex="1" parent="1">
          <mxGeometry x="249" y="424" width="30" height="30" as="geometry" />
        </mxCell>
        <mxCell id="10UE0864SgoTJoeHLDLh-169" value="1" style="text;html=1;align=center;verticalAlign=middle;resizable=0;points=[];autosize=1;strokeColor=none;fillColor=none;" vertex="1" parent="1">
          <mxGeometry x="80" y="980" width="30" height="30" as="geometry" />
        </mxCell>
        <mxCell id="10UE0864SgoTJoeHLDLh-170" value="0 .. *" style="text;html=1;align=center;verticalAlign=middle;resizable=0;points=[];autosize=1;strokeColor=none;fillColor=none;" vertex="1" parent="1">
          <mxGeometry x="655" y="1050" width="50" height="30" as="geometry" />
        </mxCell>
        <mxCell id="10UE0864SgoTJoeHLDLh-171" value="1" style="text;html=1;align=center;verticalAlign=middle;resizable=0;points=[];autosize=1;strokeColor=none;fillColor=none;" vertex="1" parent="1">
          <mxGeometry x="427" y="962" width="30" height="30" as="geometry" />
        </mxCell>
        <mxCell id="10UE0864SgoTJoeHLDLh-172" value="1" style="text;html=1;align=center;verticalAlign=middle;resizable=0;points=[];autosize=1;strokeColor=none;fillColor=none;" vertex="1" parent="1">
          <mxGeometry x="1921" y="770" width="30" height="30" as="geometry" />
        </mxCell>
        <mxCell id="10UE0864SgoTJoeHLDLh-173" value="0 .. *" style="text;html=1;align=center;verticalAlign=middle;resizable=0;points=[];autosize=1;strokeColor=none;fillColor=none;" vertex="1" parent="1">
          <mxGeometry x="1540.5" y="880" width="50" height="30" as="geometry" />
        </mxCell>
        <mxCell id="10UE0864SgoTJoeHLDLh-174" style="edgeStyle=orthogonalEdgeStyle;rounded=1;orthogonalLoop=1;jettySize=auto;html=1;exitX=0.795;exitY=0.993;exitDx=0;exitDy=0;exitPerimeter=0;entryX=0.517;entryY=0.99;entryDx=0;entryDy=0;entryPerimeter=0;startArrow=open;startFill=0;endArrow=none;endSize=13;targetPerimeterSpacing=0;startSize=13;curved=0;" edge="1" parent="1" source="10UE0864SgoTJoeHLDLh-21" target="10UE0864SgoTJoeHLDLh-138">
          <mxGeometry relative="1" as="geometry">
            <mxPoint x="1892" y="694" as="targetPoint" />
            <Array as="points">
              <mxPoint x="1663" y="710" />
              <mxPoint x="1892" y="710" />
            </Array>
          </mxGeometry>
        </mxCell>
        <mxCell id="10UE0864SgoTJoeHLDLh-175" value="&amp;nbsp;- vendas&amp;nbsp;" style="edgeLabel;html=1;align=center;verticalAlign=middle;resizable=0;points=[];" vertex="1" connectable="0" parent="10UE0864SgoTJoeHLDLh-174">
          <mxGeometry x="-0.2993" y="1" relative="1" as="geometry">
            <mxPoint as="offset" />
          </mxGeometry>
        </mxCell>
        <mxCell id="10UE0864SgoTJoeHLDLh-176" value="0..*" style="text;html=1;align=center;verticalAlign=middle;resizable=0;points=[];autosize=1;strokeColor=none;fillColor=none;" vertex="1" parent="1">
          <mxGeometry x="1670" y="638" width="40" height="30" as="geometry" />
        </mxCell>
        <mxCell id="10UE0864SgoTJoeHLDLh-177" value="1" style="text;html=1;align=center;verticalAlign=middle;resizable=0;points=[];autosize=1;strokeColor=none;fillColor=none;" vertex="1" parent="1">
          <mxGeometry x="1852" y="682" width="30" height="30" as="geometry" />
        </mxCell>
        <mxCell id="10UE0864SgoTJoeHLDLh-178" value="1" style="text;html=1;align=center;verticalAlign=middle;resizable=0;points=[];autosize=1;strokeColor=none;fillColor=none;" vertex="1" parent="1">
          <mxGeometry x="1735" y="1100" width="30" height="30" as="geometry" />
        </mxCell>
        <mxCell id="10UE0864SgoTJoeHLDLh-179" value="0..*" style="text;html=1;align=center;verticalAlign=middle;resizable=0;points=[];autosize=1;strokeColor=none;fillColor=none;" vertex="1" parent="1">
          <mxGeometry x="1781" y="1217" width="40" height="30" as="geometry" />
        </mxCell>
      </root>
    </mxGraphModel>
  </diagram>
  <diagram name="Cópia do Página-1" id="DR0UNM9XozWePTB3K1Nn">
    <mxGraphModel dx="3169" dy="1744" grid="1" gridSize="10" guides="1" tooltips="1" connect="1" arrows="1" fold="1" page="1" pageScale="1" pageWidth="827" pageHeight="1169" math="0" shadow="0">
      <root>
        <mxCell id="RvCncOSn8bAutDe4F0GP-0" />
        <mxCell id="RvCncOSn8bAutDe4F0GP-1" parent="RvCncOSn8bAutDe4F0GP-0" />
        <mxCell id="RvCncOSn8bAutDe4F0GP-2" value="Pessoa&#xa;{abstract}" style="swimlane;fontStyle=2;align=center;verticalAlign=top;childLayout=stackLayout;horizontal=1;startSize=40;horizontalStack=0;resizeParent=1;resizeLast=0;collapsible=1;marginBottom=0;rounded=1;shadow=0;strokeWidth=1;fontSize=14;spacing=1;" vertex="1" parent="RvCncOSn8bAutDe4F0GP-1">
          <mxGeometry x="470" y="416" width="240" height="180" as="geometry">
            <mxRectangle x="230" y="140" width="160" height="26" as="alternateBounds" />
          </mxGeometry>
        </mxCell>
        <mxCell id="RvCncOSn8bAutDe4F0GP-3" value="- nome: str" style="text;align=left;verticalAlign=top;spacingLeft=4;spacingRight=4;overflow=hidden;rotatable=0;points=[[0,0.5],[1,0.5]];portConstraint=eastwest;" vertex="1" parent="RvCncOSn8bAutDe4F0GP-2">
          <mxGeometry y="40" width="240" height="20" as="geometry" />
        </mxCell>
        <mxCell id="RvCncOSn8bAutDe4F0GP-4" value="- celular: int " style="text;align=left;verticalAlign=top;spacingLeft=4;spacingRight=4;overflow=hidden;rotatable=0;points=[[0,0.5],[1,0.5]];portConstraint=eastwest;rounded=0;shadow=0;html=0;" vertex="1" parent="RvCncOSn8bAutDe4F0GP-2">
          <mxGeometry y="60" width="240" height="20" as="geometry" />
        </mxCell>
        <mxCell id="RvCncOSn8bAutDe4F0GP-5" value="" style="line;html=1;strokeWidth=1;align=left;verticalAlign=middle;spacingTop=-1;spacingLeft=3;spacingRight=3;rotatable=0;labelPosition=right;points=[];portConstraint=eastwest;" vertex="1" parent="RvCncOSn8bAutDe4F0GP-2">
          <mxGeometry y="80" width="240" height="10" as="geometry" />
        </mxCell>
        <mxCell id="RvCncOSn8bAutDe4F0GP-6" value="+ &lt;&lt;create&gt;&gt;__init__(nome: int, celular:int)&#xa;+ nome(str)&#xa;+ nome(): str&#xa;+ celular(int)&#xa;+ celular(): int" style="text;align=left;verticalAlign=top;spacingLeft=4;spacingRight=4;overflow=hidden;rotatable=0;points=[[0,0.5],[1,0.5]];portConstraint=eastwest;" vertex="1" parent="RvCncOSn8bAutDe4F0GP-2">
          <mxGeometry y="90" width="240" height="80" as="geometry" />
        </mxCell>
        <mxCell id="RvCncOSn8bAutDe4F0GP-7" value="Cliente" style="swimlane;fontStyle=0;align=center;verticalAlign=top;childLayout=stackLayout;horizontal=1;startSize=26;horizontalStack=0;resizeParent=1;resizeLast=0;collapsible=1;marginBottom=0;rounded=1;shadow=0;strokeWidth=1;fontSize=15;" vertex="1" parent="RvCncOSn8bAutDe4F0GP-1">
          <mxGeometry x="850" y="496" width="250" height="90" as="geometry">
            <mxRectangle x="30" y="360" width="160" height="26" as="alternateBounds" />
          </mxGeometry>
        </mxCell>
        <mxCell id="RvCncOSn8bAutDe4F0GP-8" value="- compras: [ ]" style="text;align=left;verticalAlign=top;spacingLeft=4;spacingRight=4;overflow=hidden;rotatable=0;points=[[0,0.5],[1,0.5]];portConstraint=eastwest;" vertex="1" parent="RvCncOSn8bAutDe4F0GP-7">
          <mxGeometry y="26" width="250" height="26" as="geometry" />
        </mxCell>
        <mxCell id="RvCncOSn8bAutDe4F0GP-9" value="" style="line;html=1;strokeWidth=1;align=left;verticalAlign=middle;spacingTop=-1;spacingLeft=3;spacingRight=3;rotatable=0;labelPosition=right;points=[];portConstraint=eastwest;" vertex="1" parent="RvCncOSn8bAutDe4F0GP-7">
          <mxGeometry y="52" width="250" height="8" as="geometry" />
        </mxCell>
        <mxCell id="RvCncOSn8bAutDe4F0GP-10" value="+ &lt;&lt;create&gt;&gt;__init__(nome: str, celular: int)&#xa;" style="text;align=left;verticalAlign=top;spacingLeft=4;spacingRight=4;overflow=hidden;rotatable=0;points=[[0,0.5],[1,0.5]];portConstraint=eastwest;fontStyle=0" vertex="1" parent="RvCncOSn8bAutDe4F0GP-7">
          <mxGeometry y="60" width="250" height="26" as="geometry" />
        </mxCell>
        <mxCell id="RvCncOSn8bAutDe4F0GP-11" value="Vendedor" style="swimlane;fontStyle=0;align=center;verticalAlign=top;childLayout=stackLayout;horizontal=1;startSize=26;horizontalStack=0;resizeParent=1;resizeLast=0;collapsible=1;marginBottom=0;rounded=1;shadow=0;strokeWidth=1;fontSize=15;" vertex="1" parent="RvCncOSn8bAutDe4F0GP-1">
          <mxGeometry x="840" y="370" width="380" height="111" as="geometry">
            <mxRectangle x="340" y="380" width="170" height="26" as="alternateBounds" />
          </mxGeometry>
        </mxCell>
        <mxCell id="RvCncOSn8bAutDe4F0GP-12" value="- calor_vendido_total: int" style="text;align=left;verticalAlign=top;spacingLeft=4;spacingRight=4;overflow=hidden;rotatable=0;points=[[0,0.5],[1,0.5]];portConstraint=eastwest;" vertex="1" parent="RvCncOSn8bAutDe4F0GP-11">
          <mxGeometry y="26" width="380" height="26" as="geometry" />
        </mxCell>
        <mxCell id="RvCncOSn8bAutDe4F0GP-13" value="" style="line;html=1;strokeWidth=1;align=left;verticalAlign=middle;spacingTop=-1;spacingLeft=3;spacingRight=3;rotatable=0;labelPosition=right;points=[];portConstraint=eastwest;" vertex="1" parent="RvCncOSn8bAutDe4F0GP-11">
          <mxGeometry y="52" width="380" height="8" as="geometry" />
        </mxCell>
        <mxCell id="RvCncOSn8bAutDe4F0GP-14" value="+ &lt;&lt;create&gt;&gt;__init__(nome: str, celular: int, valor_vendido_total: int))&#xa;+ valor_vendido_total() : str&#xa;+ valor_vendido_total(str)" style="text;align=left;verticalAlign=top;spacingLeft=4;spacingRight=4;overflow=hidden;rotatable=0;points=[[0,0.5],[1,0.5]];portConstraint=eastwest;fontStyle=0" vertex="1" parent="RvCncOSn8bAutDe4F0GP-11">
          <mxGeometry y="60" width="380" height="50" as="geometry" />
        </mxCell>
        <mxCell id="RvCncOSn8bAutDe4F0GP-15" style="edgeStyle=orthogonalEdgeStyle;rounded=1;orthogonalLoop=1;jettySize=auto;html=1;entryX=0.994;entryY=0.333;entryDx=0;entryDy=0;entryPerimeter=0;curved=0;endArrow=block;endFill=0;strokeWidth=1;endSize=13;exitX=0;exitY=0.5;exitDx=0;exitDy=0;" edge="1" parent="RvCncOSn8bAutDe4F0GP-1" source="RvCncOSn8bAutDe4F0GP-10" target="RvCncOSn8bAutDe4F0GP-6">
          <mxGeometry relative="1" as="geometry">
            <mxPoint x="1260" y="1399" as="sourcePoint" />
            <mxPoint x="1162.84" y="1238.38" as="targetPoint" />
            <Array as="points">
              <mxPoint x="850" y="570" />
              <mxPoint x="770" y="570" />
              <mxPoint x="770" y="533" />
            </Array>
          </mxGeometry>
        </mxCell>
        <mxCell id="RvCncOSn8bAutDe4F0GP-16" style="edgeStyle=orthogonalEdgeStyle;rounded=1;orthogonalLoop=1;jettySize=auto;html=1;entryX=0.994;entryY=0.333;entryDx=0;entryDy=0;entryPerimeter=0;curved=0;endSize=13;endArrow=block;endFill=0;exitX=0;exitY=0.5;exitDx=0;exitDy=0;" edge="1" parent="RvCncOSn8bAutDe4F0GP-1" source="RvCncOSn8bAutDe4F0GP-12" target="RvCncOSn8bAutDe4F0GP-6">
          <mxGeometry relative="1" as="geometry">
            <Array as="points">
              <mxPoint x="770" y="409" />
              <mxPoint x="770" y="533" />
            </Array>
          </mxGeometry>
        </mxCell>
        <mxCell id="RvCncOSn8bAutDe4F0GP-17" value="Venda" style="swimlane;fontStyle=0;align=center;verticalAlign=top;childLayout=stackLayout;horizontal=1;startSize=26;horizontalStack=0;resizeParent=1;resizeLast=0;collapsible=1;marginBottom=0;rounded=1;shadow=0;strokeWidth=1;fontSize=15;fillColor=default;" vertex="1" parent="RvCncOSn8bAutDe4F0GP-1">
          <mxGeometry x="1360" y="430" width="331" height="160" as="geometry">
            <mxRectangle x="30" y="360" width="160" height="26" as="alternateBounds" />
          </mxGeometry>
        </mxCell>
        <mxCell id="RvCncOSn8bAutDe4F0GP-18" value="- cliente: Cliente" style="text;align=left;verticalAlign=top;spacingLeft=4;spacingRight=4;overflow=hidden;rotatable=0;points=[[0,0.5],[1,0.5]];portConstraint=eastwest;" vertex="1" parent="RvCncOSn8bAutDe4F0GP-17">
          <mxGeometry y="26" width="331" height="20" as="geometry" />
        </mxCell>
        <mxCell id="RvCncOSn8bAutDe4F0GP-19" value="- Vendedor: Vendedor" style="text;align=left;verticalAlign=top;spacingLeft=4;spacingRight=4;overflow=hidden;rotatable=0;points=[[0,0.5],[1,0.5]];portConstraint=eastwest;" vertex="1" parent="RvCncOSn8bAutDe4F0GP-17">
          <mxGeometry y="46" width="331" height="20" as="geometry" />
        </mxCell>
        <mxCell id="RvCncOSn8bAutDe4F0GP-20" value="" style="line;html=1;strokeWidth=1;align=left;verticalAlign=middle;spacingTop=-1;spacingLeft=3;spacingRight=3;rotatable=0;labelPosition=right;points=[];portConstraint=eastwest;" vertex="1" parent="RvCncOSn8bAutDe4F0GP-17">
          <mxGeometry y="66" width="331" height="8" as="geometry" />
        </mxCell>
        <mxCell id="RvCncOSn8bAutDe4F0GP-21" value="+ &lt;&lt;create&gt;&gt;__init__(cliente : Cliente, vendedor: Vendedor)&#xa;+ cliente(cliente: Cliente)&#xa;+ cliente(): Cliente&#xa;+ vendedor(vendedor: Vendedor)&#xa;+ vendedor(): Vendedor" style="text;align=left;verticalAlign=top;spacingLeft=4;spacingRight=4;overflow=hidden;rotatable=0;points=[[0,0.5],[1,0.5]];portConstraint=eastwest;fontStyle=0" vertex="1" parent="RvCncOSn8bAutDe4F0GP-17">
          <mxGeometry y="74" width="331" height="86" as="geometry" />
        </mxCell>
        <mxCell id="RvCncOSn8bAutDe4F0GP-22" value="Transacao" style="swimlane;fontStyle=0;align=center;verticalAlign=top;childLayout=stackLayout;horizontal=1;startSize=26;horizontalStack=0;resizeParent=1;resizeLast=0;collapsible=1;marginBottom=0;rounded=1;shadow=0;strokeWidth=1;fontSize=15;" vertex="1" parent="RvCncOSn8bAutDe4F0GP-1">
          <mxGeometry x="890" y="595" width="462" height="285" as="geometry">
            <mxRectangle x="30" y="360" width="160" height="26" as="alternateBounds" />
          </mxGeometry>
        </mxCell>
        <mxCell id="RvCncOSn8bAutDe4F0GP-23" value="- produto: Produto" style="text;align=left;verticalAlign=top;spacingLeft=4;spacingRight=4;overflow=hidden;rotatable=0;points=[[0,0.5],[1,0.5]];portConstraint=eastwest;" vertex="1" parent="RvCncOSn8bAutDe4F0GP-22">
          <mxGeometry y="26" width="462" height="20" as="geometry" />
        </mxCell>
        <mxCell id="RvCncOSn8bAutDe4F0GP-24" value="- quantidade: int" style="text;align=left;verticalAlign=top;spacingLeft=4;spacingRight=4;overflow=hidden;rotatable=0;points=[[0,0.5],[1,0.5]];portConstraint=eastwest;" vertex="1" parent="RvCncOSn8bAutDe4F0GP-22">
          <mxGeometry y="46" width="462" height="20" as="geometry" />
        </mxCell>
        <mxCell id="RvCncOSn8bAutDe4F0GP-25" value="- data: Datetime" style="text;align=left;verticalAlign=top;spacingLeft=4;spacingRight=4;overflow=hidden;rotatable=0;points=[[0,0.5],[1,0.5]];portConstraint=eastwest;" vertex="1" parent="RvCncOSn8bAutDe4F0GP-22">
          <mxGeometry y="66" width="462" height="20" as="geometry" />
        </mxCell>
        <mxCell id="RvCncOSn8bAutDe4F0GP-26" value="- valor: float" style="text;align=left;verticalAlign=top;spacingLeft=4;spacingRight=4;overflow=hidden;rotatable=0;points=[[0,0.5],[1,0.5]];portConstraint=eastwest;" vertex="1" parent="RvCncOSn8bAutDe4F0GP-22">
          <mxGeometry y="86" width="462" height="20" as="geometry" />
        </mxCell>
        <mxCell id="RvCncOSn8bAutDe4F0GP-27" value="- codigo_transacao: int" style="text;align=left;verticalAlign=top;spacingLeft=4;spacingRight=4;overflow=hidden;rotatable=0;points=[[0,0.5],[1,0.5]];portConstraint=eastwest;" vertex="1" parent="RvCncOSn8bAutDe4F0GP-22">
          <mxGeometry y="106" width="462" height="20" as="geometry" />
        </mxCell>
        <mxCell id="RvCncOSn8bAutDe4F0GP-28" value="" style="line;html=1;strokeWidth=1;align=left;verticalAlign=middle;spacingTop=-1;spacingLeft=3;spacingRight=3;rotatable=0;labelPosition=right;points=[];portConstraint=eastwest;" vertex="1" parent="RvCncOSn8bAutDe4F0GP-22">
          <mxGeometry y="126" width="462" height="8" as="geometry" />
        </mxCell>
        <mxCell id="RvCncOSn8bAutDe4F0GP-29" value="+ &lt;&lt;create&gt;&gt;__init__(quantidade: int, produto: Produto, data: Datetime, valor: float)&#xa;+ quantidade(int)&#xa;+ quantidade(): int&#xa;+ produto(produto: Produto)&#xa;+ data(): Datetime&#xa;+ data(datetime)&#xa;+ valor(float)&#xa;+ valor(): float&#xa;+ codigo_transacao(int)&#xa;+ codigo_transacao(): int" style="text;align=left;verticalAlign=top;spacingLeft=4;spacingRight=4;overflow=hidden;rotatable=0;points=[[0,0.5],[1,0.5]];portConstraint=eastwest;fontStyle=0" vertex="1" parent="RvCncOSn8bAutDe4F0GP-22">
          <mxGeometry y="134" width="462" height="146" as="geometry" />
        </mxCell>
        <mxCell id="RvCncOSn8bAutDe4F0GP-30" style="rounded=1;orthogonalLoop=1;jettySize=auto;html=1;exitX=0.15;exitY=1.008;exitDx=0;exitDy=0;endArrow=block;endFill=0;endSize=13;exitPerimeter=0;entryX=0.998;entryY=0.743;entryDx=0;entryDy=0;entryPerimeter=0;" edge="1" parent="RvCncOSn8bAutDe4F0GP-1" source="RvCncOSn8bAutDe4F0GP-21" target="RvCncOSn8bAutDe4F0GP-25">
          <mxGeometry relative="1" as="geometry">
            <mxPoint x="1469.338" y="1450.28" as="sourcePoint" />
            <mxPoint x="1360" y="680" as="targetPoint" />
            <Array as="points">
              <mxPoint x="1410" y="677" />
            </Array>
          </mxGeometry>
        </mxCell>
        <mxCell id="RvCncOSn8bAutDe4F0GP-31" value="Produto" style="swimlane;fontStyle=0;align=center;verticalAlign=top;childLayout=stackLayout;horizontal=1;startSize=26;horizontalStack=0;resizeParent=1;resizeLast=0;collapsible=1;marginBottom=0;rounded=1;shadow=0;strokeWidth=1;fontSize=15;" vertex="1" parent="RvCncOSn8bAutDe4F0GP-1">
          <mxGeometry x="560" y="1050" width="471" height="300" as="geometry">
            <mxRectangle x="30" y="360" width="160" height="26" as="alternateBounds" />
          </mxGeometry>
        </mxCell>
        <mxCell id="RvCncOSn8bAutDe4F0GP-32" value="- nome: str" style="text;align=left;verticalAlign=top;spacingLeft=4;spacingRight=4;overflow=hidden;rotatable=0;points=[[0,0.5],[1,0.5]];portConstraint=eastwest;" vertex="1" parent="RvCncOSn8bAutDe4F0GP-31">
          <mxGeometry y="26" width="471" height="20" as="geometry" />
        </mxCell>
        <mxCell id="RvCncOSn8bAutDe4F0GP-33" value="- descricao: str" style="text;align=left;verticalAlign=top;spacingLeft=4;spacingRight=4;overflow=hidden;rotatable=0;points=[[0,0.5],[1,0.5]];portConstraint=eastwest;" vertex="1" parent="RvCncOSn8bAutDe4F0GP-31">
          <mxGeometry y="46" width="471" height="20" as="geometry" />
        </mxCell>
        <mxCell id="RvCncOSn8bAutDe4F0GP-34" value="- preco_venda: float" style="text;align=left;verticalAlign=top;spacingLeft=4;spacingRight=4;overflow=hidden;rotatable=0;points=[[0,0.5],[1,0.5]];portConstraint=eastwest;" vertex="1" parent="RvCncOSn8bAutDe4F0GP-31">
          <mxGeometry y="66" width="471" height="20" as="geometry" />
        </mxCell>
        <mxCell id="RvCncOSn8bAutDe4F0GP-35" value="- quant_estoque: int" style="text;align=left;verticalAlign=top;spacingLeft=4;spacingRight=4;overflow=hidden;rotatable=0;points=[[0,0.5],[1,0.5]];portConstraint=eastwest;" vertex="1" parent="RvCncOSn8bAutDe4F0GP-31">
          <mxGeometry y="86" width="471" height="20" as="geometry" />
        </mxCell>
        <mxCell id="RvCncOSn8bAutDe4F0GP-36" value="- codigo_produto: int" style="text;align=left;verticalAlign=top;spacingLeft=4;spacingRight=4;overflow=hidden;rotatable=0;points=[[0,0.5],[1,0.5]];portConstraint=eastwest;" vertex="1" parent="RvCncOSn8bAutDe4F0GP-31">
          <mxGeometry y="106" width="471" height="20" as="geometry" />
        </mxCell>
        <mxCell id="RvCncOSn8bAutDe4F0GP-37" value="" style="line;html=1;strokeWidth=1;align=left;verticalAlign=middle;spacingTop=-1;spacingLeft=3;spacingRight=3;rotatable=0;labelPosition=right;points=[];portConstraint=eastwest;" vertex="1" parent="RvCncOSn8bAutDe4F0GP-31">
          <mxGeometry y="126" width="471" height="8" as="geometry" />
        </mxCell>
        <mxCell id="RvCncOSn8bAutDe4F0GP-38" value="+ &lt;&lt;create&gt;&gt;__init__(nome: str, descricao: str, preco_venda: float, quant_estoque: int)&#xa;+ nome(str)&#xa;+ nome(): str&#xa;+ descricao(str)&#xa;+ descricao(): str&#xa;+ preco_venda(float)&#xa;+ preco_venda(): float&#xa;+ quant_estoque(int)&#xa;+ quant_estoque(): int&#xa;+ codigo_produto(int)&#xa;+ codigo_produto(): int" style="text;align=left;verticalAlign=top;spacingLeft=4;spacingRight=4;overflow=hidden;rotatable=0;points=[[0,0.5],[1,0.5]];portConstraint=eastwest;fontStyle=0" vertex="1" parent="RvCncOSn8bAutDe4F0GP-31">
          <mxGeometry y="134" width="471" height="166" as="geometry" />
        </mxCell>
        <mxCell id="RvCncOSn8bAutDe4F0GP-39" value="1" style="edgeLabel;html=1;align=center;verticalAlign=middle;resizable=0;points=[];fontSize=12;" vertex="1" connectable="0" parent="RvCncOSn8bAutDe4F0GP-1">
          <mxGeometry x="1220.002775975774" y="1100.0020989207146" as="geometry">
            <mxPoint x="-149" y="26" as="offset" />
          </mxGeometry>
        </mxCell>
        <mxCell id="RvCncOSn8bAutDe4F0GP-40" value="ControladorProdutos" style="swimlane;fontStyle=0;align=center;verticalAlign=top;childLayout=stackLayout;horizontal=1;startSize=26;horizontalStack=0;resizeParent=1;resizeLast=0;collapsible=1;marginBottom=0;rounded=1;shadow=0;strokeWidth=1;fontSize=15;fillColor=#fff2cc;strokeColor=#d6b656;" vertex="1" parent="RvCncOSn8bAutDe4F0GP-1">
          <mxGeometry x="110" y="900" width="275" height="230" as="geometry">
            <mxRectangle x="30" y="360" width="160" height="26" as="alternateBounds" />
          </mxGeometry>
        </mxCell>
        <mxCell id="RvCncOSn8bAutDe4F0GP-41" value="- produto : []&#xa;- controlador_sistema: ControladorSistema&#xa;- tela_produto: TelaProduto" style="text;align=left;verticalAlign=top;spacingLeft=4;spacingRight=4;overflow=hidden;rotatable=0;points=[[0,0.5],[1,0.5]];portConstraint=eastwest;fontStyle=0" vertex="1" parent="RvCncOSn8bAutDe4F0GP-40">
          <mxGeometry y="26" width="275" height="54" as="geometry" />
        </mxCell>
        <mxCell id="RvCncOSn8bAutDe4F0GP-42" value="" style="line;html=1;strokeWidth=1;align=left;verticalAlign=middle;spacingTop=-1;spacingLeft=3;spacingRight=3;rotatable=0;labelPosition=right;points=[];portConstraint=eastwest;" vertex="1" parent="RvCncOSn8bAutDe4F0GP-40">
          <mxGeometry y="80" width="275" height="8" as="geometry" />
        </mxCell>
        <mxCell id="RvCncOSn8bAutDe4F0GP-43" value="+ &lt;&lt;create&gt;&gt;__init__(ControladorSistema)&#xa;+ lista_produtos()&#xa;+ pegar_produto_por_codigo()&#xa;+ incluir_produto()&#xa;+ alterar__preco_produto()&#xa;+ alterar_estoque()&#xa;+ excluir_produto()&#xa;+ retornar() &#xa;+ abrir_tela()&#xa;" style="text;align=left;verticalAlign=top;spacingLeft=4;spacingRight=4;overflow=hidden;rotatable=0;points=[[0,0.5],[1,0.5]];portConstraint=eastwest;fontStyle=0;labelBorderColor=none;" vertex="1" parent="RvCncOSn8bAutDe4F0GP-40">
          <mxGeometry y="88" width="275" height="142" as="geometry" />
        </mxCell>
        <mxCell id="RvCncOSn8bAutDe4F0GP-44" value="ControladorPessoas" style="swimlane;fontStyle=0;align=center;verticalAlign=top;childLayout=stackLayout;horizontal=1;startSize=26;horizontalStack=0;resizeParent=1;resizeLast=0;collapsible=1;marginBottom=0;rounded=1;shadow=0;strokeWidth=1;fontSize=15;fillColor=#fff2cc;strokeColor=#d6b656;" vertex="1" parent="RvCncOSn8bAutDe4F0GP-1">
          <mxGeometry x="120" y="440" width="185" height="250" as="geometry">
            <mxRectangle x="30" y="360" width="160" height="26" as="alternateBounds" />
          </mxGeometry>
        </mxCell>
        <mxCell id="RvCncOSn8bAutDe4F0GP-45" value="- clientes: [ ]&#xa;- vendedores: [ ]&#xa;- controlador_sistema&#xa;- tela_pessoa" style="text;align=left;verticalAlign=top;spacingLeft=4;spacingRight=4;overflow=hidden;rotatable=0;points=[[0,0.5],[1,0.5]];portConstraint=eastwest;fontStyle=0" vertex="1" parent="RvCncOSn8bAutDe4F0GP-44">
          <mxGeometry y="26" width="185" height="64" as="geometry" />
        </mxCell>
        <mxCell id="RvCncOSn8bAutDe4F0GP-46" value="" style="line;html=1;strokeWidth=1;align=left;verticalAlign=middle;spacingTop=-1;spacingLeft=3;spacingRight=3;rotatable=0;labelPosition=right;points=[];portConstraint=eastwest;" vertex="1" parent="RvCncOSn8bAutDe4F0GP-44">
          <mxGeometry y="90" width="185" height="8" as="geometry" />
        </mxCell>
        <mxCell id="RvCncOSn8bAutDe4F0GP-47" value="+ &lt;&lt;create&gt;&gt;__init__()&#xa;+ incluir_cliente()&#xa;+ incluir_vendedor()&#xa;+ alterar_pessoa()&#xa;+ lista_cliente()&#xa;+ lista_vendedor()&#xa;+ excluir_cliente()&#xa;+ excluir_vendedor()&#xa;+ retornar()&#xa;+ abrir_tela()" style="text;align=left;verticalAlign=top;spacingLeft=4;spacingRight=4;overflow=hidden;rotatable=0;points=[[0,0.5],[1,0.5]];portConstraint=eastwest;fontStyle=0" vertex="1" parent="RvCncOSn8bAutDe4F0GP-44">
          <mxGeometry y="98" width="185" height="152" as="geometry" />
        </mxCell>
        <mxCell id="RvCncOSn8bAutDe4F0GP-48" value="" style="edgeStyle=orthogonalEdgeStyle;rounded=1;orthogonalLoop=1;jettySize=auto;html=1;endArrow=none;endFill=0;endSize=13;exitX=-0.002;exitY=0.175;exitDx=0;exitDy=0;exitPerimeter=0;curved=0;entryX=1.007;entryY=0.668;entryDx=0;entryDy=0;entryPerimeter=0;startArrow=open;startFill=0;startSize=13;" edge="1" parent="RvCncOSn8bAutDe4F0GP-1" source="RvCncOSn8bAutDe4F0GP-11">
          <mxGeometry relative="1" as="geometry">
            <mxPoint x="836.3399999999999" y="390.091" as="sourcePoint" />
            <mxPoint x="305.29499999999996" y="508.75199999999995" as="targetPoint" />
            <Array as="points">
              <mxPoint x="439" y="389" />
              <mxPoint x="439" y="509" />
            </Array>
          </mxGeometry>
        </mxCell>
        <mxCell id="RvCncOSn8bAutDe4F0GP-49" value="&amp;nbsp;- vendedores" style="edgeLabel;html=1;align=center;verticalAlign=middle;resizable=0;points=[];" vertex="1" connectable="0" parent="RvCncOSn8bAutDe4F0GP-48">
          <mxGeometry x="-0.6633" y="3" relative="1" as="geometry">
            <mxPoint y="-4" as="offset" />
          </mxGeometry>
        </mxCell>
        <mxCell id="RvCncOSn8bAutDe4F0GP-50" value="Endereco" style="swimlane;fontStyle=0;align=center;verticalAlign=top;childLayout=stackLayout;horizontal=1;startSize=26;horizontalStack=0;resizeParent=1;resizeLast=0;collapsible=1;marginBottom=0;rounded=1;shadow=0;strokeWidth=1;fontSize=15;" vertex="1" parent="RvCncOSn8bAutDe4F0GP-1">
          <mxGeometry x="540" y="1400" width="290" height="210" as="geometry">
            <mxRectangle x="30" y="360" width="160" height="26" as="alternateBounds" />
          </mxGeometry>
        </mxCell>
        <mxCell id="RvCncOSn8bAutDe4F0GP-51" value="- cep: int" style="text;align=left;verticalAlign=top;spacingLeft=4;spacingRight=4;overflow=hidden;rotatable=0;points=[[0,0.5],[1,0.5]];portConstraint=eastwest;" vertex="1" parent="RvCncOSn8bAutDe4F0GP-50">
          <mxGeometry y="26" width="290" height="24" as="geometry" />
        </mxCell>
        <mxCell id="RvCncOSn8bAutDe4F0GP-52" value="- rua: str" style="text;align=left;verticalAlign=top;spacingLeft=4;spacingRight=4;overflow=hidden;rotatable=0;points=[[0,0.5],[1,0.5]];portConstraint=eastwest;" vertex="1" parent="RvCncOSn8bAutDe4F0GP-50">
          <mxGeometry y="50" width="290" height="20" as="geometry" />
        </mxCell>
        <mxCell id="RvCncOSn8bAutDe4F0GP-53" value="- numero: int" style="text;align=left;verticalAlign=top;spacingLeft=4;spacingRight=4;overflow=hidden;rotatable=0;points=[[0,0.5],[1,0.5]];portConstraint=eastwest;" vertex="1" parent="RvCncOSn8bAutDe4F0GP-50">
          <mxGeometry y="70" width="290" height="20" as="geometry" />
        </mxCell>
        <mxCell id="RvCncOSn8bAutDe4F0GP-54" value="" style="line;html=1;strokeWidth=1;align=left;verticalAlign=middle;spacingTop=-1;spacingLeft=3;spacingRight=3;rotatable=0;labelPosition=right;points=[];portConstraint=eastwest;" vertex="1" parent="RvCncOSn8bAutDe4F0GP-50">
          <mxGeometry y="90" width="290" height="8" as="geometry" />
        </mxCell>
        <mxCell id="RvCncOSn8bAutDe4F0GP-55" value="+ &lt;&lt;create&gt;&gt;__init__(cep: int, rua: str, numero: int)&#xa;+ cep(int)&#xa;+ cep(): int&#xa;+ rua(srt)&#xa;+ rua(): str&#xa;+ numero(int)&#xa;+ numero(): int" style="text;align=left;verticalAlign=top;spacingLeft=4;spacingRight=4;overflow=hidden;rotatable=0;points=[[0,0.5],[1,0.5]];portConstraint=eastwest;fontStyle=0" vertex="1" parent="RvCncOSn8bAutDe4F0GP-50">
          <mxGeometry y="98" width="290" height="106" as="geometry" />
        </mxCell>
        <mxCell id="RvCncOSn8bAutDe4F0GP-56" style="edgeStyle=orthogonalEdgeStyle;rounded=1;orthogonalLoop=1;jettySize=auto;html=1;entryX=0.148;entryY=-0.011;entryDx=0;entryDy=0;entryPerimeter=0;endArrow=open;endFill=0;startArrow=diamondThin;startFill=1;curved=0;startSize=16;endSize=13;exitX=-0.001;exitY=0.577;exitDx=0;exitDy=0;exitPerimeter=0;" edge="1" parent="RvCncOSn8bAutDe4F0GP-1" source="RvCncOSn8bAutDe4F0GP-109" target="RvCncOSn8bAutDe4F0GP-50">
          <mxGeometry relative="1" as="geometry">
            <mxPoint x="1735.9999999999995" y="1987" as="sourcePoint" />
            <Array as="points">
              <mxPoint x="910" y="1479" />
              <mxPoint x="910" y="1370" />
              <mxPoint x="583" y="1370" />
            </Array>
          </mxGeometry>
        </mxCell>
        <mxCell id="RvCncOSn8bAutDe4F0GP-57" value="- enderecos" style="edgeLabel;html=1;align=center;verticalAlign=middle;resizable=0;points=[];" vertex="1" connectable="0" parent="RvCncOSn8bAutDe4F0GP-56">
          <mxGeometry x="0.7187" y="-3" relative="1" as="geometry">
            <mxPoint x="87" y="3" as="offset" />
          </mxGeometry>
        </mxCell>
        <mxCell id="RvCncOSn8bAutDe4F0GP-58" value="1, ..." style="text;html=1;align=center;verticalAlign=middle;resizable=0;points=[];autosize=1;strokeColor=none;fillColor=none;" vertex="1" parent="RvCncOSn8bAutDe4F0GP-1">
          <mxGeometry x="940" y="1440" width="50" height="30" as="geometry" />
        </mxCell>
        <mxCell id="RvCncOSn8bAutDe4F0GP-59" value="ControladorSistema" style="swimlane;fontStyle=0;align=center;verticalAlign=top;childLayout=stackLayout;horizontal=1;startSize=26;horizontalStack=0;resizeParent=1;resizeLast=0;collapsible=1;marginBottom=0;rounded=1;shadow=0;strokeWidth=1;fontSize=15;fontFamily=Helvetica;" vertex="1" parent="RvCncOSn8bAutDe4F0GP-1">
          <mxGeometry x="162" y="40" width="1650" height="300" as="geometry">
            <mxRectangle x="30" y="360" width="160" height="26" as="alternateBounds" />
          </mxGeometry>
        </mxCell>
        <mxCell id="RvCncOSn8bAutDe4F0GP-60" value="- controlador_venda: ControladorVenda&#xa;- controlador_fornecedor: ControladorFornecedor&#xa;- controlador_produto: ControladorProduto&#xa;- controlador_pedido: ControladorPedido&#xa;- controlador_pessoa: ContoladorPessoa&#xa;- tela_sistema: TelaSistema&#xa;&#xa;" style="text;align=left;verticalAlign=top;spacingLeft=4;spacingRight=4;overflow=hidden;rotatable=0;points=[[0,0.5],[1,0.5]];portConstraint=eastwest;fontStyle=0;fontFamily=Helvetica;fontSize=15;fontColor=default;horizontal=1;" vertex="1" parent="RvCncOSn8bAutDe4F0GP-59">
          <mxGeometry y="26" width="1650" height="94" as="geometry" />
        </mxCell>
        <mxCell id="RvCncOSn8bAutDe4F0GP-61" value="" style="line;html=1;strokeWidth=1;align=center;verticalAlign=top;spacingTop=-1;spacingLeft=3;spacingRight=3;rotatable=0;labelPosition=right;points=[];portConstraint=eastwest;rounded=1;shadow=0;strokeColor=default;fontFamily=Helvetica;fontSize=15;fontColor=default;fontStyle=0;horizontal=1;fillColor=default;" vertex="1" parent="RvCncOSn8bAutDe4F0GP-59">
          <mxGeometry y="120" width="1650" height="8" as="geometry" />
        </mxCell>
        <mxCell id="RvCncOSn8bAutDe4F0GP-62" value="+ &lt;&lt;create&gt;&gt;__init__()&#xa;+cadastra_venda()&#xa;+ cadastra_fornecedor()&#xa;+ cadastra_produto()&#xa;+ cadastra_pedido&#xa;+ cadastra_pessoa()&#xa;+ inicializa_sistema()&#xa;+ encerra_sistema()&#xa;+ abre_tela()&#xa;" style="text;align=left;verticalAlign=top;spacingLeft=4;spacingRight=4;overflow=hidden;rotatable=0;points=[[0,0.5],[1,0.5]];portConstraint=eastwest;fontStyle=0;fontFamily=Helvetica;fontSize=15;fontColor=default;horizontal=1;" vertex="1" parent="RvCncOSn8bAutDe4F0GP-59">
          <mxGeometry y="128" width="1650" height="172" as="geometry" />
        </mxCell>
        <mxCell id="RvCncOSn8bAutDe4F0GP-63" value="TelaPessoas" style="swimlane;fontStyle=0;align=center;verticalAlign=top;childLayout=stackLayout;horizontal=1;startSize=26;horizontalStack=0;resizeParent=1;resizeLast=0;collapsible=1;marginBottom=0;rounded=1;shadow=0;strokeWidth=1;fontSize=15;fillColor=#f8cecc;strokeColor=#b85450;" vertex="1" parent="RvCncOSn8bAutDe4F0GP-1">
          <mxGeometry x="430" y="640" width="185" height="150" as="geometry">
            <mxRectangle x="30" y="360" width="160" height="26" as="alternateBounds" />
          </mxGeometry>
        </mxCell>
        <mxCell id="RvCncOSn8bAutDe4F0GP-64" value="" style="line;html=1;strokeWidth=1;align=left;verticalAlign=middle;spacingTop=-1;spacingLeft=3;spacingRight=3;rotatable=0;labelPosition=right;points=[];portConstraint=eastwest;" vertex="1" parent="RvCncOSn8bAutDe4F0GP-63">
          <mxGeometry y="26" width="185" height="8" as="geometry" />
        </mxCell>
        <mxCell id="RvCncOSn8bAutDe4F0GP-66" style="edgeStyle=orthogonalEdgeStyle;rounded=1;orthogonalLoop=1;jettySize=auto;html=1;endArrow=diamondThin;endFill=1;endSize=16;curved=0;entryX=0.464;entryY=-0.018;entryDx=0;entryDy=0;entryPerimeter=0;" edge="1" parent="RvCncOSn8bAutDe4F0GP-1">
          <mxGeometry relative="1" as="geometry">
            <mxPoint x="655" y="830.0000000000002" as="sourcePoint" />
            <mxPoint x="237.5999999999999" y="899.8600000000001" as="targetPoint" />
            <Array as="points">
              <mxPoint x="238" y="830" />
            </Array>
          </mxGeometry>
        </mxCell>
        <mxCell id="RvCncOSn8bAutDe4F0GP-67" value="&amp;nbsp;- tela_produto&amp;nbsp;" style="edgeLabel;html=1;align=center;verticalAlign=middle;resizable=0;points=[];" vertex="1" connectable="0" parent="RvCncOSn8bAutDe4F0GP-66">
          <mxGeometry x="-0.3936" y="3" relative="1" as="geometry">
            <mxPoint x="-7" y="-4" as="offset" />
          </mxGeometry>
        </mxCell>
        <mxCell id="RvCncOSn8bAutDe4F0GP-68" value="TelarProduto" style="swimlane;fontStyle=0;align=center;verticalAlign=top;childLayout=stackLayout;horizontal=1;startSize=26;horizontalStack=0;resizeParent=1;resizeLast=0;collapsible=1;marginBottom=0;rounded=1;shadow=0;strokeWidth=1;fontSize=15;fillColor=#f8cecc;strokeColor=#b85450;" vertex="1" parent="RvCncOSn8bAutDe4F0GP-1">
          <mxGeometry x="655" y="752" width="185" height="148" as="geometry">
            <mxRectangle x="30" y="360" width="160" height="26" as="alternateBounds" />
          </mxGeometry>
        </mxCell>
        <mxCell id="RvCncOSn8bAutDe4F0GP-69" value="" style="line;html=1;strokeWidth=1;align=left;verticalAlign=middle;spacingTop=-1;spacingLeft=3;spacingRight=3;rotatable=0;labelPosition=right;points=[];portConstraint=eastwest;" vertex="1" parent="RvCncOSn8bAutDe4F0GP-68">
          <mxGeometry y="26" width="185" height="8" as="geometry" />
        </mxCell>
        <mxCell id="2wu1Nu-s1dEwyiByw0Oi-32" style="edgeStyle=orthogonalEdgeStyle;rounded=0;orthogonalLoop=1;jettySize=auto;html=1;exitX=0.006;exitY=0.694;exitDx=0;exitDy=0;exitPerimeter=0;dashed=1;dashPattern=8 8;endArrow=none;startFill=0;" edge="1" parent="RvCncOSn8bAutDe4F0GP-68" source="RvCncOSn8bAutDe4F0GP-70">
          <mxGeometry relative="1" as="geometry">
            <mxPoint x="-215" y="107.99999999999977" as="targetPoint" />
          </mxGeometry>
        </mxCell>
        <mxCell id="RvCncOSn8bAutDe4F0GP-70" value="+ &lt;&lt;create&gt;&gt;__init__()&#xa;+ tela_opcoes()&#xa;+ pega_dado_produto()&#xa;+ pega_dado_produto_alterar()&#xa;+ mostra_produto()&#xa;+ seleciona_produto()&#xa;+ mostra_mensagem()" style="text;align=left;verticalAlign=top;spacingLeft=4;spacingRight=4;overflow=hidden;rotatable=0;points=[[0,0.5],[1,0.5]];portConstraint=eastwest;fontStyle=0" vertex="1" parent="RvCncOSn8bAutDe4F0GP-68">
          <mxGeometry y="34" width="185" height="106" as="geometry" />
        </mxCell>
        <mxCell id="2wu1Nu-s1dEwyiByw0Oi-33" style="edgeStyle=orthogonalEdgeStyle;rounded=1;orthogonalLoop=1;jettySize=auto;html=1;curved=0;dashed=1;dashPattern=8 8;endArrow=none;endFill=0;startFill=0;" edge="1" parent="RvCncOSn8bAutDe4F0GP-1" source="RvCncOSn8bAutDe4F0GP-71">
          <mxGeometry relative="1" as="geometry">
            <mxPoint x="1900" y="1040" as="targetPoint" />
            <Array as="points">
              <mxPoint x="1900" y="1030" />
            </Array>
          </mxGeometry>
        </mxCell>
        <mxCell id="RvCncOSn8bAutDe4F0GP-71" value="TelarFornecedor" style="swimlane;fontStyle=0;align=center;verticalAlign=top;childLayout=stackLayout;horizontal=1;startSize=26;horizontalStack=0;resizeParent=1;resizeLast=0;collapsible=1;marginBottom=0;rounded=1;shadow=0;strokeWidth=1;fontSize=15;fillColor=#f8cecc;strokeColor=#b85450;" vertex="1" parent="RvCncOSn8bAutDe4F0GP-1">
          <mxGeometry x="2010" y="940" width="185" height="180" as="geometry">
            <mxRectangle x="30" y="360" width="160" height="26" as="alternateBounds" />
          </mxGeometry>
        </mxCell>
        <mxCell id="RvCncOSn8bAutDe4F0GP-72" value="" style="line;html=1;strokeWidth=1;align=left;verticalAlign=middle;spacingTop=-1;spacingLeft=3;spacingRight=3;rotatable=0;labelPosition=right;points=[];portConstraint=eastwest;" vertex="1" parent="RvCncOSn8bAutDe4F0GP-71">
          <mxGeometry y="26" width="185" height="8" as="geometry" />
        </mxCell>
        <mxCell id="RvCncOSn8bAutDe4F0GP-73" value="+ &lt;&lt;create&gt;&gt;__init__()&#xa;+ tela_opcoes()&#xa;+ pega_dado_fornecedor()&#xa;+ pega_dados_endereco()&#xa;+ mostra_endereco()&#xa;+ mostra_fornecedor()&#xa;+ seleciona_fornecedor()&#xa;+ seleciona_endereco()&#xa;+ mostra_mensagem()" style="text;align=left;verticalAlign=top;spacingLeft=4;spacingRight=4;overflow=hidden;rotatable=0;points=[[0,0.5],[1,0.5]];portConstraint=eastwest;fontStyle=0" vertex="1" parent="RvCncOSn8bAutDe4F0GP-71">
          <mxGeometry y="34" width="185" height="136" as="geometry" />
        </mxCell>
        <mxCell id="RvCncOSn8bAutDe4F0GP-74" style="edgeStyle=orthogonalEdgeStyle;rounded=1;orthogonalLoop=1;jettySize=auto;html=1;endArrow=diamondThin;endFill=1;endSize=16;startSize=16;curved=0;entryX=0.767;entryY=1.014;entryDx=0;entryDy=0;entryPerimeter=0;exitX=0.056;exitY=-0.101;exitDx=0;exitDy=0;exitPerimeter=0;" edge="1" parent="RvCncOSn8bAutDe4F0GP-1" source="RvCncOSn8bAutDe4F0GP-153" target="RvCncOSn8bAutDe4F0GP-139">
          <mxGeometry relative="1" as="geometry">
            <mxPoint x="1776" y="649.22" as="targetPoint" />
            <mxPoint x="1691" y="738.2200000000001" as="sourcePoint" />
            <Array as="points">
              <mxPoint x="1615" y="680" />
              <mxPoint x="1921" y="680" />
            </Array>
          </mxGeometry>
        </mxCell>
        <mxCell id="RvCncOSn8bAutDe4F0GP-75" value="&amp;nbsp;- tela_venda&amp;nbsp;" style="edgeLabel;html=1;align=center;verticalAlign=middle;resizable=0;points=[];" vertex="1" connectable="0" parent="RvCncOSn8bAutDe4F0GP-74">
          <mxGeometry x="-0.3047" relative="1" as="geometry">
            <mxPoint x="103" y="1" as="offset" />
          </mxGeometry>
        </mxCell>
        <mxCell id="RvCncOSn8bAutDe4F0GP-76" value="TelarVenda" style="swimlane;fontStyle=0;align=center;verticalAlign=top;childLayout=stackLayout;horizontal=1;startSize=26;horizontalStack=0;resizeParent=1;resizeLast=0;collapsible=1;marginBottom=0;rounded=1;shadow=0;strokeWidth=1;fontSize=15;fillColor=#f8cecc;strokeColor=#b85450;" vertex="1" parent="RvCncOSn8bAutDe4F0GP-1">
          <mxGeometry x="1428" y="624" width="185" height="138" as="geometry">
            <mxRectangle x="30" y="360" width="160" height="26" as="alternateBounds" />
          </mxGeometry>
        </mxCell>
        <mxCell id="RvCncOSn8bAutDe4F0GP-77" value="" style="line;html=1;strokeWidth=1;align=left;verticalAlign=middle;spacingTop=-1;spacingLeft=3;spacingRight=3;rotatable=0;labelPosition=right;points=[];portConstraint=eastwest;" vertex="1" parent="RvCncOSn8bAutDe4F0GP-76">
          <mxGeometry y="26" width="185" height="8" as="geometry" />
        </mxCell>
        <mxCell id="RvCncOSn8bAutDe4F0GP-78" value="+ &lt;&lt;create&gt;&gt;__init__()&#xa;+ tela_opcoes()&#xa;+ pega_dado_venda()&#xa;+ mostra_venda()&#xa;+ seleciona_venda()&#xa;+ mostra_mensagem()" style="text;align=left;verticalAlign=top;spacingLeft=4;spacingRight=4;overflow=hidden;rotatable=0;points=[[0,0.5],[1,0.5]];portConstraint=eastwest;fontStyle=0" vertex="1" parent="RvCncOSn8bAutDe4F0GP-76">
          <mxGeometry y="34" width="185" height="96" as="geometry" />
        </mxCell>
        <mxCell id="RvCncOSn8bAutDe4F0GP-79" value="TelarPedido" style="swimlane;fontStyle=0;align=center;verticalAlign=top;childLayout=stackLayout;horizontal=1;startSize=26;horizontalStack=0;resizeParent=1;resizeLast=0;collapsible=1;marginBottom=0;rounded=1;shadow=0;strokeWidth=1;fontSize=15;fillColor=#f8cecc;strokeColor=#b85450;" vertex="1" parent="RvCncOSn8bAutDe4F0GP-1">
          <mxGeometry x="2005" y="458" width="185" height="138" as="geometry">
            <mxRectangle x="30" y="360" width="160" height="26" as="alternateBounds" />
          </mxGeometry>
        </mxCell>
        <mxCell id="RvCncOSn8bAutDe4F0GP-80" value="" style="line;html=1;strokeWidth=1;align=left;verticalAlign=middle;spacingTop=-1;spacingLeft=3;spacingRight=3;rotatable=0;labelPosition=right;points=[];portConstraint=eastwest;" vertex="1" parent="RvCncOSn8bAutDe4F0GP-79">
          <mxGeometry y="26" width="185" height="8" as="geometry" />
        </mxCell>
        <mxCell id="RvCncOSn8bAutDe4F0GP-81" value="+ &lt;&lt;create&gt;&gt;__init__()&#xa;+ tela_opcoes()&#xa;+ pega_dado_pedido()&#xa;+ mostra_pedido()&#xa;+ seleciona_pedido()&#xa;+ mostra_mensagem()" style="text;align=left;verticalAlign=top;spacingLeft=4;spacingRight=4;overflow=hidden;rotatable=0;points=[[0,0.5],[1,0.5]];portConstraint=eastwest;fontStyle=0" vertex="1" parent="RvCncOSn8bAutDe4F0GP-79">
          <mxGeometry y="34" width="185" height="96" as="geometry" />
        </mxCell>
        <mxCell id="RvCncOSn8bAutDe4F0GP-82" style="edgeStyle=orthogonalEdgeStyle;rounded=1;orthogonalLoop=1;jettySize=auto;html=1;endArrow=diamondThin;endFill=1;startSize=16;endSize=16;curved=0;entryX=0.028;entryY=1.005;entryDx=0;entryDy=0;entryPerimeter=0;exitX=0.478;exitY=-0.002;exitDx=0;exitDy=0;exitPerimeter=0;" edge="1" parent="RvCncOSn8bAutDe4F0GP-1" source="RvCncOSn8bAutDe4F0GP-44" target="RvCncOSn8bAutDe4F0GP-62">
          <mxGeometry relative="1" as="geometry">
            <mxPoint x="207.20000000000005" y="333.54999999999995" as="targetPoint" />
            <Array as="points">
              <mxPoint x="208" y="420" />
              <mxPoint x="208" y="420" />
            </Array>
            <mxPoint x="208" y="420" as="sourcePoint" />
          </mxGeometry>
        </mxCell>
        <mxCell id="RvCncOSn8bAutDe4F0GP-83" value="- controlador_pessoas" style="edgeLabel;html=1;align=center;verticalAlign=middle;resizable=0;points=[];" vertex="1" connectable="0" parent="RvCncOSn8bAutDe4F0GP-82">
          <mxGeometry x="-0.5705" y="1" relative="1" as="geometry">
            <mxPoint as="offset" />
          </mxGeometry>
        </mxCell>
        <mxCell id="RvCncOSn8bAutDe4F0GP-84" style="edgeStyle=orthogonalEdgeStyle;rounded=1;orthogonalLoop=1;jettySize=auto;html=1;endArrow=open;endFill=0;curved=0;endSize=13;entryX=1;entryY=0.196;entryDx=0;entryDy=0;entryPerimeter=0;exitX=-0.001;exitY=0.737;exitDx=0;exitDy=0;exitPerimeter=0;" edge="1" parent="RvCncOSn8bAutDe4F0GP-1" source="RvCncOSn8bAutDe4F0GP-21" target="RvCncOSn8bAutDe4F0GP-7">
          <mxGeometry relative="1" as="geometry">
            <mxPoint x="1360.5" y="572" as="sourcePoint" />
            <mxPoint x="1170" y="512.98" as="targetPoint" />
            <Array as="points">
              <mxPoint x="1350" y="567" />
              <mxPoint x="1276" y="567" />
              <mxPoint x="1276" y="514" />
            </Array>
          </mxGeometry>
        </mxCell>
        <mxCell id="RvCncOSn8bAutDe4F0GP-85" style="edgeStyle=orthogonalEdgeStyle;rounded=1;orthogonalLoop=1;jettySize=auto;html=1;endArrow=open;endFill=0;endSize=13;curved=0;exitX=0;exitY=0.063;exitDx=0;exitDy=0;exitPerimeter=0;" edge="1" parent="RvCncOSn8bAutDe4F0GP-1">
          <mxGeometry relative="1" as="geometry">
            <mxPoint x="1360.5" y="500.08000000000004" as="sourcePoint" />
            <mxPoint x="1207.5" y="480" as="targetPoint" />
            <Array as="points">
              <mxPoint x="1207.5" y="500" />
            </Array>
          </mxGeometry>
        </mxCell>
        <mxCell id="RvCncOSn8bAutDe4F0GP-86" value="&amp;nbsp;- cliente&amp;nbsp;" style="edgeLabel;html=1;align=center;verticalAlign=middle;resizable=0;points=[];fontSize=12;" vertex="1" connectable="0" parent="RvCncOSn8bAutDe4F0GP-85">
          <mxGeometry x="-0.3414" y="-1" relative="1" as="geometry">
            <mxPoint x="7" y="67" as="offset" />
          </mxGeometry>
        </mxCell>
        <mxCell id="RvCncOSn8bAutDe4F0GP-87" value="&amp;nbsp;- vendedor&amp;nbsp;" style="edgeLabel;html=1;align=center;verticalAlign=middle;resizable=0;points=[];fontSize=12;" vertex="1" connectable="0" parent="RvCncOSn8bAutDe4F0GP-85">
          <mxGeometry x="-0.0971" y="1" relative="1" as="geometry">
            <mxPoint as="offset" />
          </mxGeometry>
        </mxCell>
        <mxCell id="RvCncOSn8bAutDe4F0GP-88" value="1" style="edgeLabel;html=1;align=center;verticalAlign=middle;resizable=0;points=[];fontSize=12;" vertex="1" connectable="0" parent="RvCncOSn8bAutDe4F0GP-1">
          <mxGeometry x="1360.502775975774" y="512.0020989207146" as="geometry">
            <mxPoint x="-13" y="-3" as="offset" />
          </mxGeometry>
        </mxCell>
        <mxCell id="RvCncOSn8bAutDe4F0GP-89" value="1" style="edgeLabel;html=1;align=center;verticalAlign=middle;resizable=0;points=[];fontSize=12;" vertex="1" connectable="0" parent="RvCncOSn8bAutDe4F0GP-1">
          <mxGeometry x="1366.502775975774" y="582.0020989207146" as="geometry">
            <mxPoint x="-13" y="-3" as="offset" />
          </mxGeometry>
        </mxCell>
        <mxCell id="RvCncOSn8bAutDe4F0GP-90" style="edgeStyle=orthogonalEdgeStyle;rounded=1;orthogonalLoop=1;jettySize=auto;html=1;curved=0;endArrow=block;endFill=0;endSize=13;" edge="1" parent="RvCncOSn8bAutDe4F0GP-1" source="RvCncOSn8bAutDe4F0GP-91">
          <mxGeometry relative="1" as="geometry">
            <mxPoint x="1378" y="798" as="sourcePoint" />
            <mxPoint x="1350.0000000000002" y="760.076923076923" as="targetPoint" />
            <Array as="points">
              <mxPoint x="1428" y="760" />
            </Array>
          </mxGeometry>
        </mxCell>
        <mxCell id="RvCncOSn8bAutDe4F0GP-91" value="Pedido" style="swimlane;fontStyle=0;align=center;verticalAlign=top;childLayout=stackLayout;horizontal=1;startSize=26;horizontalStack=0;resizeParent=1;resizeLast=0;collapsible=1;marginBottom=0;rounded=1;shadow=0;strokeWidth=1;fontSize=15;" vertex="1" parent="RvCncOSn8bAutDe4F0GP-1">
          <mxGeometry x="1100" y="890" width="421" height="230" as="geometry">
            <mxRectangle x="30" y="360" width="160" height="26" as="alternateBounds" />
          </mxGeometry>
        </mxCell>
        <mxCell id="RvCncOSn8bAutDe4F0GP-92" value="- fornecedor: Fornecedor" style="text;align=left;verticalAlign=top;spacingLeft=4;spacingRight=4;overflow=hidden;rotatable=0;points=[[0,0.5],[1,0.5]];portConstraint=eastwest;" vertex="1" parent="RvCncOSn8bAutDe4F0GP-91">
          <mxGeometry y="26" width="421" height="20" as="geometry" />
        </mxCell>
        <mxCell id="RvCncOSn8bAutDe4F0GP-93" value="- frete: float" style="text;align=left;verticalAlign=top;spacingLeft=4;spacingRight=4;overflow=hidden;rotatable=0;points=[[0,0.5],[1,0.5]];portConstraint=eastwest;" vertex="1" parent="RvCncOSn8bAutDe4F0GP-91">
          <mxGeometry y="46" width="421" height="20" as="geometry" />
        </mxCell>
        <mxCell id="RvCncOSn8bAutDe4F0GP-94" value="- prazo_entrega: int" style="text;align=left;verticalAlign=top;spacingLeft=4;spacingRight=4;overflow=hidden;rotatable=0;points=[[0,0.5],[1,0.5]];portConstraint=eastwest;" vertex="1" parent="RvCncOSn8bAutDe4F0GP-91">
          <mxGeometry y="66" width="421" height="20" as="geometry" />
        </mxCell>
        <mxCell id="RvCncOSn8bAutDe4F0GP-95" value="- codigo_pedido: int" style="text;align=left;verticalAlign=top;spacingLeft=4;spacingRight=4;overflow=hidden;rotatable=0;points=[[0,0.5],[1,0.5]];portConstraint=eastwest;" vertex="1" parent="RvCncOSn8bAutDe4F0GP-91">
          <mxGeometry y="86" width="421" height="20" as="geometry" />
        </mxCell>
        <mxCell id="RvCncOSn8bAutDe4F0GP-96" value="" style="line;html=1;strokeWidth=1;align=left;verticalAlign=middle;spacingTop=-1;spacingLeft=3;spacingRight=3;rotatable=0;labelPosition=right;points=[];portConstraint=eastwest;" vertex="1" parent="RvCncOSn8bAutDe4F0GP-91">
          <mxGeometry y="106" width="421" height="8" as="geometry" />
        </mxCell>
        <mxCell id="RvCncOSn8bAutDe4F0GP-97" value="+ &lt;&lt;create&gt;&gt;__init__(fornecedor: Fornecedor, frete: float, prazo_entrega: int)&#xa;+ fornecedor(fornecedor: Fornecedor)&#xa;+ fornecedor(): Fornecedor&#xa;+ frete(float)&#xa;+ frete():float&#xa;+ prazo_entrega(int)&#xa;+ prazo_entrega(): int&#xa;" style="text;align=left;verticalAlign=top;spacingLeft=4;spacingRight=4;overflow=hidden;rotatable=0;points=[[0,0.5],[1,0.5]];portConstraint=eastwest;fontStyle=0" vertex="1" parent="RvCncOSn8bAutDe4F0GP-91">
          <mxGeometry y="114" width="421" height="116" as="geometry" />
        </mxCell>
        <mxCell id="RvCncOSn8bAutDe4F0GP-98" style="edgeStyle=orthogonalEdgeStyle;rounded=1;orthogonalLoop=1;jettySize=auto;html=1;endSize=13;endArrow=open;endFill=0;curved=0;entryX=0;entryY=0.5;entryDx=0;entryDy=0;exitX=0.86;exitY=0.997;exitDx=0;exitDy=0;exitPerimeter=0;" edge="1" parent="RvCncOSn8bAutDe4F0GP-1" source="RvCncOSn8bAutDe4F0GP-97">
          <mxGeometry relative="1" as="geometry">
            <mxPoint x="1450" y="1110" as="sourcePoint" />
            <mxPoint x="1651.37" y="1206.35" as="targetPoint" />
            <Array as="points">
              <mxPoint x="1462" y="1160" />
              <mxPoint x="1651" y="1160" />
            </Array>
          </mxGeometry>
        </mxCell>
        <mxCell id="RvCncOSn8bAutDe4F0GP-99" value="&amp;nbsp;- fornecedor&amp;nbsp;" style="edgeLabel;html=1;align=center;verticalAlign=middle;resizable=0;points=[];fontSize=12;" vertex="1" connectable="0" parent="RvCncOSn8bAutDe4F0GP-98">
          <mxGeometry x="-0.0779" relative="1" as="geometry">
            <mxPoint x="27" as="offset" />
          </mxGeometry>
        </mxCell>
        <mxCell id="RvCncOSn8bAutDe4F0GP-100" value="1" style="edgeLabel;html=1;align=center;verticalAlign=middle;resizable=0;points=[];fontSize=12;" vertex="1" connectable="0" parent="RvCncOSn8bAutDe4F0GP-1">
          <mxGeometry x="1510.002775975774" y="1150.0020989207146" as="geometry">
            <mxPoint x="-13" y="-3" as="offset" />
          </mxGeometry>
        </mxCell>
        <mxCell id="RvCncOSn8bAutDe4F0GP-101" value="Fornecedor" style="swimlane;fontStyle=0;align=center;verticalAlign=top;childLayout=stackLayout;horizontal=1;startSize=26;horizontalStack=0;resizeParent=1;resizeLast=0;collapsible=1;marginBottom=0;rounded=1;shadow=0;strokeWidth=1;fontSize=15;" vertex="1" parent="RvCncOSn8bAutDe4F0GP-1">
          <mxGeometry x="1070" y="1206" width="789" height="360" as="geometry">
            <mxRectangle x="30" y="360" width="160" height="26" as="alternateBounds" />
          </mxGeometry>
        </mxCell>
        <mxCell id="RvCncOSn8bAutDe4F0GP-102" value="- nome: str" style="text;align=left;verticalAlign=top;spacingLeft=4;spacingRight=4;overflow=hidden;rotatable=0;points=[[0,0.5],[1,0.5]];portConstraint=eastwest;" vertex="1" parent="RvCncOSn8bAutDe4F0GP-101">
          <mxGeometry y="26" width="789" height="20" as="geometry" />
        </mxCell>
        <mxCell id="RvCncOSn8bAutDe4F0GP-103" value="- cnpj: int" style="text;align=left;verticalAlign=top;spacingLeft=4;spacingRight=4;overflow=hidden;rotatable=0;points=[[0,0.5],[1,0.5]];portConstraint=eastwest;" vertex="1" parent="RvCncOSn8bAutDe4F0GP-101">
          <mxGeometry y="46" width="789" height="20" as="geometry" />
        </mxCell>
        <mxCell id="RvCncOSn8bAutDe4F0GP-104" value="- celular: int&#xa;" style="text;align=left;verticalAlign=top;spacingLeft=4;spacingRight=4;overflow=hidden;rotatable=0;points=[[0,0.5],[1,0.5]];portConstraint=eastwest;" vertex="1" parent="RvCncOSn8bAutDe4F0GP-101">
          <mxGeometry y="66" width="789" height="20" as="geometry" />
        </mxCell>
        <mxCell id="RvCncOSn8bAutDe4F0GP-105" value="- preco: float" style="text;align=left;verticalAlign=top;spacingLeft=4;spacingRight=4;overflow=hidden;rotatable=0;points=[[0,0.5],[1,0.5]];portConstraint=eastwest;" vertex="1" parent="RvCncOSn8bAutDe4F0GP-101">
          <mxGeometry y="86" width="789" height="20" as="geometry" />
        </mxCell>
        <mxCell id="RvCncOSn8bAutDe4F0GP-106" value="- produto: Produto" style="text;align=left;verticalAlign=top;spacingLeft=4;spacingRight=4;overflow=hidden;rotatable=0;points=[[0,0.5],[1,0.5]];portConstraint=eastwest;" vertex="1" parent="RvCncOSn8bAutDe4F0GP-101">
          <mxGeometry y="106" width="789" height="20" as="geometry" />
        </mxCell>
        <mxCell id="RvCncOSn8bAutDe4F0GP-107" value="- endereco: Endereco" style="text;align=left;verticalAlign=top;spacingLeft=4;spacingRight=4;overflow=hidden;rotatable=0;points=[[0,0.5],[1,0.5]];portConstraint=eastwest;" vertex="1" parent="RvCncOSn8bAutDe4F0GP-101">
          <mxGeometry y="126" width="789" height="20" as="geometry" />
        </mxCell>
        <mxCell id="RvCncOSn8bAutDe4F0GP-108" value="" style="line;html=1;strokeWidth=1;align=left;verticalAlign=middle;spacingTop=-1;spacingLeft=3;spacingRight=3;rotatable=0;labelPosition=right;points=[];portConstraint=eastwest;" vertex="1" parent="RvCncOSn8bAutDe4F0GP-101">
          <mxGeometry y="146" width="789" height="8" as="geometry" />
        </mxCell>
        <mxCell id="RvCncOSn8bAutDe4F0GP-109" value="+ &lt;&lt;create&gt;&gt;__init__(nome: str, cnpj: int, celular: int, produto: Produto, preco: float, cep_endereco: int, rua_endereco: int, numero_endereco: int)&#xa;+ nome(str)&#xa;+ nome(): str&#xa;+ cnpj(int)&#xa;+ cnpj(): int&#xa;+ celular(int)&#xa;+ celular(): int&#xa;+ produto(Produto)&#xa;+ produto: Produto&#xa;+ preco(float)&#xa;+ preco(): float&#xa;+ incluir_endereco(cep: int, rua: str, numero: int):&#xa;+ excluir_endereco(cep: int, rua: str, numero: int):&#xa;" style="text;align=left;verticalAlign=top;spacingLeft=4;spacingRight=4;overflow=hidden;rotatable=0;points=[[0,0.5],[1,0.5]];portConstraint=eastwest;fontStyle=0" vertex="1" parent="RvCncOSn8bAutDe4F0GP-101">
          <mxGeometry y="154" width="789" height="206" as="geometry" />
        </mxCell>
        <mxCell id="RvCncOSn8bAutDe4F0GP-110" style="edgeStyle=orthogonalEdgeStyle;rounded=1;orthogonalLoop=1;jettySize=auto;html=1;startArrow=diamondThin;startFill=0;startSize=16;endSize=13;endArrow=open;endFill=0;exitX=0.265;exitY=0.005;exitDx=0;exitDy=0;exitPerimeter=0;entryX=1;entryY=0.5;entryDx=0;entryDy=0;curved=0;" edge="1" parent="RvCncOSn8bAutDe4F0GP-1" target="RvCncOSn8bAutDe4F0GP-35">
          <mxGeometry relative="1" as="geometry">
            <mxPoint x="1279.085" y="1206.8000000000002" as="sourcePoint" />
            <mxPoint x="1030" y="869" as="targetPoint" />
            <Array as="points">
              <mxPoint x="1279" y="1146" />
            </Array>
          </mxGeometry>
        </mxCell>
        <mxCell id="RvCncOSn8bAutDe4F0GP-111" value="&amp;nbsp;- produto&amp;nbsp;" style="edgeLabel;html=1;align=center;verticalAlign=middle;resizable=0;points=[];fontSize=12;" vertex="1" connectable="0" parent="RvCncOSn8bAutDe4F0GP-110">
          <mxGeometry x="-0.02" relative="1" as="geometry">
            <mxPoint x="-1" as="offset" />
          </mxGeometry>
        </mxCell>
        <mxCell id="RvCncOSn8bAutDe4F0GP-112" value="- produto" style="edgeStyle=orthogonalEdgeStyle;rounded=0;orthogonalLoop=1;jettySize=auto;html=1;endArrow=open;endFill=0;endSize=13;" edge="1" parent="RvCncOSn8bAutDe4F0GP-1">
          <mxGeometry relative="1" as="geometry">
            <mxPoint x="978" y="880" as="sourcePoint" />
            <mxPoint x="978" y="1049" as="targetPoint" />
          </mxGeometry>
        </mxCell>
        <mxCell id="RvCncOSn8bAutDe4F0GP-113" value="1" style="edgeLabel;html=1;align=center;verticalAlign=middle;resizable=0;points=[];fontSize=12;" vertex="1" connectable="0" parent="RvCncOSn8bAutDe4F0GP-1">
          <mxGeometry x="1000.002775975774" y="900.0020989207146" as="geometry">
            <mxPoint x="-10" y="-8" as="offset" />
          </mxGeometry>
        </mxCell>
        <mxCell id="RvCncOSn8bAutDe4F0GP-114" style="edgeStyle=orthogonalEdgeStyle;rounded=1;orthogonalLoop=1;jettySize=auto;html=1;entryX=0.25;entryY=0;entryDx=0;entryDy=0;startSize=13;endSize=13;endArrow=open;endFill=0;curved=0;" edge="1" parent="RvCncOSn8bAutDe4F0GP-1" source="RvCncOSn8bAutDe4F0GP-41" target="RvCncOSn8bAutDe4F0GP-31">
          <mxGeometry relative="1" as="geometry" />
        </mxCell>
        <mxCell id="RvCncOSn8bAutDe4F0GP-115" value="&amp;nbsp;- produtos&amp;nbsp;" style="edgeLabel;html=1;align=center;verticalAlign=middle;resizable=0;points=[];" vertex="1" connectable="0" parent="RvCncOSn8bAutDe4F0GP-114">
          <mxGeometry x="-0.1791" y="1" relative="1" as="geometry">
            <mxPoint x="-2" y="1" as="offset" />
          </mxGeometry>
        </mxCell>
        <mxCell id="RvCncOSn8bAutDe4F0GP-116" style="edgeStyle=orthogonalEdgeStyle;rounded=1;orthogonalLoop=1;jettySize=auto;html=1;entryX=0.017;entryY=1;entryDx=0;entryDy=0;entryPerimeter=0;endArrow=diamondThin;endFill=1;endSize=16;exitX=-0.006;exitY=0.817;exitDx=0;exitDy=0;exitPerimeter=0;curved=0;" edge="1" parent="RvCncOSn8bAutDe4F0GP-1" source="RvCncOSn8bAutDe4F0GP-41" target="RvCncOSn8bAutDe4F0GP-62">
          <mxGeometry relative="1" as="geometry">
            <Array as="points">
              <mxPoint x="80" y="970" />
              <mxPoint x="80" y="410" />
              <mxPoint x="190" y="410" />
            </Array>
          </mxGeometry>
        </mxCell>
        <mxCell id="RvCncOSn8bAutDe4F0GP-117" value="- controalador_produtos" style="edgeLabel;html=1;align=center;verticalAlign=middle;resizable=0;points=[];" vertex="1" connectable="0" parent="RvCncOSn8bAutDe4F0GP-116">
          <mxGeometry x="0.6926" relative="1" as="geometry">
            <mxPoint y="-20" as="offset" />
          </mxGeometry>
        </mxCell>
        <mxCell id="RvCncOSn8bAutDe4F0GP-118" style="edgeStyle=orthogonalEdgeStyle;rounded=1;orthogonalLoop=1;jettySize=auto;html=1;entryX=1.004;entryY=0.167;entryDx=0;entryDy=0;entryPerimeter=0;endArrow=diamondThin;endFill=1;endSize=16;curved=0;" edge="1" parent="RvCncOSn8bAutDe4F0GP-1" source="RvCncOSn8bAutDe4F0GP-65" target="RvCncOSn8bAutDe4F0GP-47">
          <mxGeometry relative="1" as="geometry" />
        </mxCell>
        <mxCell id="RvCncOSn8bAutDe4F0GP-119" value="- tela_pessoa" style="edgeLabel;html=1;align=center;verticalAlign=middle;resizable=0;points=[];" vertex="1" connectable="0" parent="RvCncOSn8bAutDe4F0GP-118">
          <mxGeometry x="-0.2885" relative="1" as="geometry">
            <mxPoint x="-3" y="-19" as="offset" />
          </mxGeometry>
        </mxCell>
        <mxCell id="RvCncOSn8bAutDe4F0GP-120" style="edgeStyle=orthogonalEdgeStyle;rounded=1;orthogonalLoop=1;jettySize=auto;html=1;exitX=0.874;exitY=1.027;exitDx=0;exitDy=0;exitPerimeter=0;entryX=0.935;entryY=1.003;entryDx=0;entryDy=0;entryPerimeter=0;endArrow=diamondThin;endFill=1;startSize=16;endSize=16;curved=0;" edge="1" parent="RvCncOSn8bAutDe4F0GP-1" source="RvCncOSn8bAutDe4F0GP-125" target="RvCncOSn8bAutDe4F0GP-62">
          <mxGeometry relative="1" as="geometry">
            <mxPoint x="1705.2999999999997" y="333.55000000000007" as="targetPoint" />
            <mxPoint x="1623.0499999999997" y="922" as="sourcePoint" />
            <Array as="points">
              <mxPoint x="1824" y="1140" />
              <mxPoint x="2230" y="1140" />
              <mxPoint x="2230" y="380" />
              <mxPoint x="1705" y="380" />
            </Array>
          </mxGeometry>
        </mxCell>
        <mxCell id="RvCncOSn8bAutDe4F0GP-121" value="&amp;nbsp;- controlador_fornecedores&amp;nbsp;" style="edgeLabel;html=1;align=center;verticalAlign=middle;resizable=0;points=[];" vertex="1" connectable="0" parent="RvCncOSn8bAutDe4F0GP-120">
          <mxGeometry x="0.7269" y="5" relative="1" as="geometry">
            <mxPoint x="-59" y="-6" as="offset" />
          </mxGeometry>
        </mxCell>
        <mxCell id="RvCncOSn8bAutDe4F0GP-122" value="ControladorFornecedores" style="swimlane;fontStyle=0;align=center;verticalAlign=top;childLayout=stackLayout;horizontal=1;startSize=26;horizontalStack=0;resizeParent=1;resizeLast=0;collapsible=1;marginBottom=0;rounded=1;shadow=0;strokeWidth=1;fontSize=15;fillColor=#fff2cc;strokeColor=#d6b656;" vertex="1" parent="RvCncOSn8bAutDe4F0GP-1">
          <mxGeometry x="1584" y="810" width="275" height="250" as="geometry">
            <mxRectangle x="30" y="360" width="160" height="26" as="alternateBounds" />
          </mxGeometry>
        </mxCell>
        <mxCell id="RvCncOSn8bAutDe4F0GP-123" value="- fornecedores : []&#xa;- controlador_sistema: ControladorSistema&#xa;- tela_fornecedor: TelaFornecedor" style="text;align=left;verticalAlign=top;spacingLeft=4;spacingRight=4;overflow=hidden;rotatable=0;points=[[0,0.5],[1,0.5]];portConstraint=eastwest;fontStyle=0" vertex="1" parent="RvCncOSn8bAutDe4F0GP-122">
          <mxGeometry y="26" width="275" height="54" as="geometry" />
        </mxCell>
        <mxCell id="RvCncOSn8bAutDe4F0GP-124" value="" style="line;html=1;strokeWidth=1;align=left;verticalAlign=middle;spacingTop=-1;spacingLeft=3;spacingRight=3;rotatable=0;labelPosition=right;points=[];portConstraint=eastwest;" vertex="1" parent="RvCncOSn8bAutDe4F0GP-122">
          <mxGeometry y="80" width="275" height="8" as="geometry" />
        </mxCell>
        <mxCell id="RvCncOSn8bAutDe4F0GP-125" value="+ &lt;&lt;create&gt;&gt;__init__(ControladorSistema)&#xa;+ pegar_fornecedor_por_cnpj()&#xa;+ incluir_fornecedor()&#xa;+ alterar_fornecedor()&#xa;+ adiconar_endereco()&#xa;+ lista_fornecedores()&#xa;+excluir_fornecedores()&#xa;+ excluir_endereco()&#xa;+ listar_enderecos_do_fornecedor&#xa;+ retornar() &#xa;+ abrir_tela()&#xa;" style="text;align=left;verticalAlign=top;spacingLeft=4;spacingRight=4;overflow=hidden;rotatable=0;points=[[0,0.5],[1,0.5]];portConstraint=eastwest;fontStyle=0;labelBorderColor=none;" vertex="1" parent="RvCncOSn8bAutDe4F0GP-122">
          <mxGeometry y="88" width="275" height="162" as="geometry" />
        </mxCell>
        <mxCell id="RvCncOSn8bAutDe4F0GP-126" style="edgeStyle=orthogonalEdgeStyle;rounded=1;orthogonalLoop=1;jettySize=auto;html=1;entryX=0.906;entryY=0.004;entryDx=0;entryDy=0;entryPerimeter=0;curved=0;endArrow=open;endFill=0;startSize=13;endSize=13;exitX=0.523;exitY=1.006;exitDx=0;exitDy=0;exitPerimeter=0;" edge="1" parent="RvCncOSn8bAutDe4F0GP-1" source="RvCncOSn8bAutDe4F0GP-125">
          <mxGeometry relative="1" as="geometry">
            <mxPoint x="1850" y="1070" as="sourcePoint" />
            <mxPoint x="1784.8339999999998" y="1206.44" as="targetPoint" />
          </mxGeometry>
        </mxCell>
        <mxCell id="RvCncOSn8bAutDe4F0GP-127" value="&amp;nbsp;- fornecedores&amp;nbsp;" style="edgeLabel;html=1;align=center;verticalAlign=middle;resizable=0;points=[];" vertex="1" connectable="0" parent="RvCncOSn8bAutDe4F0GP-126">
          <mxGeometry x="0.0968" y="1" relative="1" as="geometry">
            <mxPoint x="18" y="31" as="offset" />
          </mxGeometry>
        </mxCell>
        <mxCell id="RvCncOSn8bAutDe4F0GP-128" style="edgeStyle=orthogonalEdgeStyle;rounded=1;orthogonalLoop=1;jettySize=auto;html=1;entryX=0;entryY=0.25;entryDx=0;entryDy=0;curved=0;endSize=16;endArrow=none;endFill=1;startArrow=diamondThin;startFill=1;startSize=16;" edge="1" parent="RvCncOSn8bAutDe4F0GP-1" source="RvCncOSn8bAutDe4F0GP-123" target="RvCncOSn8bAutDe4F0GP-71">
          <mxGeometry relative="1" as="geometry">
            <Array as="points">
              <mxPoint x="1910" y="863" />
              <mxPoint x="1910" y="980" />
              <mxPoint x="2010" y="980" />
            </Array>
          </mxGeometry>
        </mxCell>
        <mxCell id="RvCncOSn8bAutDe4F0GP-129" value="&amp;nbsp;- tela_fornecedor&amp;nbsp;&lt;div&gt;&lt;br&gt;&lt;/div&gt;" style="edgeLabel;html=1;align=center;verticalAlign=middle;resizable=0;points=[];" vertex="1" connectable="0" parent="RvCncOSn8bAutDe4F0GP-128">
          <mxGeometry x="0.2409" y="-3" relative="1" as="geometry">
            <mxPoint x="49" y="1" as="offset" />
          </mxGeometry>
        </mxCell>
        <mxCell id="RvCncOSn8bAutDe4F0GP-130" value="ControladorPedidos" style="swimlane;fontStyle=0;align=center;verticalAlign=top;childLayout=stackLayout;horizontal=1;startSize=26;horizontalStack=0;resizeParent=1;resizeLast=0;collapsible=1;marginBottom=0;rounded=1;shadow=0;strokeWidth=1;fontSize=15;fillColor=#fff2cc;strokeColor=#d6b656;" vertex="1" parent="RvCncOSn8bAutDe4F0GP-1">
          <mxGeometry x="1930" y="715" width="275" height="210" as="geometry">
            <mxRectangle x="30" y="360" width="160" height="26" as="alternateBounds" />
          </mxGeometry>
        </mxCell>
        <mxCell id="RvCncOSn8bAutDe4F0GP-131" value="- pedidos : []&#xa;- controlador_sistema: ControladorSistema&#xa;- tela_pedido: TelaPedido" style="text;align=left;verticalAlign=top;spacingLeft=4;spacingRight=4;overflow=hidden;rotatable=0;points=[[0,0.5],[1,0.5]];portConstraint=eastwest;fontStyle=0" vertex="1" parent="RvCncOSn8bAutDe4F0GP-130">
          <mxGeometry y="26" width="275" height="54" as="geometry" />
        </mxCell>
        <mxCell id="RvCncOSn8bAutDe4F0GP-132" value="" style="line;html=1;strokeWidth=1;align=left;verticalAlign=middle;spacingTop=-1;spacingLeft=3;spacingRight=3;rotatable=0;labelPosition=right;points=[];portConstraint=eastwest;" vertex="1" parent="RvCncOSn8bAutDe4F0GP-130">
          <mxGeometry y="80" width="275" height="8" as="geometry" />
        </mxCell>
        <mxCell id="2wu1Nu-s1dEwyiByw0Oi-41" style="edgeStyle=orthogonalEdgeStyle;rounded=1;orthogonalLoop=1;jettySize=auto;html=1;endArrow=none;startFill=0;startArrow=none;dashed=1;dashPattern=8 8;curved=0;" edge="1" parent="RvCncOSn8bAutDe4F0GP-130">
          <mxGeometry relative="1" as="geometry">
            <mxPoint x="-60.000000000000455" y="321" as="targetPoint" />
            <mxPoint x="-4.547473508864641e-13" y="195.00000000000023" as="sourcePoint" />
          </mxGeometry>
        </mxCell>
        <mxCell id="2wu1Nu-s1dEwyiByw0Oi-44" style="edgeStyle=orthogonalEdgeStyle;rounded=1;orthogonalLoop=1;jettySize=auto;html=1;endArrow=none;startFill=0;curved=0;dashed=1;dashPattern=8 8;" edge="1" parent="RvCncOSn8bAutDe4F0GP-130" source="RvCncOSn8bAutDe4F0GP-133">
          <mxGeometry relative="1" as="geometry">
            <mxPoint x="40" y="645" as="targetPoint" />
            <Array as="points">
              <mxPoint x="370" y="149" />
              <mxPoint x="370" y="645" />
            </Array>
          </mxGeometry>
        </mxCell>
        <mxCell id="RvCncOSn8bAutDe4F0GP-133" value="+ &lt;&lt;create&gt;&gt;__init__(ControladorSistema)&#xa;+ lista_pedido() &#xa;+ pegar_pedido_por_codigo()&#xa;+ incluir_pedido() &#xa;+ excluir_pedido()&#xa;+ retornar() &#xa;+ abrir_tela()&#xa;" style="text;align=left;verticalAlign=top;spacingLeft=4;spacingRight=4;overflow=hidden;rotatable=0;points=[[0,0.5],[1,0.5]];portConstraint=eastwest;fontStyle=0;labelBorderColor=none;" vertex="1" parent="RvCncOSn8bAutDe4F0GP-130">
          <mxGeometry y="88" width="275" height="122" as="geometry" />
        </mxCell>
        <mxCell id="RvCncOSn8bAutDe4F0GP-134" value="ControladorVendas" style="swimlane;fontStyle=0;align=center;verticalAlign=top;childLayout=stackLayout;horizontal=1;startSize=26;horizontalStack=0;resizeParent=1;resizeLast=0;collapsible=1;marginBottom=0;rounded=1;shadow=0;strokeWidth=1;fontSize=15;fillColor=#fff2cc;strokeColor=#d6b656;" vertex="1" parent="RvCncOSn8bAutDe4F0GP-1">
          <mxGeometry x="1710" y="440" width="275" height="210" as="geometry">
            <mxRectangle x="30" y="360" width="160" height="26" as="alternateBounds" />
          </mxGeometry>
        </mxCell>
        <mxCell id="RvCncOSn8bAutDe4F0GP-135" style="edgeStyle=orthogonalEdgeStyle;rounded=1;orthogonalLoop=1;jettySize=auto;html=1;curved=0;endArrow=diamondThin;endFill=1;endSize=16;startSize=16;entryX=0.885;entryY=1.017;entryDx=0;entryDy=0;entryPerimeter=0;exitX=0.321;exitY=0;exitDx=0;exitDy=0;exitPerimeter=0;" edge="1" parent="RvCncOSn8bAutDe4F0GP-134" source="RvCncOSn8bAutDe4F0GP-134">
          <mxGeometry relative="1" as="geometry">
            <mxPoint x="-87.75" y="-99.07600000000002" as="targetPoint" />
            <mxPoint y="42.058823529411825" as="sourcePoint" />
            <Array as="points">
              <mxPoint x="88" y="-20" />
              <mxPoint x="-88" y="-20" />
            </Array>
          </mxGeometry>
        </mxCell>
        <mxCell id="RvCncOSn8bAutDe4F0GP-136" value="&amp;nbsp;- controlador_vendas&amp;nbsp;" style="edgeLabel;html=1;align=center;verticalAlign=middle;resizable=0;points=[];" vertex="1" connectable="0" parent="RvCncOSn8bAutDe4F0GP-135">
          <mxGeometry x="-0.2767" y="-4" relative="1" as="geometry">
            <mxPoint x="-18" y="1" as="offset" />
          </mxGeometry>
        </mxCell>
        <mxCell id="RvCncOSn8bAutDe4F0GP-137" value="- vendas : []&#xa;- controlador_sistema: ControladorSistema&#xa;- tela_venda: TelaVenda" style="text;align=left;verticalAlign=top;spacingLeft=4;spacingRight=4;overflow=hidden;rotatable=0;points=[[0,0.5],[1,0.5]];portConstraint=eastwest;fontStyle=0" vertex="1" parent="RvCncOSn8bAutDe4F0GP-134">
          <mxGeometry y="26" width="275" height="54" as="geometry" />
        </mxCell>
        <mxCell id="RvCncOSn8bAutDe4F0GP-138" value="" style="line;html=1;strokeWidth=1;align=left;verticalAlign=middle;spacingTop=-1;spacingLeft=3;spacingRight=3;rotatable=0;labelPosition=right;points=[];portConstraint=eastwest;" vertex="1" parent="RvCncOSn8bAutDe4F0GP-134">
          <mxGeometry y="80" width="275" height="8" as="geometry" />
        </mxCell>
        <mxCell id="2wu1Nu-s1dEwyiByw0Oi-42" style="edgeStyle=orthogonalEdgeStyle;rounded=1;orthogonalLoop=1;jettySize=auto;html=1;endArrow=none;startFill=0;endSize=13;startSize=13;curved=0;dashed=1;dashPattern=8 8;" edge="1" parent="RvCncOSn8bAutDe4F0GP-134">
          <mxGeometry relative="1" as="geometry">
            <mxPoint x="160" y="1349" as="targetPoint" />
            <mxPoint x="274.99999999999955" y="190" as="sourcePoint" />
            <Array as="points">
              <mxPoint x="700" y="190" />
              <mxPoint x="700" y="1349" />
            </Array>
          </mxGeometry>
        </mxCell>
        <mxCell id="2wu1Nu-s1dEwyiByw0Oi-47" style="edgeStyle=orthogonalEdgeStyle;rounded=1;orthogonalLoop=1;jettySize=auto;html=1;curved=0;dashed=1;dashPattern=8 8;endArrow=none;startFill=0;" edge="1" parent="RvCncOSn8bAutDe4F0GP-134">
          <mxGeometry relative="1" as="geometry">
            <mxPoint x="590" y="450" as="targetPoint" />
            <mxPoint x="280" y="180" as="sourcePoint" />
          </mxGeometry>
        </mxCell>
        <mxCell id="RvCncOSn8bAutDe4F0GP-139" value="+ &lt;&lt;create&gt;&gt;__init__(ControladorSistema)&#xa;+ lista_venda()&#xa;+ pegar_venda()&#xa;+ incluir_venda()&#xa;+ excluir_venda() &#xa;+ retornar() &#xa;+ abrir_tela()&#xa;" style="text;align=left;verticalAlign=top;spacingLeft=4;spacingRight=4;overflow=hidden;rotatable=0;points=[[0,0.5],[1,0.5]];portConstraint=eastwest;fontStyle=0;labelBorderColor=none;" vertex="1" parent="RvCncOSn8bAutDe4F0GP-134">
          <mxGeometry y="88" width="275" height="122" as="geometry" />
        </mxCell>
        <mxCell id="RvCncOSn8bAutDe4F0GP-140" style="edgeStyle=orthogonalEdgeStyle;rounded=1;orthogonalLoop=1;jettySize=auto;html=1;curved=0;endSize=16;endArrow=none;endFill=1;startArrow=diamondThin;startFill=1;startSize=16;exitX=0.799;exitY=0.002;exitDx=0;exitDy=0;exitPerimeter=0;" edge="1" parent="RvCncOSn8bAutDe4F0GP-1" source="RvCncOSn8bAutDe4F0GP-130">
          <mxGeometry relative="1" as="geometry">
            <mxPoint x="1730.0000000000007" y="635.2" as="sourcePoint" />
            <mxPoint x="2150" y="596" as="targetPoint" />
            <Array as="points">
              <mxPoint x="2150" y="596" />
            </Array>
          </mxGeometry>
        </mxCell>
        <mxCell id="RvCncOSn8bAutDe4F0GP-141" value="&amp;nbsp;- tela_pedido&amp;nbsp;" style="edgeLabel;html=1;align=center;verticalAlign=middle;resizable=0;points=[];" vertex="1" connectable="0" parent="RvCncOSn8bAutDe4F0GP-140">
          <mxGeometry x="0.1663" y="4" relative="1" as="geometry">
            <mxPoint x="6" y="-3" as="offset" />
          </mxGeometry>
        </mxCell>
        <mxCell id="RvCncOSn8bAutDe4F0GP-142" style="edgeStyle=orthogonalEdgeStyle;rounded=1;orthogonalLoop=1;jettySize=auto;html=1;endSize=16;startSize=16;endArrow=diamondThin;endFill=1;curved=0;exitX=0.5;exitY=0;exitDx=0;exitDy=0;" edge="1" parent="RvCncOSn8bAutDe4F0GP-1" source="RvCncOSn8bAutDe4F0GP-130" target="RvCncOSn8bAutDe4F0GP-62">
          <mxGeometry relative="1" as="geometry">
            <mxPoint x="1950" y="630" as="sourcePoint" />
            <mxPoint x="1647.85" y="331.2779999999999" as="targetPoint" />
            <Array as="points">
              <mxPoint x="2068" y="610" />
              <mxPoint x="1990" y="610" />
              <mxPoint x="1990" y="400" />
              <mxPoint x="1648" y="400" />
            </Array>
          </mxGeometry>
        </mxCell>
        <mxCell id="RvCncOSn8bAutDe4F0GP-143" value="&amp;nbsp;- controlador_pedidos&amp;nbsp;" style="edgeLabel;html=1;align=center;verticalAlign=middle;resizable=0;points=[];" vertex="1" connectable="0" parent="RvCncOSn8bAutDe4F0GP-142">
          <mxGeometry x="0.6601" y="1" relative="1" as="geometry">
            <mxPoint x="29" y="-1" as="offset" />
          </mxGeometry>
        </mxCell>
        <mxCell id="RvCncOSn8bAutDe4F0GP-144" value="1" style="text;html=1;align=center;verticalAlign=middle;resizable=0;points=[];autosize=1;strokeColor=none;fillColor=none;" vertex="1" parent="RvCncOSn8bAutDe4F0GP-1">
          <mxGeometry x="325" y="568" width="30" height="30" as="geometry" />
        </mxCell>
        <mxCell id="RvCncOSn8bAutDe4F0GP-145" value="1" style="text;html=1;align=center;verticalAlign=middle;resizable=0;points=[];autosize=1;strokeColor=none;fillColor=none;" vertex="1" parent="RvCncOSn8bAutDe4F0GP-1">
          <mxGeometry x="401" y="708" width="30" height="30" as="geometry" />
        </mxCell>
        <mxCell id="RvCncOSn8bAutDe4F0GP-146" value="1" style="text;html=1;align=center;verticalAlign=middle;resizable=0;points=[];autosize=1;strokeColor=none;fillColor=none;" vertex="1" parent="RvCncOSn8bAutDe4F0GP-1">
          <mxGeometry x="209" y="860" width="30" height="30" as="geometry" />
        </mxCell>
        <mxCell id="RvCncOSn8bAutDe4F0GP-147" value="1" style="text;html=1;align=center;verticalAlign=middle;resizable=0;points=[];autosize=1;strokeColor=none;fillColor=none;" vertex="1" parent="RvCncOSn8bAutDe4F0GP-1">
          <mxGeometry x="625" y="805" width="30" height="30" as="geometry" />
        </mxCell>
        <mxCell id="RvCncOSn8bAutDe4F0GP-148" value="1" style="text;html=1;align=center;verticalAlign=middle;resizable=0;points=[];autosize=1;strokeColor=none;fillColor=none;" vertex="1" parent="RvCncOSn8bAutDe4F0GP-1">
          <mxGeometry x="1870" y="870" width="30" height="30" as="geometry" />
        </mxCell>
        <mxCell id="RvCncOSn8bAutDe4F0GP-149" value="1" style="text;html=1;align=center;verticalAlign=middle;resizable=0;points=[];autosize=1;strokeColor=none;fillColor=none;" vertex="1" parent="RvCncOSn8bAutDe4F0GP-1">
          <mxGeometry x="1975" y="980" width="30" height="30" as="geometry" />
        </mxCell>
        <mxCell id="RvCncOSn8bAutDe4F0GP-150" value="1" style="text;html=1;align=center;verticalAlign=middle;resizable=0;points=[];autosize=1;strokeColor=none;fillColor=none;" vertex="1" parent="RvCncOSn8bAutDe4F0GP-1">
          <mxGeometry x="2123" y="678" width="30" height="30" as="geometry" />
        </mxCell>
        <mxCell id="RvCncOSn8bAutDe4F0GP-151" value="1" style="text;html=1;align=center;verticalAlign=middle;resizable=0;points=[];autosize=1;strokeColor=none;fillColor=none;" vertex="1" parent="RvCncOSn8bAutDe4F0GP-1">
          <mxGeometry x="2120" y="598" width="30" height="30" as="geometry" />
        </mxCell>
        <mxCell id="RvCncOSn8bAutDe4F0GP-152" value="1" style="text;html=1;align=center;verticalAlign=middle;resizable=0;points=[];autosize=1;strokeColor=none;fillColor=none;" vertex="1" parent="RvCncOSn8bAutDe4F0GP-1">
          <mxGeometry x="1881" y="655" width="30" height="30" as="geometry" />
        </mxCell>
        <mxCell id="RvCncOSn8bAutDe4F0GP-153" value="1" style="text;html=1;align=center;verticalAlign=middle;resizable=0;points=[];autosize=1;strokeColor=none;fillColor=none;" vertex="1" parent="RvCncOSn8bAutDe4F0GP-1">
          <mxGeometry x="1613" y="674" width="30" height="30" as="geometry" />
        </mxCell>
        <mxCell id="RvCncOSn8bAutDe4F0GP-154" style="edgeStyle=orthogonalEdgeStyle;rounded=1;orthogonalLoop=1;jettySize=auto;html=1;entryX=0.924;entryY=-0.009;entryDx=0;entryDy=0;entryPerimeter=0;endSize=13;startSize=13;endArrow=open;endFill=0;curved=0;" edge="1" parent="RvCncOSn8bAutDe4F0GP-1" source="RvCncOSn8bAutDe4F0GP-131" target="RvCncOSn8bAutDe4F0GP-91">
          <mxGeometry relative="1" as="geometry" />
        </mxCell>
        <mxCell id="RvCncOSn8bAutDe4F0GP-155" value="&amp;nbsp;- pedidos&amp;nbsp;" style="edgeLabel;html=1;align=center;verticalAlign=middle;resizable=0;points=[];" vertex="1" connectable="0" parent="RvCncOSn8bAutDe4F0GP-154">
          <mxGeometry x="-0.5163" y="-1" relative="1" as="geometry">
            <mxPoint x="-1" as="offset" />
          </mxGeometry>
        </mxCell>
        <mxCell id="RvCncOSn8bAutDe4F0GP-156" value="" style="edgeStyle=orthogonalEdgeStyle;rounded=1;orthogonalLoop=1;jettySize=auto;html=1;endArrow=none;endFill=0;endSize=13;exitX=0;exitY=0.923;exitDx=0;exitDy=0;exitPerimeter=0;curved=0;entryX=1.02;entryY=0.226;entryDx=0;entryDy=0;entryPerimeter=0;startArrow=open;startFill=0;startSize=13;" edge="1" parent="RvCncOSn8bAutDe4F0GP-1" source="RvCncOSn8bAutDe4F0GP-10">
          <mxGeometry relative="1" as="geometry">
            <mxPoint x="909" y="430" as="sourcePoint" />
            <mxPoint x="304.69999999999993" y="545.464" as="targetPoint" />
            <Array as="points">
              <mxPoint x="780" y="580" />
              <mxPoint x="780" y="620" />
              <mxPoint x="410" y="620" />
              <mxPoint x="410" y="546" />
            </Array>
          </mxGeometry>
        </mxCell>
        <mxCell id="RvCncOSn8bAutDe4F0GP-157" value="&amp;nbsp;- clientes&amp;nbsp;" style="edgeLabel;html=1;align=center;verticalAlign=middle;resizable=0;points=[];" vertex="1" connectable="0" parent="RvCncOSn8bAutDe4F0GP-156">
          <mxGeometry x="0.3376" y="3" relative="1" as="geometry">
            <mxPoint x="291" y="-3" as="offset" />
          </mxGeometry>
        </mxCell>
        <mxCell id="RvCncOSn8bAutDe4F0GP-158" value="0 .. *" style="text;html=1;align=center;verticalAlign=middle;resizable=0;points=[];autosize=1;strokeColor=none;fillColor=none;" vertex="1" parent="RvCncOSn8bAutDe4F0GP-1">
          <mxGeometry x="803" y="582" width="50" height="30" as="geometry" />
        </mxCell>
        <mxCell id="RvCncOSn8bAutDe4F0GP-159" value="1" style="text;html=1;align=center;verticalAlign=middle;resizable=0;points=[];autosize=1;strokeColor=none;fillColor=none;" vertex="1" parent="RvCncOSn8bAutDe4F0GP-1">
          <mxGeometry x="315" y="520" width="30" height="30" as="geometry" />
        </mxCell>
        <mxCell id="RvCncOSn8bAutDe4F0GP-160" value="1&lt;div&gt;&lt;br&gt;&lt;/div&gt;" style="text;html=1;align=center;verticalAlign=middle;resizable=0;points=[];autosize=1;strokeColor=none;fillColor=none;" vertex="1" parent="RvCncOSn8bAutDe4F0GP-1">
          <mxGeometry x="314" y="480" width="30" height="40" as="geometry" />
        </mxCell>
        <mxCell id="RvCncOSn8bAutDe4F0GP-161" value="0..*" style="text;html=1;align=center;verticalAlign=middle;resizable=0;points=[];autosize=1;strokeColor=none;fillColor=none;" vertex="1" parent="RvCncOSn8bAutDe4F0GP-1">
          <mxGeometry x="780" y="368" width="40" height="30" as="geometry" />
        </mxCell>
        <mxCell id="RvCncOSn8bAutDe4F0GP-162" value="1" style="text;html=1;align=center;verticalAlign=middle;resizable=0;points=[];autosize=1;strokeColor=none;fillColor=none;" vertex="1" parent="RvCncOSn8bAutDe4F0GP-1">
          <mxGeometry x="1725" y="348" width="30" height="30" as="geometry" />
        </mxCell>
        <mxCell id="RvCncOSn8bAutDe4F0GP-163" value="1" style="text;html=1;align=center;verticalAlign=middle;resizable=0;points=[];autosize=1;strokeColor=none;fillColor=none;" vertex="1" parent="RvCncOSn8bAutDe4F0GP-1">
          <mxGeometry x="1656" y="358" width="30" height="30" as="geometry" />
        </mxCell>
        <mxCell id="RvCncOSn8bAutDe4F0GP-164" value="1" style="text;html=1;align=center;verticalAlign=middle;resizable=0;points=[];autosize=1;strokeColor=none;fillColor=none;" vertex="1" parent="RvCncOSn8bAutDe4F0GP-1">
          <mxGeometry x="1592" y="359" width="30" height="30" as="geometry" />
        </mxCell>
        <mxCell id="RvCncOSn8bAutDe4F0GP-165" value="1" style="text;html=1;align=center;verticalAlign=middle;resizable=0;points=[];autosize=1;strokeColor=none;fillColor=none;" vertex="1" parent="RvCncOSn8bAutDe4F0GP-1">
          <mxGeometry x="2030" y="685" width="30" height="30" as="geometry" />
        </mxCell>
        <mxCell id="RvCncOSn8bAutDe4F0GP-166" value="1" style="text;html=1;align=center;verticalAlign=middle;resizable=0;points=[];autosize=1;strokeColor=none;fillColor=none;" vertex="1" parent="RvCncOSn8bAutDe4F0GP-1">
          <mxGeometry x="1832.5" y="1060" width="30" height="30" as="geometry" />
        </mxCell>
        <mxCell id="RvCncOSn8bAutDe4F0GP-167" value="1" style="text;html=1;align=center;verticalAlign=middle;resizable=0;points=[];autosize=1;strokeColor=none;fillColor=none;" vertex="1" parent="RvCncOSn8bAutDe4F0GP-1">
          <mxGeometry x="150" y="348" width="30" height="30" as="geometry" />
        </mxCell>
        <mxCell id="RvCncOSn8bAutDe4F0GP-168" value="1" style="text;html=1;align=center;verticalAlign=middle;resizable=0;points=[];autosize=1;strokeColor=none;fillColor=none;" vertex="1" parent="RvCncOSn8bAutDe4F0GP-1">
          <mxGeometry x="209" y="354" width="30" height="30" as="geometry" />
        </mxCell>
        <mxCell id="RvCncOSn8bAutDe4F0GP-169" value="1" style="text;html=1;align=center;verticalAlign=middle;resizable=0;points=[];autosize=1;strokeColor=none;fillColor=none;" vertex="1" parent="RvCncOSn8bAutDe4F0GP-1">
          <mxGeometry x="209" y="384" width="30" height="30" as="geometry" />
        </mxCell>
        <mxCell id="RvCncOSn8bAutDe4F0GP-170" value="1" style="text;html=1;align=center;verticalAlign=middle;resizable=0;points=[];autosize=1;strokeColor=none;fillColor=none;" vertex="1" parent="RvCncOSn8bAutDe4F0GP-1">
          <mxGeometry x="40" y="940" width="30" height="30" as="geometry" />
        </mxCell>
        <mxCell id="RvCncOSn8bAutDe4F0GP-171" value="0 .. *" style="text;html=1;align=center;verticalAlign=middle;resizable=0;points=[];autosize=1;strokeColor=none;fillColor=none;" vertex="1" parent="RvCncOSn8bAutDe4F0GP-1">
          <mxGeometry x="615" y="1010" width="50" height="30" as="geometry" />
        </mxCell>
        <mxCell id="RvCncOSn8bAutDe4F0GP-172" value="1" style="text;html=1;align=center;verticalAlign=middle;resizable=0;points=[];autosize=1;strokeColor=none;fillColor=none;" vertex="1" parent="RvCncOSn8bAutDe4F0GP-1">
          <mxGeometry x="387" y="922" width="30" height="30" as="geometry" />
        </mxCell>
        <mxCell id="RvCncOSn8bAutDe4F0GP-173" value="1" style="text;html=1;align=center;verticalAlign=middle;resizable=0;points=[];autosize=1;strokeColor=none;fillColor=none;" vertex="1" parent="RvCncOSn8bAutDe4F0GP-1">
          <mxGeometry x="1900" y="738" width="30" height="30" as="geometry" />
        </mxCell>
        <mxCell id="RvCncOSn8bAutDe4F0GP-174" value="0 .. *" style="text;html=1;align=center;verticalAlign=middle;resizable=0;points=[];autosize=1;strokeColor=none;fillColor=none;" vertex="1" parent="RvCncOSn8bAutDe4F0GP-1">
          <mxGeometry x="1500.5" y="840" width="50" height="30" as="geometry" />
        </mxCell>
        <mxCell id="RvCncOSn8bAutDe4F0GP-175" style="edgeStyle=orthogonalEdgeStyle;rounded=1;orthogonalLoop=1;jettySize=auto;html=1;exitX=0.795;exitY=0.993;exitDx=0;exitDy=0;exitPerimeter=0;entryX=0.517;entryY=0.99;entryDx=0;entryDy=0;entryPerimeter=0;startArrow=open;startFill=0;endArrow=none;endSize=13;targetPerimeterSpacing=0;startSize=13;curved=0;" edge="1" parent="RvCncOSn8bAutDe4F0GP-1" source="RvCncOSn8bAutDe4F0GP-21" target="RvCncOSn8bAutDe4F0GP-139">
          <mxGeometry relative="1" as="geometry">
            <mxPoint x="1852" y="654" as="targetPoint" />
            <Array as="points">
              <mxPoint x="1623" y="670" />
              <mxPoint x="1852" y="670" />
            </Array>
          </mxGeometry>
        </mxCell>
        <mxCell id="RvCncOSn8bAutDe4F0GP-176" value="&amp;nbsp;- vendas&amp;nbsp;" style="edgeLabel;html=1;align=center;verticalAlign=middle;resizable=0;points=[];" vertex="1" connectable="0" parent="RvCncOSn8bAutDe4F0GP-175">
          <mxGeometry x="-0.2993" y="1" relative="1" as="geometry">
            <mxPoint as="offset" />
          </mxGeometry>
        </mxCell>
        <mxCell id="RvCncOSn8bAutDe4F0GP-177" value="0..*" style="text;html=1;align=center;verticalAlign=middle;resizable=0;points=[];autosize=1;strokeColor=none;fillColor=none;" vertex="1" parent="RvCncOSn8bAutDe4F0GP-1">
          <mxGeometry x="1630" y="598" width="40" height="30" as="geometry" />
        </mxCell>
        <mxCell id="RvCncOSn8bAutDe4F0GP-178" value="1" style="text;html=1;align=center;verticalAlign=middle;resizable=0;points=[];autosize=1;strokeColor=none;fillColor=none;" vertex="1" parent="RvCncOSn8bAutDe4F0GP-1">
          <mxGeometry x="1812" y="642" width="30" height="30" as="geometry" />
        </mxCell>
        <mxCell id="RvCncOSn8bAutDe4F0GP-179" value="1" style="text;html=1;align=center;verticalAlign=middle;resizable=0;points=[];autosize=1;strokeColor=none;fillColor=none;" vertex="1" parent="RvCncOSn8bAutDe4F0GP-1">
          <mxGeometry x="1695" y="1060" width="30" height="30" as="geometry" />
        </mxCell>
        <mxCell id="RvCncOSn8bAutDe4F0GP-180" value="0..*" style="text;html=1;align=center;verticalAlign=middle;resizable=0;points=[];autosize=1;strokeColor=none;fillColor=none;" vertex="1" parent="RvCncOSn8bAutDe4F0GP-1">
          <mxGeometry x="1741" y="1177" width="40" height="30" as="geometry" />
        </mxCell>
        <mxCell id="2wu1Nu-s1dEwyiByw0Oi-0" value="OpcaoException" style="swimlane;fontStyle=0;align=center;verticalAlign=top;childLayout=stackLayout;horizontal=1;startSize=40;horizontalStack=0;resizeParent=1;resizeLast=0;collapsible=1;marginBottom=0;rounded=1;shadow=0;strokeWidth=1;fontSize=14;spacing=1;fillColor=#d5e8d4;strokeColor=#82b366;" vertex="1" parent="RvCncOSn8bAutDe4F0GP-1">
          <mxGeometry x="1170" y="1660" width="224" height="60" as="geometry">
            <mxRectangle x="230" y="140" width="160" height="26" as="alternateBounds" />
          </mxGeometry>
        </mxCell>
        <mxCell id="2wu1Nu-s1dEwyiByw0Oi-3" value="" style="line;html=1;strokeWidth=1;align=left;verticalAlign=middle;spacingTop=-1;spacingLeft=3;spacingRight=3;rotatable=0;labelPosition=right;points=[];portConstraint=eastwest;" vertex="1" parent="2wu1Nu-s1dEwyiByw0Oi-0">
          <mxGeometry y="40" width="224" height="10" as="geometry" />
        </mxCell>
        <mxCell id="2wu1Nu-s1dEwyiByw0Oi-5" style="edgeStyle=orthogonalEdgeStyle;rounded=0;orthogonalLoop=1;jettySize=auto;html=1;exitX=0.059;exitY=1.011;exitDx=0;exitDy=0;exitPerimeter=0;startSize=13;endSize=13;endArrow=open;endFill=0;dashed=1;dashPattern=8 8;entryX=0;entryY=0.5;entryDx=0;entryDy=0;" edge="1" parent="RvCncOSn8bAutDe4F0GP-1" source="RvCncOSn8bAutDe4F0GP-65" target="2wu1Nu-s1dEwyiByw0Oi-0">
          <mxGeometry relative="1" as="geometry">
            <mxPoint x="344" y="758.9999999999998" as="targetPoint" />
            <mxPoint x="414" y="759" as="sourcePoint" />
            <Array as="points">
              <mxPoint x="441" y="1690" />
            </Array>
          </mxGeometry>
        </mxCell>
        <mxCell id="RvCncOSn8bAutDe4F0GP-65" value="+ &lt;&lt;create&gt;&gt;__init__()&#xa;+ tela_opcoes()&#xa;+ pega_dado_pessoa()&#xa;+ mostra_cliente()&#xa;+ mostra_vendedor()&#xa;+ seleciona_pessoa()&#xa;+ mostra_mensagem()" style="text;align=left;verticalAlign=top;spacingLeft=4;spacingRight=4;overflow=hidden;rotatable=0;points=[[0,0.5],[1,0.5]];portConstraint=eastwest;fontStyle=0" vertex="1" parent="RvCncOSn8bAutDe4F0GP-1">
          <mxGeometry x="430" y="674" width="185" height="116" as="geometry" />
        </mxCell>
        <mxCell id="2wu1Nu-s1dEwyiByw0Oi-14" style="edgeStyle=orthogonalEdgeStyle;rounded=1;orthogonalLoop=1;jettySize=auto;html=1;startSize=13;endSize=13;endArrow=none;endFill=0;dashed=1;dashPattern=8 8;entryX=0.527;entryY=1.009;entryDx=0;entryDy=0;entryPerimeter=0;curved=0;startArrow=open;startFill=0;" edge="1" parent="RvCncOSn8bAutDe4F0GP-1" source="2wu1Nu-s1dEwyiByw0Oi-0" target="RvCncOSn8bAutDe4F0GP-78">
          <mxGeometry relative="1" as="geometry">
            <mxPoint x="1521" y="770" as="targetPoint" />
            <mxPoint x="1607" y="770.0000000000002" as="sourcePoint" />
            <Array as="points">
              <mxPoint x="1900" y="1690" />
              <mxPoint x="1900" y="784" />
              <mxPoint x="1526" y="784" />
            </Array>
          </mxGeometry>
        </mxCell>
        <mxCell id="2wu1Nu-s1dEwyiByw0Oi-19" style="edgeStyle=orthogonalEdgeStyle;rounded=1;orthogonalLoop=1;jettySize=auto;html=1;startSize=13;endSize=13;endArrow=none;endFill=0;dashed=1;dashPattern=8 8;curved=0;startFill=0;" edge="1" parent="RvCncOSn8bAutDe4F0GP-1">
          <mxGeometry relative="1" as="geometry">
            <mxPoint x="2160" y="595" as="targetPoint" />
            <mxPoint x="1900" y="1686" as="sourcePoint" />
            <Array as="points">
              <mxPoint x="2340" y="1686" />
              <mxPoint x="2340" y="610" />
              <mxPoint x="2160" y="610" />
            </Array>
          </mxGeometry>
        </mxCell>
        <mxCell id="2wu1Nu-s1dEwyiByw0Oi-26" style="edgeStyle=orthogonalEdgeStyle;rounded=1;orthogonalLoop=1;jettySize=auto;html=1;curved=0;dashed=1;dashPattern=8 8;startSize=13;endArrow=open;endFill=0;endSize=13;" edge="1" parent="RvCncOSn8bAutDe4F0GP-1" source="RvCncOSn8bAutDe4F0GP-43">
          <mxGeometry relative="1" as="geometry">
            <mxPoint x="1530" y="1800" as="targetPoint" />
            <Array as="points">
              <mxPoint x="248" y="2030" />
              <mxPoint x="1531" y="2030" />
              <mxPoint x="1531" y="1930" />
            </Array>
          </mxGeometry>
        </mxCell>
        <mxCell id="2wu1Nu-s1dEwyiByw0Oi-29" style="edgeStyle=orthogonalEdgeStyle;rounded=1;orthogonalLoop=1;jettySize=auto;html=1;dashed=1;dashPattern=8 8;curved=0;endSize=13;endArrow=open;endFill=0;" edge="1" parent="RvCncOSn8bAutDe4F0GP-1" source="RvCncOSn8bAutDe4F0GP-43" target="2wu1Nu-s1dEwyiByw0Oi-35">
          <mxGeometry relative="1" as="geometry">
            <mxPoint x="87.69599999999991" y="1269.1599999999999" as="targetPoint" />
            <Array as="points">
              <mxPoint x="150" y="1785" />
            </Array>
          </mxGeometry>
        </mxCell>
        <mxCell id="2wu1Nu-s1dEwyiByw0Oi-34" value="ListaExcessaao" style="swimlane;fontStyle=0;align=center;verticalAlign=top;childLayout=stackLayout;horizontal=1;startSize=40;horizontalStack=0;resizeParent=1;resizeLast=0;collapsible=1;marginBottom=0;rounded=1;shadow=0;strokeWidth=1;fontSize=14;spacing=1;fillColor=#d5e8d4;strokeColor=#82b366;" vertex="1" parent="RvCncOSn8bAutDe4F0GP-1">
          <mxGeometry x="1170" y="1740" width="224" height="60" as="geometry">
            <mxRectangle x="230" y="140" width="160" height="26" as="alternateBounds" />
          </mxGeometry>
        </mxCell>
        <mxCell id="2wu1Nu-s1dEwyiByw0Oi-35" value="" style="line;html=1;strokeWidth=1;align=left;verticalAlign=middle;spacingTop=-1;spacingLeft=3;spacingRight=3;rotatable=0;labelPosition=right;points=[];portConstraint=eastwest;" vertex="1" parent="2wu1Nu-s1dEwyiByw0Oi-34">
          <mxGeometry y="40" width="224" height="10" as="geometry" />
        </mxCell>
        <mxCell id="2wu1Nu-s1dEwyiByw0Oi-36" value="Lista não excessao" style="swimlane;fontStyle=0;align=center;verticalAlign=top;childLayout=stackLayout;horizontal=1;startSize=40;horizontalStack=0;resizeParent=1;resizeLast=0;collapsible=1;marginBottom=0;rounded=1;shadow=0;strokeWidth=1;fontSize=14;spacing=1;fillColor=#d5e8d4;strokeColor=#82b366;" vertex="1" parent="RvCncOSn8bAutDe4F0GP-1">
          <mxGeometry x="1446" y="1740" width="224" height="60" as="geometry">
            <mxRectangle x="230" y="140" width="160" height="26" as="alternateBounds" />
          </mxGeometry>
        </mxCell>
        <mxCell id="2wu1Nu-s1dEwyiByw0Oi-37" value="" style="line;html=1;strokeWidth=1;align=left;verticalAlign=middle;spacingTop=-1;spacingLeft=3;spacingRight=3;rotatable=0;labelPosition=right;points=[];portConstraint=eastwest;" vertex="1" parent="2wu1Nu-s1dEwyiByw0Oi-36">
          <mxGeometry y="40" width="224" height="10" as="geometry" />
        </mxCell>
        <mxCell id="2wu1Nu-s1dEwyiByw0Oi-38" style="edgeStyle=orthogonalEdgeStyle;rounded=1;orthogonalLoop=1;jettySize=auto;html=1;startSize=13;endSize=13;endArrow=none;endFill=0;curved=0;startFill=0;dashed=1;dashPattern=8 8;" edge="1" parent="RvCncOSn8bAutDe4F0GP-1" source="RvCncOSn8bAutDe4F0GP-47">
          <mxGeometry relative="1" as="geometry">
            <mxPoint x="150" y="1785" as="targetPoint" />
            <Array as="points">
              <mxPoint x="40" y="614" />
              <mxPoint x="40" y="1785" />
            </Array>
          </mxGeometry>
        </mxCell>
        <mxCell id="2wu1Nu-s1dEwyiByw0Oi-39" style="edgeStyle=orthogonalEdgeStyle;rounded=1;orthogonalLoop=1;jettySize=auto;html=1;startSize=13;endSize=13;endArrow=none;endFill=0;curved=0;startFill=0;dashed=1;dashPattern=8 8;" edge="1" parent="RvCncOSn8bAutDe4F0GP-1">
          <mxGeometry relative="1" as="geometry">
            <mxPoint x="117" y="660" as="sourcePoint" />
            <mxPoint x="260" y="2030" as="targetPoint" />
            <Array as="points">
              <mxPoint x="67" y="660" />
              <mxPoint x="67" y="2030" />
              <mxPoint x="177" y="2030" />
            </Array>
          </mxGeometry>
        </mxCell>
        <mxCell id="2wu1Nu-s1dEwyiByw0Oi-40" style="edgeStyle=orthogonalEdgeStyle;rounded=1;orthogonalLoop=1;jettySize=auto;html=1;entryX=1;entryY=0.75;entryDx=0;entryDy=0;curved=0;dashed=1;dashPattern=8 8;endArrow=open;endFill=0;startSize=13;endSize=13;" edge="1" parent="RvCncOSn8bAutDe4F0GP-1" source="RvCncOSn8bAutDe4F0GP-125" target="2wu1Nu-s1dEwyiByw0Oi-36">
          <mxGeometry relative="1" as="geometry">
            <Array as="points">
              <mxPoint x="1870" y="979" />
              <mxPoint x="1870" y="1785" />
            </Array>
          </mxGeometry>
        </mxCell>
        <mxCell id="2wu1Nu-s1dEwyiByw0Oi-43" style="edgeStyle=orthogonalEdgeStyle;rounded=1;orthogonalLoop=1;jettySize=auto;html=1;entryX=0.5;entryY=1;entryDx=0;entryDy=0;endArrow=open;endFill=0;curved=0;dashed=1;dashPattern=8 8;startSize=13;endSize=13;" edge="1" parent="RvCncOSn8bAutDe4F0GP-1">
          <mxGeometry relative="1" as="geometry">
            <mxPoint x="1758.5263157894738" y="1060.0000000000002" as="sourcePoint" />
            <mxPoint x="1319" y="1800" as="targetPoint" />
            <Array as="points">
              <mxPoint x="1758" y="1110" />
              <mxPoint x="1967" y="1110" />
              <mxPoint x="1967" y="1840" />
              <mxPoint x="1319" y="1840" />
            </Array>
          </mxGeometry>
        </mxCell>
      </root>
    </mxGraphModel>
  </diagram>
</mxfile>
